<?xml version='1.0' encoding='ASCII' standalone='yes'?>
<svg xmlns="http://www.w3.org/2000/svg" version="1.1" width="238mm" height="182mm" viewbox="0 0 238mm 182mm">
  <g>
    <g transform=" translate(0, 0) scale(1)"><path fill="none" stroke="#000000" stroke-width="0.0283" d="M674.231,487.143c0,15.656-12.691,28.347-28.348,28.347H27.932  c-15.655,0-28.347-12.69-28.347-28.347V27.932c0-15.656,12.691-28.347,28.347-28.347h617.952c15.656,0,28.348,12.69,28.348,28.347  V487.143z"/>
</g>
    <g transform=" translate(60, 90) scale(1)"><metadata xmlns:rdf="http://www.w3.org/1999/02/22-rdf-syntax-ns#" xmlns:cc="http://creativecommons.org/ns#" xmlns:dc="http://purl.org/dc/elements/1.1/" id="metadata93"><rdf:RDF><cc:Work rdf:about=""><dc:format>image/svg+xml</dc:format><dc:type rdf:resource="http://purl.org/dc/dcmitype/StillImage"/></cc:Work></rdf:RDF></metadata><defs id="defs91"/><sodipodi:namedview xmlns:sodipodi="http://sodipodi.sourceforge.net/DTD/sodipodi-0.dtd" xmlns:inkscape="http://www.inkscape.org/namespaces/inkscape" pagecolor="#ffffff" bordercolor="#666666" borderopacity="1" objecttolerance="10" gridtolerance="10" guidetolerance="10" inkscape:pageopacity="0" inkscape:pageshadow="2" inkscape:window-width="640" inkscape:window-height="480" id="namedview89" showgrid="false" fit-margin-top="0" fit-margin-left="0" fit-margin-right="0" fit-margin-bottom="0" inkscape:zoom="0.45744415" inkscape:cx="277.44999" inkscape:cy="182.70124" inkscape:window-x="0" inkscape:window-y="22" inkscape:window-maximized="0" inkscape:current-layer="Layer_1"/>
<g xmlns:inkscape="http://www.inkscape.org/namespaces/inkscape" id="g3" transform="translate(-59.87503,-75.90625)">
	<path stroke-miterlimit="10" d="m 72.576,127.953 h 51 c 6.627,0 12,-5.373 12,-12 v -28 c 0,-6.627 -5.373,-12 -12,-12 h -51 c -6.627,0 -12,5.373 -12,12 v 28 c 0,6.628 5.373,12 12,12 z" id="path5" inkscape:connector-curvature="0" style="fill:#ffffff;stroke:#000000;stroke-width:0.0283;stroke-miterlimit:10"/>
	<path stroke-miterlimit="10" d="m 152.666,127.953 h 51 c 6.627,0 12,-5.373 12,-12 v -28 c 0,-6.627 -5.373,-12 -12,-12 h -51 c -6.627,0 -12,5.373 -12,12 v 28 c 0,6.627 5.372,12 12,12 z" id="path7" inkscape:connector-curvature="0" style="fill:#ffffff;stroke:#000000;stroke-width:0.0283;stroke-miterlimit:10"/>
	<path stroke-miterlimit="10" d="m 232.576,127.953 h 51 c 6.627,0 12,-5.373 12,-12 v -28 c 0,-6.627 -5.373,-12 -12,-12 h -51 c -6.627,0 -12,5.373 -12,12 v 28 c 0,6.627 5.373,12 12,12 z" id="path9" inkscape:connector-curvature="0" style="fill:#ffffff;stroke:#000000;stroke-width:0.0283;stroke-miterlimit:10"/>
	<path stroke-miterlimit="10" d="m 312.401,127.953 h 51 c 6.627,0 12,-5.373 12,-12 v -28 c 0,-6.627 -5.373,-12 -12,-12 h -51 c -6.627,0 -12,5.373 -12,12 v 28 c 0,6.627 5.373,12 12,12 z" id="path11" inkscape:connector-curvature="0" style="fill:#ffffff;stroke:#000000;stroke-width:0.0283;stroke-miterlimit:10"/>
	<path stroke-miterlimit="10" d="m 391.771,127.953 h 51 c 6.627,0 12,-5.373 12,-12 v -28 c 0,-6.627 -5.373,-12 -12,-12 h -51 c -6.628,0 -12,5.373 -12,12 v 28 c 0,6.627 5.372,12 12,12 z" id="path13" inkscape:connector-curvature="0" style="fill:#ffffff;stroke:#000000;stroke-width:0.0283;stroke-miterlimit:10"/>
	<path stroke-miterlimit="10" d="m 471.266,127.953 h 51 c 6.627,0 12,-5.373 12,-12 v -28 c 0,-6.627 -5.373,-12 -12,-12 h -51 c -6.627,0 -12,5.373 -12,12 v 28 c 0,6.627 5.373,12 12,12 z" id="path15" inkscape:connector-curvature="0" style="fill:#ffffff;stroke:#000000;stroke-width:0.0283;stroke-miterlimit:10"/>
	<path stroke-miterlimit="10" d="m 550.818,127.953 h 51 c 6.627,0 12,-5.373 12,-12 v -28 c 0,-6.627 -5.373,-12 -12,-12 h -51 c -6.627,0 -12,5.373 -12,12 v 28 c 0,6.627 5.373,12 12,12 z" id="path17" inkscape:connector-curvature="0" style="fill:#ffffff;stroke:#000000;stroke-width:0.0283;stroke-miterlimit:10"/>
	<path stroke-miterlimit="10" d="m 72.545,190.287 h 51 c 6.627,0 12,-5.373 12,-12 v -28 c 0,-6.627 -5.373,-12 -12,-12 h -51 c -6.627,0 -12,5.373 -12,12 v 28 c 0,6.627 5.372,12 12,12 z" id="path19" inkscape:connector-curvature="0" style="fill:#ffffff;stroke:#000000;stroke-width:0.0283;stroke-miterlimit:10"/>
	<path stroke-miterlimit="10" d="m 152.634,190.287 h 51 c 6.627,0 12,-5.373 12,-12 v -28 c 0,-6.627 -5.373,-12 -12,-12 h -51 c -6.627,0 -12,5.373 -12,12 v 28 c 0,6.627 5.373,12 12,12 z" id="path21" inkscape:connector-curvature="0" style="fill:#ffffff;stroke:#000000;stroke-width:0.0283;stroke-miterlimit:10"/>
	<path stroke-miterlimit="10" d="m 232.545,190.287 h 51 c 6.627,0 12,-5.373 12,-12 v -28 c 0,-6.627 -5.373,-12 -12,-12 h -51 c -6.627,0 -12,5.373 -12,12 v 28 c 0,6.627 5.372,12 12,12 z" id="path23" inkscape:connector-curvature="0" style="fill:#ffffff;stroke:#000000;stroke-width:0.0283;stroke-miterlimit:10"/>
	<path stroke-miterlimit="10" d="m 312.37,190.287 h 51 c 6.627,0 12,-5.373 12,-12 v -28 c 0,-6.627 -5.373,-12 -12,-12 h -51 c -6.628,0 -12,5.373 -12,12 v 28 c 0,6.627 5.372,12 12,12 z" id="path25" inkscape:connector-curvature="0" style="fill:#ffffff;stroke:#000000;stroke-width:0.0283;stroke-miterlimit:10"/>
	<path stroke-miterlimit="10" d="m 391.739,190.287 h 51 c 6.627,0 12,-5.373 12,-12 v -28 c 0,-6.627 -5.373,-12 -12,-12 h -51 c -6.628,0 -12,5.373 -12,12 v 28 c 0,6.627 5.372,12 12,12 z" id="path27" inkscape:connector-curvature="0" style="fill:#ffffff;stroke:#000000;stroke-width:0.0283;stroke-miterlimit:10"/>
	<path stroke-miterlimit="10" d="m 471.234,190.287 h 51 c 6.627,0 12,-5.373 12,-12 v -28 c 0,-6.627 -5.373,-12 -12,-12 h -51 c -6.627,0 -12,5.373 -12,12 v 28 c 0,6.627 5.373,12 12,12 z" id="path29" inkscape:connector-curvature="0" style="fill:#ffffff;stroke:#000000;stroke-width:0.0283;stroke-miterlimit:10"/>
	<path stroke-miterlimit="10" d="m 550.787,190.287 h 51 c 6.627,0 12,-5.373 12,-12 v -28 c 0,-6.627 -5.373,-12 -12,-12 h -51 c -6.627,0 -12,5.373 -12,12 v 28 c 0,6.627 5.373,12 12,12 z" id="path31" inkscape:connector-curvature="0" style="fill:#ffffff;stroke:#000000;stroke-width:0.0283;stroke-miterlimit:10"/>
	<path stroke-miterlimit="10" d="m 71.924,253.287 h 51 c 6.627,0 12,-5.373 12,-12 v -28 c 0,-6.627 -5.373,-12 -12,-12 h -51 c -6.627,0 -12,5.373 -12,12 v 28 c 0,6.627 5.372,12 12,12 z" id="path33" inkscape:connector-curvature="0" style="fill:#ffffff;stroke:#000000;stroke-width:0.0283;stroke-miterlimit:10"/>
	<path stroke-miterlimit="10" d="m 152.013,253.287 h 51 c 6.627,0 12,-5.373 12,-12 v -28 c 0,-6.627 -5.373,-12 -12,-12 h -51 c -6.627,0 -12,5.373 -12,12 v 28 c 0,6.627 5.373,12 12,12 z" id="path35" inkscape:connector-curvature="0" style="fill:#ffffff;stroke:#000000;stroke-width:0.0283;stroke-miterlimit:10"/>
	<path stroke-miterlimit="10" d="m 231.924,253.287 h 51 c 6.627,0 12,-5.373 12,-12 v -28 c 0,-6.627 -5.373,-12 -12,-12 h -51 c -6.627,0 -12,5.373 -12,12 v 28 c 0,6.627 5.372,12 12,12 z" id="path37" inkscape:connector-curvature="0" style="fill:#ffffff;stroke:#000000;stroke-width:0.0283;stroke-miterlimit:10"/>
	<path stroke-miterlimit="10" d="m 311.749,253.287 h 51 c 6.627,0 12,-5.373 12,-12 v -28 c 0,-6.627 -5.373,-12 -12,-12 h -51 c -6.628,0 -12,5.373 -12,12 v 28 c 0,6.627 5.372,12 12,12 z" id="path39" inkscape:connector-curvature="0" style="fill:#ffffff;stroke:#000000;stroke-width:0.0283;stroke-miterlimit:10"/>
	<path stroke-miterlimit="10" d="m 391.118,253.287 h 51 c 6.627,0 12,-5.373 12,-12 v -28 c 0,-6.627 -5.373,-12 -12,-12 h -51 c -6.628,0 -12,5.373 -12,12 v 28 c 0,6.627 5.372,12 12,12 z" id="path41" inkscape:connector-curvature="0" style="fill:#ffffff;stroke:#000000;stroke-width:0.0283;stroke-miterlimit:10"/>
	<path stroke-miterlimit="10" d="m 470.613,253.287 h 51 c 6.627,0 12,-5.373 12,-12 v -28 c 0,-6.627 -5.373,-12 -12,-12 h -51 c -6.627,0 -12,5.373 -12,12 v 28 c 0,6.627 5.373,12 12,12 z" id="path43" inkscape:connector-curvature="0" style="fill:#ffffff;stroke:#000000;stroke-width:0.0283;stroke-miterlimit:10"/>
	<path stroke-miterlimit="10" d="m 550.166,253.287 h 51 c 6.627,0 12,-5.373 12,-12 v -28 c 0,-6.627 -5.373,-12 -12,-12 h -51 c -6.627,0 -12,5.373 -12,12 v 28 c 0,6.627 5.373,12 12,12 z" id="path45" inkscape:connector-curvature="0" style="fill:#ffffff;stroke:#000000;stroke-width:0.0283;stroke-miterlimit:10"/>
	<path stroke-miterlimit="10" d="m 72.545,314.953 h 51 c 6.627,0 12,-5.373 12,-12 v -28 c 0,-6.627 -5.373,-12 -12,-12 h -51 c -6.627,0 -12,5.373 -12,12 v 28 c 0,6.627 5.372,12 12,12 z" id="path47" inkscape:connector-curvature="0" style="fill:#ffffff;stroke:#000000;stroke-width:0.0283;stroke-miterlimit:10"/>
	<path stroke-miterlimit="10" d="m 152.634,314.953 h 51 c 6.627,0 12,-5.373 12,-12 v -28 c 0,-6.627 -5.373,-12 -12,-12 h -51 c -6.627,0 -12,5.373 -12,12 v 28 c 0,6.627 5.373,12 12,12 z" id="path49" inkscape:connector-curvature="0" style="fill:#ffffff;stroke:#000000;stroke-width:0.0283;stroke-miterlimit:10"/>
	<path stroke-miterlimit="10" d="m 232.545,314.953 h 51 c 6.627,0 12,-5.373 12,-12 v -28 c 0,-6.627 -5.373,-12 -12,-12 h -51 c -6.627,0 -12,5.373 -12,12 v 28 c 0,6.627 5.372,12 12,12 z" id="path51" inkscape:connector-curvature="0" style="fill:#ffffff;stroke:#000000;stroke-width:0.0283;stroke-miterlimit:10"/>
	<path stroke-miterlimit="10" d="m 312.37,314.953 h 51 c 6.627,0 12,-5.373 12,-12 v -28 c 0,-6.627 -5.373,-12 -12,-12 h -51 c -6.628,0 -12,5.373 -12,12 v 28 c 0,6.627 5.372,12 12,12 z" id="path53" inkscape:connector-curvature="0" style="fill:#ffffff;stroke:#000000;stroke-width:0.0283;stroke-miterlimit:10"/>
	<path stroke-miterlimit="10" d="m 391.739,314.953 h 51 c 6.627,0 12,-5.373 12,-12 v -28 c 0,-6.627 -5.373,-12 -12,-12 h -51 c -6.628,0 -12,5.373 -12,12 v 28 c 0,6.627 5.372,12 12,12 z" id="path55" inkscape:connector-curvature="0" style="fill:#ffffff;stroke:#000000;stroke-width:0.0283;stroke-miterlimit:10"/>
	<path stroke-miterlimit="10" d="m 471.234,314.953 h 51 c 6.627,0 12,-5.373 12,-12 v -28 c 0,-6.627 -5.373,-12 -12,-12 h -51 c -6.627,0 -12,5.373 -12,12 v 28 c 0,6.627 5.373,12 12,12 z" id="path57" inkscape:connector-curvature="0" style="fill:#ffffff;stroke:#000000;stroke-width:0.0283;stroke-miterlimit:10"/>
	<path stroke-miterlimit="10" d="m 550.787,314.953 h 51 c 6.627,0 12,-5.373 12,-12 v -28 c 0,-6.627 -5.373,-12 -12,-12 h -51 c -6.627,0 -12,5.373 -12,12 v 28 c 0,6.627 5.373,12 12,12 z" id="path59" inkscape:connector-curvature="0" style="fill:#ffffff;stroke:#000000;stroke-width:0.0283;stroke-miterlimit:10"/>
	<path stroke-miterlimit="10" d="m 72.704,377.954 h 51 c 6.627,0 12,-5.373 12,-12 v -28.001 c 0,-6.627 -5.373,-12 -12,-12 h -51 c -6.627,0 -12,5.373 -12,12 v 28.001 c 0,6.627 5.373,12 12,12 z" id="path61" inkscape:connector-curvature="0" style="fill:#ffffff;stroke:#000000;stroke-width:0.0283;stroke-miterlimit:10"/>
	<path stroke-miterlimit="10" d="m 152.793,377.954 h 51 c 6.627,0 12,-5.373 12,-12 v -28.001 c 0,-6.627 -5.373,-12 -12,-12 h -51 c -6.627,0 -12,5.373 -12,12 v 28.001 c 0,6.627 5.373,12 12,12 z" id="path63" inkscape:connector-curvature="0" style="fill:#ffffff;stroke:#000000;stroke-width:0.0283;stroke-miterlimit:10"/>
	<path stroke-miterlimit="10" d="m 232.704,377.954 h 51 c 6.627,0 12,-5.373 12,-12 v -28.001 c 0,-6.627 -5.373,-12 -12,-12 h -51 c -6.627,0 -12,5.373 -12,12 v 28.001 c 0,6.627 5.373,12 12,12 z" id="path65" inkscape:connector-curvature="0" style="fill:#ffffff;stroke:#000000;stroke-width:0.0283;stroke-miterlimit:10"/>
	<path stroke-miterlimit="10" d="m 312.529,377.954 h 51 c 6.627,0 12,-5.373 12,-12 v -28.001 c 0,-6.627 -5.373,-12 -12,-12 h -51 c -6.628,0 -12,5.373 -12,12 v 28.001 c 0,6.627 5.372,12 12,12 z" id="path67" inkscape:connector-curvature="0" style="fill:#ffffff;stroke:#000000;stroke-width:0.0283;stroke-miterlimit:10"/>
	<path stroke-miterlimit="10" d="m 391.898,377.954 h 51 c 6.627,0 12,-5.373 12,-12 v -28.001 c 0,-6.627 -5.373,-12 -12,-12 h -51 c -6.628,0 -12,5.373 -12,12 v 28.001 c 0,6.627 5.373,12 12,12 z" id="path69" inkscape:connector-curvature="0" style="fill:#ffffff;stroke:#000000;stroke-width:0.0283;stroke-miterlimit:10"/>
	<path stroke-miterlimit="10" d="m 471.394,377.954 h 51 c 6.627,0 12,-5.373 12,-12 v -28.001 c 0,-6.627 -5.373,-12 -12,-12 h -51 c -6.627,0 -12,5.373 -12,12 v 28.001 c 0,6.627 5.373,12 12,12 z" id="path71" inkscape:connector-curvature="0" style="fill:#ffffff;stroke:#000000;stroke-width:0.0283;stroke-miterlimit:10"/>
	<path stroke-miterlimit="10" d="m 550.946,377.954 h 51 c 6.627,0 12,-5.373 12,-12 v -28.001 c 0,-6.627 -5.373,-12 -12,-12 h -51 c -6.627,0 -12,5.373 -12,12 v 28.001 c 0,6.627 5.373,12 12,12 z" id="path73" inkscape:connector-curvature="0" style="fill:#ffffff;stroke:#000000;stroke-width:0.0283;stroke-miterlimit:10"/>
	<path stroke-miterlimit="10" d="m 123.924,388.621 h -51 c -6.627,0 -12,5.372 -12,12 v 28 c 0,6.627 5.373,12 12,12 h 51 c 6.627,0 12,-5.373 12,-12 v -28 c 0,-6.628 -5.373,-12 -12,-12 z" id="path75" inkscape:connector-curvature="0" style="fill:#ffffff;stroke:#000000;stroke-width:0.0283;stroke-miterlimit:10"/>
	<path stroke-miterlimit="10" d="m 204.013,388.621 h -51 c -6.627,0 -12,5.372 -12,12 v 28 c 0,6.627 5.373,12 12,12 h 51 c 6.627,0 12,-5.373 12,-12 v -28 c 0,-6.628 -5.372,-12 -12,-12 z" id="path77" inkscape:connector-curvature="0" style="fill:#ffffff;stroke:#000000;stroke-width:0.0283;stroke-miterlimit:10"/>
	<path stroke-miterlimit="10" d="m 283.924,388.621 h -51 c -6.627,0 -12,5.372 -12,12 v 28 c 0,6.627 5.373,12 12,12 h 51 c 6.627,0 12,-5.373 12,-12 v -28 c 0,-6.628 -5.373,-12 -12,-12 z" id="path79" inkscape:connector-curvature="0" style="fill:#ffffff;stroke:#000000;stroke-width:0.0283;stroke-miterlimit:10"/>
	<path stroke-miterlimit="10" d="m 363.749,388.621 h -51 c -6.628,0 -12,5.372 -12,12 v 28 c 0,6.627 5.372,12 12,12 h 51 c 6.627,0 12,-5.373 12,-12 v -28 c 0,-6.628 -5.373,-12 -12,-12 z" id="path81" inkscape:connector-curvature="0" style="fill:#ffffff;stroke:#000000;stroke-width:0.0283;stroke-miterlimit:10"/>
	<path stroke-miterlimit="10" d="m 443.118,388.621 h -51 c -6.628,0 -12,5.372 -12,12 v 28 c 0,6.627 5.372,12 12,12 h 51 c 6.627,0 12,-5.373 12,-12 v -28 c 0,-6.628 -5.373,-12 -12,-12 z" id="path83" inkscape:connector-curvature="0" style="fill:#ffffff;stroke:#000000;stroke-width:0.0283;stroke-miterlimit:10"/>
	<path stroke-miterlimit="10" d="m 522.613,388.621 h -51 c -6.627,0 -12,5.372 -12,12 v 28 c 0,6.627 5.373,12 12,12 h 51 c 6.627,0 12,-5.373 12,-12 v -28 c 0,-6.628 -5.373,-12 -12,-12 z" id="path85" inkscape:connector-curvature="0" style="fill:#ffffff;stroke:#000000;stroke-width:0.0283;stroke-miterlimit:10"/>
	<path stroke-miterlimit="10" d="m 602.166,388.621 h -51 c -6.627,0 -12,5.372 -12,12 v 28 c 0,6.627 5.373,12 12,12 h 51 c 6.627,0 12,-5.373 12,-12 v -28 c 0,-6.628 -5.373,-12 -12,-12 z" id="path87" inkscape:connector-curvature="0" style="fill:#ffffff;stroke:#000000;stroke-width:0.0283;stroke-miterlimit:10"/>
</g>
</g>
    <g transform=" translate(57, 44) scale(1)"><metadata xmlns:rdf="http://www.w3.org/1999/02/22-rdf-syntax-ns#" xmlns:cc="http://creativecommons.org/ns#" xmlns:dc="http://purl.org/dc/elements/1.1/" id="metadata9"><rdf:RDF><cc:Work rdf:about=""><dc:format>image/svg+xml</dc:format><dc:type rdf:resource="http://purl.org/dc/dcmitype/StillImage"/></cc:Work></rdf:RDF></metadata><defs id="defs7"/><sodipodi:namedview xmlns:sodipodi="http://sodipodi.sourceforge.net/DTD/sodipodi-0.dtd" xmlns:inkscape="http://www.inkscape.org/namespaces/inkscape" pagecolor="#ffffff" bordercolor="#666666" borderopacity="1" objecttolerance="10" gridtolerance="10" guidetolerance="10" inkscape:pageopacity="0" inkscape:pageshadow="2" inkscape:window-width="640" inkscape:window-height="480" id="namedview5" showgrid="false" fit-margin-top="0" fit-margin-left="0" fit-margin-right="0" fit-margin-bottom="0" inkscape:zoom="0.45744415" inkscape:cx="275.13749" inkscape:cy="19.763749" inkscape:window-x="0" inkscape:window-y="22" inkscape:window-maximized="0" inkscape:current-layer="Layer_1"/>
<path xmlns:inkscape="http://www.inkscape.org/namespaces/inkscape" stroke-miterlimit="10" d="m 540.35647,0.05675 h -509.467 c -0.026,0 -0.051,-0.004 -0.077,-0.004 h -18.76 c -0.026,0 -0.051,0.004 -0.077,0.004 h -1.963 c -3.4429998,0 -6.4779998,2.33 -8.2659998,5.871 -1.06899997,1.795 -1.69399997,3.884 -1.69399997,6.125 v 15.205 c 0,6.627 5.37299997,12 11.99999977,12 h 18.76 c 6.627,0 12,-5.373 12,-12 v -0.666 h 497.544 c 5.499,0 9.956,-5.94 9.956,-13.268 0,-7.327 -4.457,-13.267 -9.956,-13.267 z" id="path3" inkscape:connector-curvature="0" style="fill:none;stroke:#000000;stroke-width:0.0283;stroke-miterlimit:10"/>
</g>
    <g transform=" translate(626, 233) scale(1)"><defs id="defs3095"/>
  <sodipodi:namedview xmlns:sodipodi="http://sodipodi.sourceforge.net/DTD/sodipodi-0.dtd" xmlns:inkscape="http://www.inkscape.org/namespaces/inkscape" id="base" pagecolor="#ffffff" bordercolor="#666666" borderopacity="1.0" inkscape:pageopacity="0.0" inkscape:pageshadow="2" inkscape:zoom="1.4" inkscape:cx="204.89417" inkscape:cy="-147.14738" inkscape:document-units="px" inkscape:current-layer="layer1" showgrid="false" inkscape:window-width="924" inkscape:window-height="656" inkscape:window-x="407" inkscape:window-y="60" inkscape:window-maximized="0" fit-margin-top="0" fit-margin-left="0" fit-margin-right="0" fit-margin-bottom="0"/>
  <metadata xmlns:rdf="http://www.w3.org/1999/02/22-rdf-syntax-ns#" xmlns:cc="http://creativecommons.org/ns#" xmlns:dc="http://purl.org/dc/elements/1.1/" id="metadata3098">
    <rdf:RDF>
      <cc:Work rdf:about="">
        <dc:format>image/svg+xml</dc:format>
        <dc:type rdf:resource="http://purl.org/dc/dcmitype/StillImage"/>
        <dc:title/>
      </cc:Work>
    </rdf:RDF>
  </metadata>
  <g xmlns:inkscape="http://www.inkscape.org/namespaces/inkscape" xmlns:sodipodi="http://sodipodi.sourceforge.net/DTD/sodipodi-0.dtd" inkscape:label="Layer 1" inkscape:groupmode="layer" id="layer1" transform="translate(-170.10583,-376.77773)">
    <circle style="fill:none;stroke:#000000;stroke-width:0.0283" sodipodi:ry="21.26" sodipodi:rx="21.26" sodipodi:cy="257.95499" sodipodi:cx="34.979" transform="translate(156.44958,140.12148)" cx="34.979" cy="257.95499" r="21.26" id="circle3085" d="m 56.239,257.95499 c 0,11.74157 -9.518426,21.26 -21.26,21.26 -11.741574,0 -21.26,-9.51843 -21.26,-21.26 0,-11.74158 9.518426,-21.26 21.26,-21.26 11.741574,0 21.26,9.51842 21.26,21.26 z"/>
  </g>
</g>
    <g transform=" translate(0, 0) scale(1)"><metadata xmlns:rdf="http://www.w3.org/1999/02/22-rdf-syntax-ns#" xmlns:cc="http://creativecommons.org/ns#" xmlns:dc="http://purl.org/dc/elements/1.1/" id="metadata17"><rdf:RDF><cc:Work rdf:about=""><dc:format>image/svg+xml</dc:format><dc:type rdf:resource="http://purl.org/dc/dcmitype/StillImage"/></cc:Work></rdf:RDF></metadata><defs id="defs15"/><sodipodi:namedview xmlns:sodipodi="http://sodipodi.sourceforge.net/DTD/sodipodi-0.dtd" xmlns:inkscape="http://www.inkscape.org/namespaces/inkscape" pagecolor="#ffffff" bordercolor="#666666" borderopacity="1" objecttolerance="10" gridtolerance="10" guidetolerance="10" inkscape:pageopacity="0" inkscape:pageshadow="2" inkscape:window-width="640" inkscape:window-height="480" id="namedview13" showgrid="false" fit-margin-top="0" fit-margin-left="0" fit-margin-right="0" fit-margin-bottom="0" inkscape:zoom="0.45744415" inkscape:cx="323.44998" inkscape:cy="225.51374" inkscape:window-x="0" inkscape:window-y="22" inkscape:window-maximized="0" inkscape:current-layer="Layer_1"/>
<g xmlns:inkscape="http://www.inkscape.org/namespaces/inkscape" id="g3" transform="translate(-13.87503,-78.71875)">
	<path stroke-miterlimit="10" d="m 655.357,462.477 c 0.515,-0.861 0.816,-1.865 0.816,-2.942 v -17.5 c 0,-3.176 -2.574,-5.75 -5.75,-5.75 -3.176,0 -5.75,2.574 -5.75,5.75 v 17.5 c 0,1.077 0.302,2.081 0.816,2.942 -3.523,1.799 -5.941,5.455 -5.941,9.683 0,6.006 4.869,10.875 10.875,10.875 6.006,0 10.875,-4.869 10.875,-10.875 10e-4,-4.228 -2.417,-7.885 -5.941,-9.683 z" id="path5" inkscape:connector-curvature="0" style="fill:#ffffff;stroke:#000000;stroke-width:0.0283;stroke-miterlimit:10"/>
	<path stroke-miterlimit="10" d="m 645.49,99.342 c -0.515,0.862 -0.816,1.866 -0.816,2.942 v 17.5 c 0,3.176 2.574,5.75 5.75,5.75 3.176,0 5.75,-2.574 5.75,-5.75 v -17.5 c 0,-1.077 -0.302,-2.081 -0.816,-2.942 3.523,-1.799 5.941,-5.455 5.941,-9.683 0,-6.006 -4.869,-10.875 -10.875,-10.875 -6.006,0 -10.875,4.869 -10.875,10.875 0,4.228 2.418,7.883 5.941,9.683 z" id="path7" inkscape:connector-curvature="0" style="fill:#ffffff;stroke:#000000;stroke-width:0.0283;stroke-miterlimit:10"/>
	<path stroke-miterlimit="10" d="m 19.865,99.342 c -0.516,0.862 -0.816,1.866 -0.816,2.942 v 17.5 c 0,3.176 2.574,5.75 5.75,5.75 3.176,0 5.75,-2.574 5.75,-5.75 v -17.5 c 0,-1.077 -0.302,-2.081 -0.816,-2.942 3.523,-1.799 5.941,-5.455 5.941,-9.683 0,-6.006 -4.869,-10.875 -10.875,-10.875 -6.006,0 -10.875,4.869 -10.875,10.875 0,4.228 2.418,7.883 5.941,9.683 z" id="path9" inkscape:connector-curvature="0" style="fill:#ffffff;stroke:#000000;stroke-width:0.0283;stroke-miterlimit:10"/>
	<path stroke-miterlimit="10" d="m 29.857,462.852 c 0.515,-0.861 0.816,-1.865 0.816,-2.942 v -17.5 c 0,-3.176 -2.574,-5.75 -5.75,-5.75 -3.176,0 -5.75,2.574 -5.75,5.75 v 17.5 c 0,1.077 0.301,2.081 0.816,2.942 -3.523,1.799 -5.941,5.455 -5.941,9.683 0,6.006 4.869,10.875 10.875,10.875 6.006,0 10.875,-4.869 10.875,-10.875 10e-4,-4.228 -2.417,-7.885 -5.941,-9.683 z" id="path11" inkscape:connector-curvature="0" style="fill:#ffffff;stroke:#000000;stroke-width:0.0283;stroke-miterlimit:10"/>
</g>
</g>
  </g>
</svg>
