<?xml version="1.0" encoding="utf-8"?>
<!-- Generator: Adobe Illustrator 15.0.2, SVG Export Plug-In . SVG Version: 6.00 Build 0)  -->
<!DOCTYPE svg PUBLIC "-//W3C//DTD SVG 1.1//EN" "http://www.w3.org/Graphics/SVG/1.1/DTD/svg11.dtd">
<svg version="1.1" id="Layer_1" xmlns="http://www.w3.org/2000/svg" xmlns:xlink="http://www.w3.org/1999/xlink" x="0px" y="0px"
	 width="630.156px" height="352.362px" viewBox="0 0 630.156 352.362" enable-background="new 0 0 630.156 352.362"
	 xml:space="preserve">
<g>
	<path fill="none" stroke="#010101" stroke-width="0.0283" d="M4.014,0.014H81.89c2.209,0,4,1.791,4,4v58.601c0,2.209-1.791,4-4,4
		H4.014c-2.209,0-4-1.791-4-4V4.014C0.014,1.805,1.805,0.014,4.014,0.014z"/>
	<path fill="none" stroke="#010101" stroke-width="0.0283" d="M4.014,71.448H81.89c2.209,0,4,1.791,4,4v58.6c0,2.209-1.791,4-4,4
		H4.014c-2.209,0-4-1.791-4-4v-58.6C0.014,73.239,1.805,71.448,4.014,71.448z"/>
	<path fill="none" stroke="#010101" stroke-width="0.0283" d="M4.014,142.88H81.89c2.209,0,4,1.791,4,4v58.601c0,2.209-1.791,4-4,4
		H4.014c-2.209,0-4-1.791-4-4V146.88C0.014,144.671,1.805,142.88,4.014,142.88z"/>
	<path fill="none" stroke="#010101" stroke-width="0.0283" d="M4.014,214.314H81.89c2.209,0,4,1.791,4,4v58.6c0,2.209-1.791,4-4,4
		H4.014c-2.209,0-4-1.791-4-4v-58.6C0.014,216.105,1.805,214.314,4.014,214.314z"/>
	<path fill="none" stroke="#010101" stroke-width="0.0283" d="M4.014,285.747H81.89c2.209,0,4,1.791,4,4v58.601c0,2.209-1.791,4-4,4
		H4.014c-2.209,0-4-1.791-4-4v-58.601C0.014,287.538,1.805,285.747,4.014,285.747z"/>
	<path fill="none" stroke="#010101" stroke-width="0.0283" d="M94.723,0.014h77.876c2.209,0,4,1.791,4,4v58.601c0,2.209-1.791,4-4,4
		H94.723c-2.209,0-4-1.791-4-4V4.014C90.723,1.805,92.514,0.014,94.723,0.014z"/>
	<path fill="none" stroke="#010101" stroke-width="0.0283" d="M94.723,71.448h77.876c2.209,0,4,1.791,4,4v58.6c0,2.209-1.791,4-4,4
		H94.723c-2.209,0-4-1.791-4-4v-58.6C90.723,73.239,92.514,71.448,94.723,71.448z"/>
	<path fill="none" stroke="#010101" stroke-width="0.0283" d="M94.723,142.88h77.876c2.209,0,4,1.791,4,4v58.601
		c0,2.209-1.791,4-4,4H94.723c-2.209,0-4-1.791-4-4V146.88C90.723,144.671,92.514,142.88,94.723,142.88z"/>
	<path fill="none" stroke="#010101" stroke-width="0.0283" d="M94.723,214.314h77.876c2.209,0,4,1.791,4,4v58.6c0,2.209-1.791,4-4,4
		H94.723c-2.209,0-4-1.791-4-4v-58.6C90.723,216.105,92.514,214.314,94.723,214.314z"/>
	<path fill="none" stroke="#010101" stroke-width="0.0283" d="M94.723,285.747h77.876c2.209,0,4,1.791,4,4v58.601
		c0,2.209-1.791,4-4,4H94.723c-2.209,0-4-1.791-4-4v-58.601C90.723,287.538,92.514,285.747,94.723,285.747z"/>
	<path fill="none" stroke="#010101" stroke-width="0.0283" d="M185.432,71.448h77.875c2.209,0,4,1.791,4,4v58.6c0,2.209-1.791,4-4,4
		h-77.875c-2.209,0-4-1.791-4-4v-58.6C181.432,73.239,183.223,71.448,185.432,71.448z"/>
	<path fill="none" stroke="#010101" stroke-width="0.0283" d="M185.432,142.88h77.875c2.209,0,4,1.791,4,4v58.601
		c0,2.209-1.791,4-4,4h-77.875c-2.209,0-4-1.791-4-4V146.88C181.432,144.671,183.223,142.88,185.432,142.88z"/>
	<path fill="none" stroke="#010101" stroke-width="0.0283" d="M185.432,214.314h77.875c2.209,0,4,1.791,4,4v58.6
		c0,2.209-1.791,4-4,4h-77.875c-2.209,0-4-1.791-4-4v-58.6C181.432,216.105,183.223,214.314,185.432,214.314z"/>
	<path fill="none" stroke="#010101" stroke-width="0.0283" d="M185.432,285.747h77.875c2.209,0,4,1.791,4,4v58.601
		c0,2.209-1.791,4-4,4h-77.875c-2.209,0-4-1.791-4-4v-58.601C181.432,287.538,183.223,285.747,185.432,285.747z"/>
	<path fill="none" stroke="#010101" stroke-width="0.0283" d="M276.14,71.448h77.876c2.209,0,4,1.791,4,4v58.6c0,2.209-1.791,4-4,4
		H276.14c-2.209,0-4-1.791-4-4v-58.6C272.14,73.239,273.931,71.448,276.14,71.448z"/>
	<path fill="none" stroke="#010101" stroke-width="0.0283" d="M276.14,142.88h77.876c2.209,0,4,1.791,4,4v58.601
		c0,2.209-1.791,4-4,4H276.14c-2.209,0-4-1.791-4-4V146.88C272.14,144.671,273.931,142.88,276.14,142.88z"/>
	<path fill="none" stroke="#010101" stroke-width="0.0283" d="M276.14,214.314h77.876c2.209,0,4,1.791,4,4v58.6c0,2.209-1.791,4-4,4
		H276.14c-2.209,0-4-1.791-4-4v-58.6C272.14,216.105,273.931,214.314,276.14,214.314z"/>
	<path fill="none" stroke="#010101" stroke-width="0.0283" d="M276.14,285.747h77.876c2.209,0,4,1.791,4,4v58.601
		c0,2.209-1.791,4-4,4H276.14c-2.209,0-4-1.791-4-4v-58.601C272.14,287.538,273.931,285.747,276.14,285.747z"/>
	<path fill="none" stroke="#010101" stroke-width="0.0283" d="M434.915,0.014H193.816c-6.839,0-12.384,1.791-12.384,4v58.601
		c0,2.209,5.545,4,12.384,4h241.099c6.839,0,12.384-1.791,12.384-4V4.014C447.298,1.805,441.753,0.014,434.915,0.014z"/>
	<path fill="none" stroke="#010101" stroke-width="0.0283" d="M366.849,71.448h77.876c2.209,0,4,1.791,4,4v58.6c0,2.209-1.791,4-4,4
		h-77.876c-2.209,0-4-1.791-4-4v-58.6C362.849,73.239,364.64,71.448,366.849,71.448z"/>
	<path fill="none" stroke="#010101" stroke-width="0.0283" d="M366.849,142.88h77.876c2.209,0,4,1.791,4,4v58.601
		c0,2.209-1.791,4-4,4h-77.876c-2.209,0-4-1.791-4-4V146.88C362.849,144.671,364.64,142.88,366.849,142.88z"/>
	<path fill="none" stroke="#010101" stroke-width="0.0283" d="M366.849,214.314h77.876c2.209,0,4,1.791,4,4v58.6
		c0,2.209-1.791,4-4,4h-77.876c-2.209,0-4-1.791-4-4v-58.6C362.849,216.105,364.64,214.314,366.849,214.314z"/>
	<path fill="none" stroke="#010101" stroke-width="0.0283" d="M366.849,285.747h77.876c2.209,0,4,1.791,4,4v58.601
		c0,2.209-1.791,4-4,4h-77.876c-2.209,0-4-1.791-4-4v-58.601C362.849,287.538,364.64,285.747,366.849,285.747z"/>
	<path fill="none" stroke="#010101" stroke-width="0.0283" d="M457.558,0.014h77.875c2.21,0,4,1.791,4,4v58.601c0,2.209-1.79,4-4,4
		h-77.875c-2.209,0-4-1.791-4-4V4.014C453.558,1.805,455.349,0.014,457.558,0.014z"/>
	<path fill="none" stroke="#010101" stroke-width="0.0283" d="M457.558,71.448h77.875c2.21,0,4,1.791,4,4v58.6c0,2.209-1.79,4-4,4
		h-77.875c-2.209,0-4-1.791-4-4v-58.6C453.558,73.239,455.349,71.448,457.558,71.448z"/>
	<path fill="none" stroke="#010101" stroke-width="0.0283" d="M457.558,142.88h77.875c2.21,0,4,1.791,4,4v58.601c0,2.209-1.79,4-4,4
		h-77.875c-2.209,0-4-1.791-4-4V146.88C453.558,144.671,455.349,142.88,457.558,142.88z"/>
	<path fill="none" stroke="#010101" stroke-width="0.0283" d="M457.558,214.314h77.875c2.21,0,4,1.791,4,4v58.6c0,2.209-1.79,4-4,4
		h-77.875c-2.209,0-4-1.791-4-4v-58.6C453.558,216.105,455.349,214.314,457.558,214.314z"/>
	<path fill="none" stroke="#010101" stroke-width="0.0283" d="M457.558,285.747h77.875c2.21,0,4,1.791,4,4v58.601
		c0,2.209-1.79,4-4,4h-77.875c-2.209,0-4-1.791-4-4v-58.601C453.558,287.538,455.349,285.747,457.558,285.747z"/>
	<path fill="none" stroke="#010101" stroke-width="0.0283" d="M548.267,0.014h77.875c2.209,0,4,1.791,4,4v58.601
		c0,2.209-1.791,4-4,4h-77.875c-2.21,0-4-1.791-4-4V4.014C544.267,1.805,546.057,0.014,548.267,0.014z"/>
	<path fill="none" stroke="#010101" stroke-width="0.0283" d="M548.267,71.448h77.875c2.209,0,4,1.791,4,4v58.6c0,2.209-1.791,4-4,4
		h-77.875c-2.21,0-4-1.791-4-4v-58.6C544.267,73.239,546.057,71.448,548.267,71.448z"/>
	<path fill="none" stroke="#010101" stroke-width="0.0283" d="M548.267,142.88h77.875c2.209,0,4,1.791,4,4v58.601
		c0,2.209-1.791,4-4,4h-77.875c-2.21,0-4-1.791-4-4V146.88C544.267,144.671,546.057,142.88,548.267,142.88z"/>
	<path fill="none" stroke="#010101" stroke-width="0.0283" d="M548.267,214.314h77.875c2.209,0,4,1.791,4,4v58.6
		c0,2.209-1.791,4-4,4h-77.875c-2.21,0-4-1.791-4-4v-58.6C544.267,216.105,546.057,214.314,548.267,214.314z"/>
	<path fill="none" stroke="#010101" stroke-width="0.0283" d="M548.267,285.747h77.875c2.209,0,4,1.791,4,4v58.601
		c0,2.209-1.791,4-4,4h-77.875c-2.21,0-4-1.791-4-4v-58.601C544.267,287.538,546.057,285.747,548.267,285.747z"/>
</g>
</svg>
