<?xml version="1.0" encoding="utf-8"?>
<!-- Generator: Adobe Illustrator 15.0.2, SVG Export Plug-In . SVG Version: 6.00 Build 0)  -->
<!DOCTYPE svg PUBLIC "-//W3C//DTD SVG 1.1//EN" "http://www.w3.org/Graphics/SVG/1.1/DTD/svg11.dtd">
<svg version="1.1" id="Layer_2" xmlns="http://www.w3.org/2000/svg" xmlns:xlink="http://www.w3.org/1999/xlink" x="0px" y="0px"
	 width="630.156px" height="352.363px" viewBox="0 0 630.156 352.363" enable-background="new 0 0 630.156 352.363"
	 xml:space="preserve">
<path fill="none" stroke="#000000" stroke-width="0.0283" d="M2.961-0.038h78.345c2.209,0,4,1.791,4,4v47.164c0,2.209-1.791,4-4,4
	H2.961c-2.209,0-4-1.791-4-4V3.962C-1.039,1.753,0.752-0.038,2.961-0.038z"/>
<path fill="none" stroke="#000000" stroke-width="0.0283" d="M2.961,59.49h78.345c2.209,0,4,1.791,4,4v47.164c0,2.209-1.791,4-4,4
	H2.961c-2.209,0-4-1.791-4-4V63.49C-1.039,61.281,0.752,59.49,2.961,59.49z"/>
<path fill="none" stroke="#000000" stroke-width="0.0283" d="M2.961,119.018h78.345c2.209,0,4,1.791,4,4v47.164c0,2.209-1.791,4-4,4
	H2.961c-2.209,0-4-1.791-4-4v-47.164C-1.039,120.808,0.752,119.018,2.961,119.018z"/>
<path fill="none" stroke="#000000" stroke-width="0.0283" d="M2.961,178.544h78.345c2.209,0,4,1.791,4,4v47.164c0,2.209-1.791,4-4,4
	H2.961c-2.209,0-4-1.791-4-4v-47.164C-1.039,180.335,0.752,178.544,2.961,178.544z"/>
<path fill="none" stroke="#000000" stroke-width="0.0283" d="M2.961,238.072h78.345c2.209,0,4,1.791,4,4v47.164c0,2.209-1.791,4-4,4
	H2.961c-2.209,0-4-1.791-4-4v-47.164C-1.039,239.863,0.752,238.072,2.961,238.072z"/>
<path fill="none" stroke="#000000" stroke-width="0.0283" d="M2.961,297.599h78.345c2.209,0,4,1.791,4,4v47.164c0,2.209-1.791,4-4,4
	H2.961c-2.209,0-4-1.791-4-4v-47.164C-1.039,299.39,0.752,297.599,2.961,297.599z"/>
<path fill="none" stroke="#000000" stroke-width="0.0283" d="M93.67-0.038h78.345c2.209,0,4,1.791,4,4v47.164c0,2.209-1.791,4-4,4
	H93.67c-2.209,0-4-1.791-4-4V3.962C89.67,1.753,91.461-0.038,93.67-0.038z"/>
<path fill="none" stroke="#000000" stroke-width="0.0283" d="M93.67,59.49h78.345c2.209,0,4,1.791,4,4v47.164c0,2.209-1.791,4-4,4
	H93.67c-2.209,0-4-1.791-4-4V63.49C89.67,61.281,91.461,59.49,93.67,59.49z"/>
<path fill="none" stroke="#000000" stroke-width="0.0283" d="M93.67,119.018h78.345c2.209,0,4,1.791,4,4v47.164c0,2.209-1.791,4-4,4
	H93.67c-2.209,0-4-1.791-4-4v-47.164C89.67,120.808,91.461,119.018,93.67,119.018z"/>
<path fill="none" stroke="#000000" stroke-width="0.0283" d="M93.67,178.544h78.345c2.209,0,4,1.791,4,4v47.164c0,2.209-1.791,4-4,4
	H93.67c-2.209,0-4-1.791-4-4v-47.164C89.67,180.335,91.461,178.544,93.67,178.544z"/>
<path fill="none" stroke="#000000" stroke-width="0.0283" d="M93.67,238.072h78.345c2.209,0,4,1.791,4,4v47.164c0,2.209-1.791,4-4,4
	H93.67c-2.209,0-4-1.791-4-4v-47.164C89.67,239.863,91.461,238.072,93.67,238.072z"/>
<path fill="none" stroke="#000000" stroke-width="0.0283" d="M93.67,297.599h78.345c2.209,0,4,1.791,4,4v47.164c0,2.209-1.791,4-4,4
	H93.67c-2.209,0-4-1.791-4-4v-47.164C89.67,299.39,91.461,297.599,93.67,297.599z"/>
<path fill="none" stroke="#000000" stroke-width="0.0283" d="M196.979-0.038h325.144c9.168,0,16.601,1.791,16.601,4v47.164
	c0,2.209-7.433,4-16.601,4H196.979c-9.167,0-16.601-1.791-16.601-4V3.962C180.378,1.753,187.812-0.038,196.979-0.038z"/>
<path fill="none" stroke="#000000" stroke-width="0.0283" d="M184.378,59.49h78.345c2.209,0,4,1.791,4,4v47.164c0,2.209-1.791,4-4,4
	h-78.345c-2.209,0-4-1.791-4-4V63.49C180.378,61.281,182.169,59.49,184.378,59.49z"/>
<path fill="none" stroke="#000000" stroke-width="0.0283" d="M184.378,119.018h78.345c2.209,0,4,1.791,4,4v47.164
	c0,2.209-1.791,4-4,4h-78.345c-2.209,0-4-1.791-4-4v-47.164C180.378,120.808,182.169,119.018,184.378,119.018z"/>
<path fill="none" stroke="#000000" stroke-width="0.0283" d="M184.378,178.544h78.345c2.209,0,4,1.791,4,4v47.164
	c0,2.209-1.791,4-4,4h-78.345c-2.209,0-4-1.791-4-4v-47.164C180.378,180.335,182.169,178.544,184.378,178.544z"/>
<path fill="none" stroke="#000000" stroke-width="0.0283" d="M184.378,238.072h78.345c2.209,0,4,1.791,4,4v47.164
	c0,2.209-1.791,4-4,4h-78.345c-2.209,0-4-1.791-4-4v-47.164C180.378,239.863,182.169,238.072,184.378,238.072z"/>
<path fill="none" stroke="#000000" stroke-width="0.0283" d="M184.378,297.599h78.345c2.209,0,4,1.791,4,4v47.164
	c0,2.209-1.791,4-4,4h-78.345c-2.209,0-4-1.791-4-4v-47.164C180.378,299.39,182.169,297.599,184.378,297.599z"/>
<path fill="none" stroke="#000000" stroke-width="0.0283" d="M275.087,59.49h78.344c2.21,0,4,1.791,4,4v47.164c0,2.209-1.79,4-4,4
	h-78.344c-2.209,0-4-1.791-4-4V63.49C271.087,61.281,272.878,59.49,275.087,59.49z"/>
<path fill="none" stroke="#000000" stroke-width="0.0283" d="M275.087,119.018h78.344c2.21,0,4,1.791,4,4v47.164c0,2.209-1.79,4-4,4
	h-78.344c-2.209,0-4-1.791-4-4v-47.164C271.087,120.808,272.878,119.018,275.087,119.018z"/>
<path fill="none" stroke="#000000" stroke-width="0.0283" d="M275.087,178.544h78.344c2.21,0,4,1.791,4,4v47.164c0,2.209-1.79,4-4,4
	h-78.344c-2.209,0-4-1.791-4-4v-47.164C271.087,180.335,272.878,178.544,275.087,178.544z"/>
<path fill="none" stroke="#000000" stroke-width="0.0283" d="M275.087,238.072h78.344c2.21,0,4,1.791,4,4v47.164c0,2.209-1.79,4-4,4
	h-78.344c-2.209,0-4-1.791-4-4v-47.164C271.087,239.863,272.878,238.072,275.087,238.072z"/>
<path fill="none" stroke="#000000" stroke-width="0.0283" d="M275.087,297.599h78.344c2.21,0,4,1.791,4,4v47.164c0,2.209-1.79,4-4,4
	h-78.344c-2.209,0-4-1.791-4-4v-47.164C271.087,299.39,272.878,297.599,275.087,297.599z"/>
<path fill="none" stroke="#000000" stroke-width="0.0283" d="M365.796,59.49h78.345c2.21,0,4,1.791,4,4v47.164c0,2.209-1.79,4-4,4
	h-78.345c-2.209,0-4-1.791-4-4V63.49C361.796,61.281,363.587,59.49,365.796,59.49z"/>
<path fill="none" stroke="#000000" stroke-width="0.0283" d="M365.796,119.018h78.345c2.21,0,4,1.791,4,4v47.164c0,2.209-1.79,4-4,4
	h-78.345c-2.209,0-4-1.791-4-4v-47.164C361.796,120.808,363.587,119.018,365.796,119.018z"/>
<path fill="none" stroke="#000000" stroke-width="0.0283" d="M365.796,178.544h78.345c2.21,0,4,1.791,4,4v47.164c0,2.209-1.79,4-4,4
	h-78.345c-2.209,0-4-1.791-4-4v-47.164C361.796,180.335,363.587,178.544,365.796,178.544z"/>
<path fill="none" stroke="#000000" stroke-width="0.0283" d="M365.796,238.072h78.345c2.21,0,4,1.791,4,4v47.164c0,2.209-1.79,4-4,4
	h-78.345c-2.209,0-4-1.791-4-4v-47.164C361.796,239.863,363.587,238.072,365.796,238.072z"/>
<path fill="none" stroke="#000000" stroke-width="0.0283" d="M365.796,297.599h78.345c2.21,0,4,1.791,4,4v47.164c0,2.209-1.79,4-4,4
	h-78.345c-2.209,0-4-1.791-4-4v-47.164C361.796,299.39,363.587,297.599,365.796,297.599z"/>
<path fill="none" stroke="#000000" stroke-width="0.0283" d="M456.505,59.49h78.345c2.209,0,4,1.791,4,4v47.164c0,2.209-1.791,4-4,4
	h-78.345c-2.209,0-4-1.791-4-4V63.49C452.505,61.281,454.296,59.49,456.505,59.49z"/>
<path fill="none" stroke="#000000" stroke-width="0.0283" d="M456.505,119.018h78.345c2.209,0,4,1.791,4,4v47.164
	c0,2.209-1.791,4-4,4h-78.345c-2.209,0-4-1.791-4-4v-47.164C452.505,120.808,454.296,119.018,456.505,119.018z"/>
<path fill="none" stroke="#000000" stroke-width="0.0283" d="M456.505,178.544h78.345c2.209,0,4,1.791,4,4v47.164
	c0,2.209-1.791,4-4,4h-78.345c-2.209,0-4-1.791-4-4v-47.164C452.505,180.335,454.296,178.544,456.505,178.544z"/>
<path fill="none" stroke="#000000" stroke-width="0.0283" d="M456.505,238.072h78.345c2.209,0,4,1.791,4,4v47.164
	c0,2.209-1.791,4-4,4h-78.345c-2.209,0-4-1.791-4-4v-47.164C452.505,239.863,454.296,238.072,456.505,238.072z"/>
<path fill="none" stroke="#000000" stroke-width="0.0283" d="M456.505,297.599h78.345c2.209,0,4,1.791,4,4v47.164
	c0,2.209-1.791,4-4,4h-78.345c-2.209,0-4-1.791-4-4v-47.164C452.505,299.39,454.296,297.599,456.505,297.599z"/>
<path fill="none" stroke="#000000" stroke-width="0.0283" d="M547.213-0.038h78.346c2.209,0,4,1.791,4,4v47.164c0,2.209-1.791,4-4,4
	h-78.346c-2.209,0-4-1.791-4-4V3.962C543.213,1.753,545.004-0.038,547.213-0.038z"/>
<path fill="none" stroke="#000000" stroke-width="0.0283" d="M547.213,59.49h78.346c2.209,0,4,1.791,4,4v47.164c0,2.209-1.791,4-4,4
	h-78.346c-2.209,0-4-1.791-4-4V63.49C543.213,61.281,545.004,59.49,547.213,59.49z"/>
<path fill="none" stroke="#000000" stroke-width="0.0283" d="M547.213,119.018h78.346c2.209,0,4,1.791,4,4v47.164
	c0,2.209-1.791,4-4,4h-78.346c-2.209,0-4-1.791-4-4v-47.164C543.213,120.808,545.004,119.018,547.213,119.018z"/>
<path fill="none" stroke="#000000" stroke-width="0.0283" d="M547.213,178.544h78.346c2.209,0,4,1.791,4,4v47.164
	c0,2.209-1.791,4-4,4h-78.346c-2.209,0-4-1.791-4-4v-47.164C543.213,180.335,545.004,178.544,547.213,178.544z"/>
<path fill="none" stroke="#000000" stroke-width="0.0283" d="M547.213,238.072h78.346c2.209,0,4,1.791,4,4v47.164
	c0,2.209-1.791,4-4,4h-78.346c-2.209,0-4-1.791-4-4v-47.164C543.213,239.863,545.004,238.072,547.213,238.072z"/>
<path fill="none" stroke="#000000" stroke-width="0.0283" d="M547.213,297.599h78.346c2.209,0,4,1.791,4,4v47.164
	c0,2.209-1.791,4-4,4h-78.346c-2.209,0-4-1.791-4-4v-47.164C543.213,299.39,545.004,297.599,547.213,297.599z"/>
</svg>
