<?xml version="1.0" encoding="utf-8"?>
<!-- Generator: Adobe Illustrator 15.0.2, SVG Export Plug-In . SVG Version: 6.00 Build 0)  -->
<!DOCTYPE svg PUBLIC "-//W3C//DTD SVG 1.1//EN" "http://www.w3.org/Graphics/SVG/1.1/DTD/svg11.dtd">
<svg version="1.1" id="Layer_1" xmlns="http://www.w3.org/2000/svg" xmlns:xlink="http://www.w3.org/1999/xlink" x="0px" y="0px"
	 width="674.65px" height="515.91px" viewBox="0 0 674.65 515.91" enable-background="new 0 0 674.65 515.91" xml:space="preserve">
<g>
	<path fill="none" stroke="#000000" stroke-width="0.0283" stroke-miterlimit="10" d="M157.116,442.399
		c0,6.511-5.477,11.79-12.233,11.79h-12.233c-6.756,0-12.233-5.279-12.233-11.79v-10.194c0-6.511,5.477-11.79,12.233-11.79h12.233
		c6.756,0,12.233,5.279,12.233,11.79V442.399z"/>
	<path fill="none" stroke="#000000" stroke-width="0.0283" stroke-miterlimit="10" d="M201.349,442.875
		c-0.085,6.698-5.852,12.057-12.88,11.967l-9.545-0.122c-7.028-0.09-12.656-5.594-12.57-12.291l0.129-10.106
		c0.085-6.699,5.852-12.057,12.88-11.967l9.545,0.122c7.028,0.09,12.656,5.593,12.57,12.291L201.349,442.875z"/>
	<path fill="none" stroke="#000000" stroke-width="0.0283" stroke-miterlimit="10" d="M499.416,442.843c0,6.628-5.373,12-12,12h-13
		c-6.627,0-12-5.372-12-12v-10.428c0-6.627,5.373-12,12-12h13c6.627,0,12,5.373,12,12V442.843z"/>
	<path fill="none" stroke="#000000" stroke-width="0.0283" stroke-miterlimit="10" d="M545.416,442.843c0,6.628-5.373,12-12,12h-12
		c-6.627,0-12-5.372-12-12v-10.428c0-6.627,5.373-12,12-12h12c6.627,0,12,5.373,12,12V442.843z"/>
	<path fill="none" stroke="#000000" stroke-width="0.0283" stroke-miterlimit="10" d="M612.416,452.915c0,6.627-5.373,12-12,12h-31
		c-6.627,0-12-5.373-12-12v-29.5c0-6.627,5.373-12,12-12h31c6.627,0,12,5.373,12,12V452.915z"/>
	<path fill="none" stroke="#000000" stroke-width="0.0283" stroke-miterlimit="10" d="M110.415,452.915c0,6.627-5.373,12-12,12h-31
		c-6.627,0-12-5.373-12-12v-29.5c0-6.627,5.373-12,12-12h31c6.627,0,12,5.373,12,12V452.915z"/>
</g>
</svg>
