<?xml version="1.0" encoding="utf-8"?>
<!-- Generator: Adobe Illustrator 15.0.2, SVG Export Plug-In . SVG Version: 6.00 Build 0)  -->
<!DOCTYPE svg PUBLIC "-//W3C//DTD SVG 1.1//EN" "http://www.w3.org/Graphics/SVG/1.1/DTD/svg11.dtd">
<svg version="1.1" id="Layer_1" xmlns="http://www.w3.org/2000/svg" xmlns:xlink="http://www.w3.org/1999/xlink" x="0px" y="0px"
	 width="674.65px" height="515.91px" viewBox="0 0 674.65 515.91" enable-background="new 0 0 674.65 515.91" xml:space="preserve">
<g>
	<path fill="none" stroke="#000000" stroke-width="0.0283" stroke-miterlimit="10" d="M67.414,133.081h110c6.627,0,12-5.373,12-12
		V61.748c0-6.627-5.373-12-12-12h-110c-6.627,0-12,5.373-12,12v59.333C55.414,127.708,60.787,133.081,67.414,133.081z"/>
	<path fill="none" stroke="#000000" stroke-width="0.0283" stroke-miterlimit="10" d="M210.081,133.081h105.333
		c6.627,0,12-5.373,12-12V61.748c0-6.627-5.373-12-12-12H210.081c-6.627,0-12,5.373-12,12v59.333
		C198.081,127.708,203.454,133.081,210.081,133.081z"/>
	<path fill="none" stroke="#000000" stroke-width="0.0283" stroke-miterlimit="10" d="M349.323,133.081h107.424
		c6.627,0,12-5.373,12-12V61.748c0-6.627-5.373-12-12-12H349.323c-6.627,0-12,5.373-12,12v59.333
		C337.323,127.708,342.696,133.081,349.323,133.081z"/>
	<path fill="none" stroke="#000000" stroke-width="0.0283" stroke-miterlimit="10" d="M487.414,133.081h109.333
		c6.627,0,12-5.373,12-12V61.748c0-6.627-5.373-12-12-12H487.414c-6.627,0-12,5.373-12,12v59.333
		C475.414,127.708,480.787,133.081,487.414,133.081z"/>
	<path fill="none" stroke="#000000" stroke-width="0.0283" stroke-miterlimit="10" d="M67.414,220.414h110c6.627,0,12-5.373,12-12
		v-56.667c0-6.627-5.373-12-12-12h-110c-6.627,0-12,5.373-12,12v56.667C55.414,215.042,60.787,220.414,67.414,220.414z"/>
	<path fill="none" stroke="#000000" stroke-width="0.0283" stroke-miterlimit="10" d="M67.414,308.414h110c6.627,0,12-5.373,12-12
		v-57.333c0-6.627-5.373-12-12-12h-110c-6.627,0-12,5.373-12,12v57.333C55.414,303.041,60.787,308.414,67.414,308.414z"/>
	<path fill="none" stroke="#000000" stroke-width="0.0283" stroke-miterlimit="10" d="M210.081,220.414h105.333
		c6.627,0,12-5.373,12-12v-56.667c0-6.627-5.373-12-12-12H210.081c-6.627,0-12,5.373-12,12v56.667
		C198.081,215.042,203.454,220.414,210.081,220.414z"/>
	<path fill="none" stroke="#000000" stroke-width="0.0283" stroke-miterlimit="10" d="M349.323,220.414h107.424
		c6.627,0,12-5.373,12-12v-56.667c0-6.627-5.373-12-12-12H349.323c-6.627,0-12,5.373-12,12v56.667
		C337.323,215.042,342.696,220.414,349.323,220.414z"/>
	<path fill="none" stroke="#000000" stroke-width="0.0283" stroke-miterlimit="10" d="M487.414,220.414h109.333
		c6.627,0,12-5.373,12-12v-56.667c0-6.627-5.373-12-12-12H487.414c-6.627,0-12,5.373-12,12v56.667
		C475.414,215.042,480.787,220.414,487.414,220.414z"/>
	<path fill="none" stroke="#000000" stroke-width="0.0283" stroke-miterlimit="10" d="M349.323,308.414h107.424
		c6.627,0,12-5.373,12-12v-57.333c0-6.627-5.373-12-12-12H349.323c-6.627,0-12,5.373-12,12v57.333
		C337.323,303.041,342.696,308.414,349.323,308.414z"/>
	<path fill="none" stroke="#000000" stroke-width="0.0283" stroke-miterlimit="10" d="M487.414,308.414h109.333
		c6.627,0,12-5.373,12-12v-57.333c0-6.627-5.373-12-12-12H487.414c-6.627,0-12,5.373-12,12v57.333
		C475.414,303.041,480.787,308.414,487.414,308.414z"/>
	<path fill="none" stroke="#000000" stroke-width="0.0283" stroke-miterlimit="10" d="M210.081,308.414h105.333
		c6.627,0,12-5.373,12-12v-57.333c0-6.627-5.373-12-12-12H210.081c-6.627,0-12,5.373-12,12v57.333
		C198.081,303.041,203.454,308.414,210.081,308.414z"/>
	<path fill="none" stroke="#000000" stroke-width="0.0283" stroke-miterlimit="10" d="M178.323,313.749h-110
		c-6.627,0-12,5.373-12,12v57.333c0,6.627,5.373,12,12,12h110c6.627,0,12-5.373,12-12v-57.333
		C190.323,319.122,184.951,313.749,178.323,313.749z"/>
	<path fill="none" stroke="#000000" stroke-width="0.0283" stroke-miterlimit="10" d="M457.656,313.749H350.232
		c-6.627,0-12,5.373-12,12v57.333c0,6.627,5.373,12,12,12h107.424c6.627,0,12-5.373,12-12v-57.333
		C469.656,319.122,464.283,313.749,457.656,313.749z"/>
	<path fill="none" stroke="#000000" stroke-width="0.0283" stroke-miterlimit="10" d="M597.656,313.749H488.323
		c-6.627,0-12,5.373-12,12v57.333c0,6.627,5.373,12,12,12h109.333c6.627,0,12-5.373,12-12v-57.333
		C609.656,319.122,604.283,313.749,597.656,313.749z"/>
	<path fill="none" stroke="#000000" stroke-width="0.0283" stroke-miterlimit="10" d="M316.323,313.749H210.99
		c-6.627,0-12,5.373-12,12v57.333c0,6.627,5.373,12,12,12h105.333c6.627,0,12-5.373,12-12v-57.333
		C328.323,319.122,322.951,313.749,316.323,313.749z"/>
</g>
</svg>
