<?xml version="1.0" encoding="utf-8"?>
<!-- Generator: Adobe Illustrator 15.0.2, SVG Export Plug-In . SVG Version: 6.00 Build 0)  -->
<!DOCTYPE svg PUBLIC "-//W3C//DTD SVG 1.1//EN" "http://www.w3.org/Graphics/SVG/1.1/DTD/svg11.dtd">
<svg version="1.1" id="Layer_1" xmlns="http://www.w3.org/2000/svg" xmlns:xlink="http://www.w3.org/1999/xlink" x="0px" y="0px"
	 width="674.65px" height="515.91px" viewBox="0 0 674.65 515.91" enable-background="new 0 0 674.65 515.91" xml:space="preserve">
<g>
	<path fill="none" stroke="#000000" stroke-width="0.0283" d="M232.802,140.284c0,6.527-5.208,11.818-11.632,11.818H73.287
		c-6.424,0-11.632-5.291-11.632-11.818V67.234c0-6.528,5.208-11.818,11.632-11.818H221.17c6.424,0,11.632,5.291,11.632,11.818
		V140.284z"/>
	<path fill="none" stroke="#000000" stroke-width="0.0283" d="M418.968,140.284c0,6.527-5.292,11.818-11.817,11.818H261.553
		c-6.527,0-11.818-5.291-11.818-11.818V67.234c0-6.528,5.291-11.818,11.818-11.818H407.15c6.525,0,11.817,5.291,11.817,11.818
		V140.284z"/>
	<path fill="none" stroke="#000000" stroke-width="0.0283" d="M608.064,140.284c0,6.527-5.291,11.818-11.816,11.818H450.65
		c-6.526,0-11.817-5.291-11.817-11.818V67.234c0-6.528,5.291-11.818,11.817-11.818h145.598c6.525,0,11.816,5.291,11.816,11.818
		V140.284z"/>
	<path fill="none" stroke="#000000" stroke-width="0.0283" d="M231.844,254.85c0,6.527-5.292,11.818-11.817,11.818H74.43
		c-6.527,0-11.818-5.291-11.818-11.818V181.8c0-6.527,5.291-11.818,11.818-11.818h145.597c6.526,0,11.817,5.291,11.817,11.818
		V254.85z"/>
	<path fill="none" stroke="#000000" stroke-width="0.0283" d="M418.968,254.85c0,6.527-5.292,11.818-11.817,11.818H261.553
		c-6.527,0-11.818-5.291-11.818-11.818V181.8c0-6.527,5.291-11.818,11.818-11.818H407.15c6.525,0,11.817,5.291,11.817,11.818V254.85
		z"/>
	<path fill="none" stroke="#000000" stroke-width="0.0283" d="M608.064,254.85c0,6.527-5.291,11.818-11.816,11.818H450.65
		c-6.526,0-11.817-5.291-11.817-11.818V181.8c0-6.527,5.291-11.818,11.817-11.818h145.598c6.525,0,11.816,5.291,11.816,11.818
		V254.85z"/>
	<path fill="none" stroke="#000000" stroke-width="0.0283" d="M231.844,372.489c0,6.526-5.292,11.816-11.817,11.816H74.43
		c-6.527,0-11.818-5.29-11.818-11.816v-73.051c0-6.526,5.291-11.818,11.818-11.818h145.597c6.526,0,11.817,5.292,11.817,11.818
		V372.489z"/>
	<path fill="none" stroke="#000000" stroke-width="0.0283" d="M418.968,372.489c0,6.526-5.292,11.816-11.817,11.816H261.553
		c-6.527,0-11.818-5.29-11.818-11.816v-73.051c0-6.526,5.291-11.818,11.818-11.818H407.15c6.525,0,11.817,5.292,11.817,11.818
		V372.489z"/>
	<path fill="none" stroke="#000000" stroke-width="0.0283" d="M608.064,372.489c0,6.526-5.291,11.816-11.816,11.816H450.65
		c-6.526,0-11.817-5.29-11.817-11.816v-73.051c0-6.526,5.291-11.818,11.817-11.818h145.598c6.525,0,11.816,5.292,11.816,11.818
		V372.489z"/>
</g>
</svg>
