<?xml version="1.0" encoding="UTF-8" standalone="no"?>
<!-- Generator: Adobe Illustrator 15.0.2, SVG Export Plug-In . SVG Version: 6.00 Build 0)  -->

<svg
   xmlns:dc="http://purl.org/dc/elements/1.1/"
   xmlns:cc="http://creativecommons.org/ns#"
   xmlns:rdf="http://www.w3.org/1999/02/22-rdf-syntax-ns#"
   xmlns:svg="http://www.w3.org/2000/svg"
   xmlns="http://www.w3.org/2000/svg"
   xmlns:sodipodi="http://sodipodi.sourceforge.net/DTD/sodipodi-0.dtd"
   xmlns:inkscape="http://www.inkscape.org/namespaces/inkscape"
   version="1.1"
   id="Layer_1"
   x="0px"
   y="0px"
   width="647.46869"
   height="404.74997"
   viewBox="0 0 647.46867 404.74999"
   enable-background="new 0 0 674.65 515.91"
   xml:space="preserve"
   inkscape:version="0.48.2 r9819"
   sodipodi:docname="suckers.svg"><metadata
   id="metadata17"><rdf:RDF><cc:Work
       rdf:about=""><dc:format>image/svg+xml</dc:format><dc:type
         rdf:resource="http://purl.org/dc/dcmitype/StillImage" /></cc:Work></rdf:RDF></metadata><defs
   id="defs15" /><sodipodi:namedview
   pagecolor="#ffffff"
   bordercolor="#666666"
   borderopacity="1"
   objecttolerance="10"
   gridtolerance="10"
   guidetolerance="10"
   inkscape:pageopacity="0"
   inkscape:pageshadow="2"
   inkscape:window-width="640"
   inkscape:window-height="480"
   id="namedview13"
   showgrid="false"
   fit-margin-top="0"
   fit-margin-left="0"
   fit-margin-right="0"
   fit-margin-bottom="0"
   inkscape:zoom="0.45744415"
   inkscape:cx="323.44998"
   inkscape:cy="225.51374"
   inkscape:window-x="0"
   inkscape:window-y="22"
   inkscape:window-maximized="0"
   inkscape:current-layer="Layer_1" />
<g
   id="g3"
   transform="translate(-13.87503,-78.71875)">
	<path
   stroke-miterlimit="10"
   d="m 655.357,462.477 c 0.515,-0.861 0.816,-1.865 0.816,-2.942 v -17.5 c 0,-3.176 -2.574,-5.75 -5.75,-5.75 -3.176,0 -5.75,2.574 -5.75,5.75 v 17.5 c 0,1.077 0.302,2.081 0.816,2.942 -3.523,1.799 -5.941,5.455 -5.941,9.683 0,6.006 4.869,10.875 10.875,10.875 6.006,0 10.875,-4.869 10.875,-10.875 10e-4,-4.228 -2.417,-7.885 -5.941,-9.683 z"
   id="path5"
   inkscape:connector-curvature="0"
   style="fill:#ffffff;stroke:#000000;stroke-width:0.0283;stroke-miterlimit:10" />
	<path
   stroke-miterlimit="10"
   d="m 645.49,99.342 c -0.515,0.862 -0.816,1.866 -0.816,2.942 v 17.5 c 0,3.176 2.574,5.75 5.75,5.75 3.176,0 5.75,-2.574 5.75,-5.75 v -17.5 c 0,-1.077 -0.302,-2.081 -0.816,-2.942 3.523,-1.799 5.941,-5.455 5.941,-9.683 0,-6.006 -4.869,-10.875 -10.875,-10.875 -6.006,0 -10.875,4.869 -10.875,10.875 0,4.228 2.418,7.883 5.941,9.683 z"
   id="path7"
   inkscape:connector-curvature="0"
   style="fill:#ffffff;stroke:#000000;stroke-width:0.0283;stroke-miterlimit:10" />
	<path
   stroke-miterlimit="10"
   d="m 19.865,99.342 c -0.516,0.862 -0.816,1.866 -0.816,2.942 v 17.5 c 0,3.176 2.574,5.75 5.75,5.75 3.176,0 5.75,-2.574 5.75,-5.75 v -17.5 c 0,-1.077 -0.302,-2.081 -0.816,-2.942 3.523,-1.799 5.941,-5.455 5.941,-9.683 0,-6.006 -4.869,-10.875 -10.875,-10.875 -6.006,0 -10.875,4.869 -10.875,10.875 0,4.228 2.418,7.883 5.941,9.683 z"
   id="path9"
   inkscape:connector-curvature="0"
   style="fill:#ffffff;stroke:#000000;stroke-width:0.0283;stroke-miterlimit:10" />
	<path
   stroke-miterlimit="10"
   d="m 29.857,462.852 c 0.515,-0.861 0.816,-1.865 0.816,-2.942 v -17.5 c 0,-3.176 -2.574,-5.75 -5.75,-5.75 -3.176,0 -5.75,2.574 -5.75,5.75 v 17.5 c 0,1.077 0.301,2.081 0.816,2.942 -3.523,1.799 -5.941,5.455 -5.941,9.683 0,6.006 4.869,10.875 10.875,10.875 6.006,0 10.875,-4.869 10.875,-10.875 10e-4,-4.228 -2.417,-7.885 -5.941,-9.683 z"
   id="path11"
   inkscape:connector-curvature="0"
   style="fill:#ffffff;stroke:#000000;stroke-width:0.0283;stroke-miterlimit:10" />
</g>
</svg>