<?xml version="1.0" encoding="UTF-8" standalone="no"?>
<!-- Generator: Adobe Illustrator 15.0.2, SVG Export Plug-In . SVG Version: 6.00 Build 0)  -->

<svg
   xmlns:dc="http://purl.org/dc/elements/1.1/"
   xmlns:cc="http://creativecommons.org/ns#"
   xmlns:rdf="http://www.w3.org/1999/02/22-rdf-syntax-ns#"
   xmlns:svg="http://www.w3.org/2000/svg"
   xmlns="http://www.w3.org/2000/svg"
   xmlns:sodipodi="http://sodipodi.sourceforge.net/DTD/sodipodi-0.dtd"
   xmlns:inkscape="http://www.inkscape.org/namespaces/inkscape"
   version="1.1"
   id="Layer_1"
   x="0px"
   y="0px"
   width="553.98596"
   height="417.41397"
   viewBox="0 0 553.98594 417.41399"
   enable-background="new 0 0 674.65 515.91"
   xml:space="preserve"
   inkscape:version="0.48.2 r9819"
   sodipodi:docname="keyboard-uk-landscape.svg"><metadata
   id="metadata81"><rdf:RDF><cc:Work
       rdf:about=""><dc:format>image/svg+xml</dc:format><dc:type
         rdf:resource="http://purl.org/dc/dcmitype/StillImage" /></cc:Work></rdf:RDF></metadata><defs
   id="defs79" /><sodipodi:namedview
   pagecolor="#ffffff"
   bordercolor="#666666"
   borderopacity="1"
   objecttolerance="10"
   gridtolerance="10"
   guidetolerance="10"
   inkscape:pageopacity="0"
   inkscape:pageshadow="2"
   inkscape:window-width="640"
   inkscape:window-height="480"
   id="namedview77"
   showgrid="false"
   fit-margin-top="0"
   fit-margin-left="0"
   fit-margin-right="0"
   fit-margin-bottom="0"
   inkscape:zoom="0.45744415"
   inkscape:cx="276.71149"
   inkscape:cy="208.47049"
   inkscape:window-x="0"
   inkscape:window-y="22"
   inkscape:window-maximized="0"
   inkscape:current-layer="Layer_1" />
<g
   id="g3"
   transform="translate(-60.61353,-49.0115)">
	<path
   d="m 81.642,325.635 v 35.84 c 0,1.266 1.092,2.292 2.439,2.292 h 38.148 c 1.347,0 2.439,-1.026 2.439,-2.292 v -35.84 c 0,-1.266 -1.092,-2.291 -2.439,-2.291 H 84.081 c -1.348,0 -2.439,1.025 -2.439,2.291 z"
   id="path5"
   inkscape:connector-curvature="0"
   style="fill:none;stroke:#000000;stroke-width:0.0283" />
	<path
   d="m 63.116,410.745 h 38.148 c 1.347,0 2.439,-1.026 2.439,-2.292 v -35.84 c 0,-1.266 -1.092,-2.292 -2.439,-2.292 H 63.116 c -1.347,0 -2.439,1.026 -2.439,2.292 v 35.84 c -10e-4,1.266 1.092,2.292 2.439,2.292 z"
   id="path7"
   inkscape:connector-curvature="0"
   style="fill:none;stroke:#000000;stroke-width:0.0283" />
	<path
   d="m 152.834,276.092 h -38.148 c -1.347,0 -2.439,1.025 -2.439,2.292 v 35.84 c 0,1.266 1.092,2.291 2.439,2.291 h 38.148 c 1.347,0 2.439,-1.025 2.439,-2.291 v -35.84 c 0,-1.267 -1.092,-2.292 -2.439,-2.292 z"
   id="path9"
   inkscape:connector-curvature="0"
   style="fill:none;stroke:#000000;stroke-width:0.0283" />
	<path
   d="m 131.999,325.635 v 35.84 c 0,1.266 1.092,2.292 2.439,2.292 h 38.147 c 1.347,0 2.439,-1.026 2.439,-2.292 v -35.84 c 0,-1.266 -1.092,-2.291 -2.439,-2.291 h -38.147 c -1.347,0 -2.439,1.025 -2.439,2.291 z"
   id="path11"
   inkscape:connector-curvature="0"
   style="fill:none;stroke:#000000;stroke-width:0.0283" />
	<path
   d="m 112.719,370.321 c -1.347,0 -2.439,1.026 -2.439,2.292 v 35.84 c 0,1.266 1.092,2.292 2.439,2.292 h 38.148 c 1.347,0 2.439,-1.026 2.439,-2.292 v -35.84 c 0,-1.266 -1.092,-2.292 -2.439,-2.292 h -38.148 z"
   id="path13"
   inkscape:connector-curvature="0"
   style="fill:none;stroke:#000000;stroke-width:0.0283" />
	<path
   d="m 203.856,276.092 h -38.148 c -1.347,0 -2.439,1.025 -2.439,2.292 v 35.84 c 0,1.266 1.092,2.291 2.439,2.291 h 38.148 c 1.347,0 2.439,-1.025 2.439,-2.291 v -35.84 c 0.001,-1.267 -1.091,-2.292 -2.439,-2.292 z"
   id="path15"
   inkscape:connector-curvature="0"
   style="fill:none;stroke:#000000;stroke-width:0.0283" />
	<path
   d="m 182.356,325.635 v 35.84 c 0,1.266 1.092,2.292 2.439,2.292 h 38.148 c 1.347,0 2.439,-1.026 2.439,-2.292 v -35.84 c 0,-1.266 -1.092,-2.291 -2.439,-2.291 h -38.148 c -1.347,0 -2.439,1.025 -2.439,2.291 z"
   id="path17"
   inkscape:connector-curvature="0"
   style="fill:none;stroke:#000000;stroke-width:0.0283" />
	<path
   d="m 200.471,370.321 h -38.148 c -1.347,0 -2.439,1.026 -2.439,2.292 v 35.84 c 0,1.266 1.092,2.292 2.439,2.292 h 38.148 c 1.347,0 2.439,-1.026 2.439,-2.292 v -35.84 c 0,-1.265 -1.093,-2.292 -2.439,-2.292 z"
   id="path19"
   inkscape:connector-curvature="0"
   style="fill:none;stroke:#000000;stroke-width:0.0283" />
	<path
   d="m 254.879,276.092 h -38.148 c -1.347,0 -2.439,1.025 -2.439,2.292 v 35.84 c 0,1.266 1.092,2.291 2.439,2.291 h 38.148 c 1.347,0 2.439,-1.025 2.439,-2.291 v -35.84 c 0,-1.267 -1.092,-2.292 -2.439,-2.292 z"
   id="path21"
   inkscape:connector-curvature="0"
   style="fill:none;stroke:#000000;stroke-width:0.0283" />
	<path
   d="m 232.713,325.635 v 35.84 c 0,1.266 1.092,2.292 2.439,2.292 H 273.3 c 1.347,0 2.439,-1.026 2.439,-2.292 v -35.84 c 0,-1.266 -1.092,-2.291 -2.439,-2.291 h -38.148 c -1.347,0 -2.439,1.025 -2.439,2.291 z"
   id="path23"
   inkscape:connector-curvature="0"
   style="fill:none;stroke:#000000;stroke-width:0.0283" />
	<path
   d="m 211.926,410.745 h 38.148 c 1.347,0 2.439,-1.026 2.439,-2.292 v -35.84 c 0,-1.266 -1.092,-2.292 -2.439,-2.292 h -38.148 c -1.347,0 -2.439,1.026 -2.439,2.292 v 35.84 c 0,1.266 1.092,2.292 2.439,2.292 z"
   id="path25"
   inkscape:connector-curvature="0"
   style="fill:none;stroke:#000000;stroke-width:0.0283" />
	<path
   d="m 305.902,276.092 h -38.148 c -1.347,0 -2.439,1.025 -2.439,2.292 v 35.84 c 0,1.266 1.092,2.291 2.439,2.291 h 38.148 c 1.347,0 2.439,-1.025 2.439,-2.291 v -35.84 c 0,-1.267 -1.092,-2.292 -2.439,-2.292 z"
   id="path27"
   inkscape:connector-curvature="0"
   style="fill:none;stroke:#000000;stroke-width:0.0283" />
	<path
   d="m 283.07,325.635 v 35.84 c 0,1.266 1.092,2.292 2.439,2.292 h 38.147 c 1.348,0 2.439,-1.026 2.439,-2.292 v -35.84 c 0,-1.266 -1.092,-2.291 -2.439,-2.291 h -38.147 c -1.346,0 -2.439,1.025 -2.439,2.291 z"
   id="path29"
   inkscape:connector-curvature="0"
   style="fill:none;stroke:#000000;stroke-width:0.0283" />
	<path
   d="m 261.53,370.321 c -1.347,0 -2.439,1.026 -2.439,2.292 v 35.84 c 0,1.266 1.092,2.292 2.439,2.292 h 38.148 c 1.347,0 2.439,-1.026 2.439,-2.292 v -35.84 c 0,-1.266 -1.092,-2.292 -2.439,-2.292 H 261.53 z"
   id="path31"
   inkscape:connector-curvature="0"
   style="fill:none;stroke:#000000;stroke-width:0.0283" />
	<path
   d="m 356.924,276.092 h -38.148 c -1.347,0 -2.439,1.025 -2.439,2.292 v 35.84 c 0,1.266 1.093,2.291 2.439,2.291 h 38.148 c 1.348,0 2.439,-1.025 2.439,-2.291 v -35.84 c 0,-1.267 -1.092,-2.292 -2.439,-2.292 z"
   id="path33"
   inkscape:connector-curvature="0"
   style="fill:none;stroke:#000000;stroke-width:0.0283" />
	<path
   d="m 333.427,325.635 v 35.84 c 0,1.266 1.093,2.292 2.439,2.292 h 38.147 c 1.348,0 2.439,-1.026 2.439,-2.292 v -35.84 c 0,-1.266 -1.092,-2.291 -2.439,-2.291 h -38.147 c -1.346,0 -2.439,1.025 -2.439,2.291 z"
   id="path35"
   inkscape:connector-curvature="0"
   style="fill:none;stroke:#000000;stroke-width:0.0283" />
	<path
   d="m 311.133,370.321 c -1.347,0 -2.439,1.026 -2.439,2.292 v 35.84 c 0,1.266 1.092,2.292 2.439,2.292 h 38.148 c 1.348,0 2.439,-1.026 2.439,-2.292 v -35.84 c 0,-1.266 -1.092,-2.292 -2.439,-2.292 h -38.148 z"
   id="path37"
   inkscape:connector-curvature="0"
   style="fill:none;stroke:#000000;stroke-width:0.0283" />
	<path
   d="m 407.947,276.092 h -38.148 c -1.348,0 -2.439,1.025 -2.439,2.292 v 35.84 c 0,1.266 1.092,2.291 2.439,2.291 h 38.148 c 1.346,0 2.439,-1.025 2.439,-2.291 v -35.84 c 10e-4,-1.267 -1.093,-2.292 -2.439,-2.292 z"
   id="path39"
   inkscape:connector-curvature="0"
   style="fill:none;stroke:#000000;stroke-width:0.0283" />
	<path
   d="m 383.785,325.635 v 35.84 c 0,1.266 1.092,2.292 2.439,2.292 h 38.146 c 1.348,0 2.439,-1.026 2.439,-2.292 v -35.84 c 0,-1.266 -1.092,-2.291 -2.439,-2.291 h -38.146 c -1.347,0 -2.439,1.025 -2.439,2.291 z"
   id="path41"
   inkscape:connector-curvature="0"
   style="fill:none;stroke:#000000;stroke-width:0.0283" />
	<path
   d="m 360.736,370.321 c -1.348,0 -2.439,1.026 -2.439,2.292 v 35.84 c 0,1.266 1.092,2.292 2.439,2.292 h 38.148 c 1.348,0 2.439,-1.026 2.439,-2.292 v -35.84 c 0,-1.266 -1.092,-2.292 -2.439,-2.292 h -38.148 z"
   id="path43"
   inkscape:connector-curvature="0"
   style="fill:none;stroke:#000000;stroke-width:0.0283" />
	<path
   d="M 458.969,276.092 H 420.82 c -1.346,0 -2.438,1.025 -2.438,2.292 v 35.84 c 0,1.266 1.092,2.291 2.438,2.291 h 38.148 c 1.348,0 2.439,-1.025 2.439,-2.291 v -35.84 c 0.001,-1.267 -1.091,-2.292 -2.438,-2.292 z"
   id="path45"
   inkscape:connector-curvature="0"
   style="fill:none;stroke:#000000;stroke-width:0.0283" />
	<path
   d="m 434.143,325.635 v 35.84 c 0,1.266 1.092,2.292 2.438,2.292 h 38.148 c 1.348,0 2.439,-1.026 2.439,-2.292 v -35.84 c 0,-1.266 -1.092,-2.291 -2.439,-2.291 H 436.58 c -1.346,0 -2.437,1.025 -2.437,2.291 z"
   id="path47"
   inkscape:connector-curvature="0"
   style="fill:none;stroke:#000000;stroke-width:0.0283" />
	<path
   d="m 410.34,370.321 c -1.348,0 -2.439,1.026 -2.439,2.292 v 35.84 c 0,1.266 1.092,2.292 2.439,2.292 h 38.148 c 1.348,0 2.439,-1.026 2.439,-2.292 v -35.84 c 0,-1.266 -1.092,-2.292 -2.439,-2.292 H 410.34 z"
   id="path49"
   inkscape:connector-curvature="0"
   style="fill:none;stroke:#000000;stroke-width:0.0283" />
	<path
   d="m 509.992,276.092 h -38.148 c -1.348,0 -2.439,1.025 -2.439,2.292 v 35.84 c 0,1.266 1.092,2.291 2.439,2.291 h 38.148 c 1.348,0 2.439,-1.025 2.439,-2.291 v -35.84 c 10e-4,-1.267 -1.091,-2.292 -2.439,-2.292 z"
   id="path51"
   inkscape:connector-curvature="0"
   style="fill:none;stroke:#000000;stroke-width:0.0283" />
	<path
   d="m 484.498,325.635 v 35.84 c 0,1.266 1.094,2.292 2.439,2.292 h 38.148 c 1.348,0 2.439,-1.026 2.439,-2.292 v -35.84 c 0,-1.266 -1.092,-2.291 -2.439,-2.291 h -38.148 c -1.345,0 -2.439,1.025 -2.439,2.291 z"
   id="path53"
   inkscape:connector-curvature="0"
   style="fill:none;stroke:#000000;stroke-width:0.0283" />
	<path
   d="m 459.943,370.321 c -1.348,0 -2.439,1.026 -2.439,2.292 v 35.84 c 0,1.266 1.092,2.292 2.439,2.292 h 38.148 c 1.348,0 2.439,-1.026 2.439,-2.292 v -35.84 c 0,-1.266 -1.092,-2.292 -2.439,-2.292 h -38.148 z"
   id="path55"
   inkscape:connector-curvature="0"
   style="fill:none;stroke:#000000;stroke-width:0.0283" />
	<path
   d="m 561.014,316.515 c 1.348,0 2.439,-1.025 2.439,-2.291 v -35.84 c 0,-1.267 -1.092,-2.292 -2.439,-2.292 h -38.146 c -1.348,0 -2.439,1.025 -2.439,2.292 v 35.84 c 0,1.266 1.092,2.291 2.439,2.291 h 38.146 z"
   id="path57"
   inkscape:connector-curvature="0"
   style="fill:none;stroke:#000000;stroke-width:0.0283" />
	<path
   d="M 610.008,323.344 H 539.18 c -2.502,0 -4.529,1.025 -4.529,2.291 v 35.84 c 0,1.266 2.027,2.292 4.529,2.292 h 70.828 c 2.502,0 4.529,-1.026 4.529,-2.292 v -35.84 c 0,-1.266 -2.027,-2.291 -4.529,-2.291 z"
   id="path59"
   inkscape:connector-curvature="0"
   style="fill:none;stroke:#000000;stroke-width:0.0283" />
	<path
   d="m 507.107,372.613 v 35.84 c 0,1.266 1.092,2.292 2.439,2.292 h 38.148 c 1.348,0 2.439,-1.026 2.439,-2.292 v -35.84 c 0,-1.266 -1.092,-2.292 -2.439,-2.292 h -38.148 c -1.347,0 -2.439,1.027 -2.439,2.292 z"
   id="path61"
   inkscape:connector-curvature="0"
   style="fill:none;stroke:#000000;stroke-width:0.0283" />
	<path
   d="M 612.098,276.092 H 573.95 c -1.346,0 -2.439,1.025 -2.439,2.292 v 35.84 c 0,1.266 1.094,2.291 2.439,2.291 h 38.148 c 1.348,0 2.439,-1.025 2.439,-2.291 v -35.84 c 0,-1.267 -1.092,-2.292 -2.439,-2.292 z"
   id="path63"
   inkscape:connector-curvature="0"
   style="fill:none;stroke:#000000;stroke-width:0.0283" />
	<path
   d="m 611.275,370.321 h -51.027 c -1.801,0 -3.262,1.026 -3.262,2.292 v 35.84 c 0,1.266 1.461,2.292 3.262,2.292 h 51.027 c 1.801,0 3.262,-1.026 3.262,-2.292 v -35.84 c 0,-1.265 -1.461,-2.292 -3.262,-2.292 z"
   id="path65"
   inkscape:connector-curvature="0"
   style="fill:none;stroke:#000000;stroke-width:0.0283" />
	<path
   d="M 611.381,49.074 H 63.834 c -1.744,0 -3.158,1.48 -3.158,3.308 v 215.671 c 0,1.826 1.414,3.308 3.158,3.308 H 611.38 c 1.742,0 3.156,-1.481 3.156,-3.308 V 52.382 c 0.001,-1.827 -1.413,-3.308 -3.155,-3.308 z"
   id="path67"
   inkscape:connector-curvature="0"
   style="fill:none;stroke:#000000;stroke-width:0.0283" />
	<path
   d="M 612.098,417.437 H 573.95 c -1.346,0 -2.439,1.241 -2.439,2.774 v 43.379 c 0,1.532 1.094,2.773 2.439,2.773 h 38.148 c 1.348,0 2.439,-1.241 2.439,-2.773 v -43.379 c 0,-1.533 -1.092,-2.774 -2.439,-2.774 z"
   id="path69"
   inkscape:connector-curvature="0"
   style="fill:none;stroke:#000000;stroke-width:0.0283" />
	<path
   d="m 561.396,417.437 h -51.025 c -1.803,0 -3.264,1.241 -3.264,2.774 v 43.379 c 0,1.532 1.461,2.773 3.264,2.773 h 51.025 c 1.803,0 3.264,-1.241 3.264,-2.773 v -43.379 c 0,-1.533 -1.461,-2.774 -3.264,-2.774 z"
   id="path71"
   inkscape:connector-curvature="0"
   style="fill:none;stroke:#000000;stroke-width:0.0283" />
	<path
   d="M 194.847,417.437 H 68.74 c -4.453,0 -8.063,1.241 -8.063,2.774 v 43.379 c 0,1.532 3.611,2.773 8.063,2.773 h 126.107 c 4.454,0 8.063,-1.241 8.063,-2.773 v -43.379 c 0,-1.533 -3.61,-2.774 -8.063,-2.774 z"
   id="path73"
   inkscape:connector-curvature="0"
   style="fill:none;stroke:#000000;stroke-width:0.0283" />
	<path
   d="M 497.834,417.447 H 212.732 c -1.716,0 -3.107,1.679 -3.107,3.748 v 41.42 c 0,2.07 1.391,3.748 3.107,3.748 h 285.102 c 1.717,0 3.107,-1.678 3.107,-3.748 v -41.42 c 0,-2.069 -1.39,-3.748 -3.107,-3.748 z"
   id="path75"
   inkscape:connector-curvature="0"
   style="fill:none;stroke:#000000;stroke-width:0.0283" />
</g>
</svg>