<?xml version="1.0" encoding="utf-8"?>
<!-- Generator: Adobe Illustrator 15.0.2, SVG Export Plug-In . SVG Version: 6.00 Build 0)  -->
<!DOCTYPE svg PUBLIC "-//W3C//DTD SVG 1.1//EN" "http://www.w3.org/Graphics/SVG/1.1/DTD/svg11.dtd">
<svg version="1.1" id="Layer_1" xmlns="http://www.w3.org/2000/svg" xmlns:xlink="http://www.w3.org/1999/xlink" x="0px" y="0px"
	 width="802.2px" height="518.74px" viewBox="0 0 802.2 518.74" enable-background="new 0 0 802.2 518.74" xml:space="preserve">
<g>
	<ellipse fill="none" stroke="#000000" stroke-miterlimit="10" cx="124.25" cy="98.218" rx="88.75" ry="51.065"/>
	<ellipse fill="none" stroke="#000000" stroke-miterlimit="10" cx="124.25" cy="208.53" rx="88.75" ry="51.065"/>
	<ellipse fill="none" stroke="#000000" stroke-miterlimit="10" cx="124.25" cy="429" rx="88.75" ry="51.065"/>
	<ellipse fill="none" stroke="#000000" stroke-miterlimit="10" cx="677.375" cy="98.218" rx="88.75" ry="51.065"/>
	<path fill="none" stroke="#000000" stroke-miterlimit="10" d="M576.792,46.935H224.208c-3.153,0-5.708,2.549-5.708,5.693v91.178
		c0,3.145,2.556,5.693,5.708,5.693h352.583c3.152,0,5.708-2.549,5.708-5.693V52.628C582.5,49.484,579.944,46.935,576.792,46.935z"/>
	<path fill="none" stroke="#000000" stroke-miterlimit="10" d="M380.992,157.514H235.508c-9.394,0-17.008,7.622-17.008,17.024
		v67.985c0,9.402,7.614,17.024,17.008,17.024h145.484c9.394,0,17.008-7.622,17.008-17.024v-67.985
		C398,165.136,390.386,157.514,380.992,157.514z"/>
	<path fill="none" stroke="#000000" stroke-miterlimit="10" d="M565.492,157.514H420.008c-9.394,0-17.008,7.622-17.008,17.024
		v67.985c0,9.402,7.614,17.024,17.008,17.024h145.484c9.394,0,17.008-7.622,17.008-17.024v-67.985
		C582.5,165.136,574.886,157.514,565.492,157.514z"/>
	<path fill="none" stroke="#000000" stroke-miterlimit="10" d="M380.992,267.995H235.508c-9.394,0-17.008,7.621-17.008,17.023
		v67.984c0,9.402,7.614,17.024,17.008,17.024h145.484c9.394,0,17.008-7.622,17.008-17.024v-67.984
		C398,275.616,390.386,267.995,380.992,267.995z"/>
	<path fill="none" stroke="#000000" stroke-miterlimit="10" d="M565.492,267.995H420.008c-9.394,0-17.008,7.621-17.008,17.023
		v67.984c0,9.402,7.614,17.024,17.008,17.024h145.484c9.394,0,17.008-7.622,17.008-17.024v-67.984
		C582.5,275.616,574.886,267.995,565.492,267.995z"/>
	<path fill="none" stroke="#000000" stroke-miterlimit="10" d="M380.992,378.549H235.508c-9.394,0-17.008,7.621-17.008,17.023
		v67.984c0,9.402,7.614,17.024,17.008,17.024h145.484c9.394,0,17.008-7.622,17.008-17.024v-67.984
		C398,386.17,390.386,378.549,380.992,378.549z"/>
	<path fill="none" stroke="#000000" stroke-miterlimit="10" d="M565.492,378.549H420.008c-9.394,0-17.008,7.621-17.008,17.023
		v67.984c0,9.402,7.614,17.024,17.008,17.024h145.484c9.394,0,17.008-7.622,17.008-17.024v-67.984
		C582.5,386.17,574.886,378.549,565.492,378.549z"/>
	<path fill="none" stroke="#000000" stroke-miterlimit="10" d="M750.117,378.549H604.633c-9.394,0-17.008,7.621-17.008,17.023
		v67.984c0,9.402,7.614,17.024,17.008,17.024h145.484c9.394,0,17.008-7.622,17.008-17.024v-67.984
		C767.125,386.17,759.511,378.549,750.117,378.549z"/>
	<path fill="none" stroke="#000000" stroke-miterlimit="10" d="M750.117,267.995H604.633c-9.394,0-17.008,7.621-17.008,17.023
		v67.984c0,9.402,7.614,17.024,17.008,17.024h145.484c9.394,0,17.008-7.622,17.008-17.024v-67.984
		C767.125,275.616,759.511,267.995,750.117,267.995z"/>
	<path fill="none" stroke="#000000" stroke-miterlimit="10" d="M750.117,157.514H604.633c-9.394,0-17.008,7.622-17.008,17.024
		v67.984c0,9.402,7.614,17.024,17.008,17.024h145.484c9.394,0,17.008-7.622,17.008-17.024v-67.984
		C767.125,165.136,759.511,157.514,750.117,157.514z"/>
	<path fill="none" stroke="#000000" stroke-miterlimit="10" d="M184.654,267.994H63.847c-15.656,0-28.347,12.691-28.347,28.347
		v45.34c0,15.655,12.691,28.347,28.347,28.347h120.807c15.655,0,28.346-12.691,28.346-28.347v-45.34
		C213,280.686,200.309,267.994,184.654,267.994z"/>
</g>
</svg>
