<?xml version="1.0" encoding="utf-8"?>
<!-- Generator: Adobe Illustrator 15.0.2, SVG Export Plug-In . SVG Version: 6.00 Build 0)  -->
<!DOCTYPE svg PUBLIC "-//W3C//DTD SVG 1.1//EN" "http://www.w3.org/Graphics/SVG/1.1/DTD/svg11.dtd">
<svg version="1.1" id="Layer_1" xmlns="http://www.w3.org/2000/svg" xmlns:xlink="http://www.w3.org/1999/xlink" x="0px" y="0px"
	 width="674.65px" height="515.91px" viewBox="0 0 674.65 515.91" enable-background="new 0 0 674.65 515.91" xml:space="preserve">
<g>
	<path fill="none" stroke="#000000" stroke-width="0.0283" stroke-miterlimit="10" d="M71.192,162.5h10.23
		c6.458,0,11.692-5.235,11.692-11.692v-14.615c0-6.458-5.235-11.692-11.692-11.692h-10.23c-6.458,0-11.692,5.235-11.692,11.692
		v14.615C59.5,157.265,64.735,162.5,71.192,162.5z"/>
	<path fill="none" stroke="#000000" stroke-width="0.0283" stroke-miterlimit="10" d="M108.77,124.5
		c-6.458,0-11.692,5.235-11.692,11.692v14.615c0,6.458,5.235,11.692,11.692,11.692H119c6.458,0,11.692-5.235,11.692-11.692v-14.615
		c0-6.458-5.235-11.692-11.692-11.692H108.77z"/>
	<path fill="none" stroke="#000000" stroke-width="0.0283" stroke-miterlimit="10" d="M145.385,124.5
		c-6.458,0-11.692,5.235-11.692,11.692v14.615c0,6.458,5.235,11.692,11.692,11.692h10.23c6.458,0,11.692-5.235,11.692-11.692
		v-14.615c0-6.458-5.235-11.692-11.692-11.692H145.385z"/>
	<path fill="none" stroke="#000000" stroke-width="0.0283" stroke-miterlimit="10" d="M182.962,124.5
		c-6.458,0-11.692,5.235-11.692,11.692v14.615c0,6.458,5.235,11.692,11.692,11.692h10.23c6.457,0,11.692-5.235,11.692-11.692
		v-14.615c0-6.458-5.235-11.692-11.692-11.692H182.962z"/>
	<path fill="none" stroke="#000000" stroke-width="0.0283" stroke-miterlimit="10" d="M219.192,124.5
		c-6.458,0-11.692,5.235-11.692,11.692v14.615c0,6.458,5.235,11.692,11.692,11.692h10.23c6.458,0,11.692-5.235,11.692-11.692
		v-14.615c0-6.458-5.235-11.692-11.692-11.692H219.192z"/>
	<path fill="none" stroke="#000000" stroke-width="0.0283" stroke-miterlimit="10" d="M256.77,124.5
		c-6.458,0-11.692,5.235-11.692,11.692v14.615c0,6.458,5.235,11.692,11.692,11.692H267c6.458,0,11.692-5.235,11.692-11.692v-14.615
		c0-6.458-5.235-11.692-11.692-11.692H256.77z"/>
	<path fill="none" stroke="#000000" stroke-width="0.0283" stroke-miterlimit="10" d="M293.385,124.5
		c-6.458,0-11.692,5.235-11.692,11.692v14.615c0,6.458,5.235,11.692,11.692,11.692h10.23c6.457,0,11.692-5.235,11.692-11.692
		v-14.615c0-6.458-5.235-11.692-11.692-11.692H293.385z"/>
	<path fill="none" stroke="#000000" stroke-width="0.0283" stroke-miterlimit="10" d="M330.962,124.5
		c-6.458,0-11.692,5.235-11.692,11.692v14.615c0,6.458,5.234,11.692,11.692,11.692h10.23c6.457,0,11.692-5.235,11.692-11.692
		v-14.615c0-6.458-5.235-11.692-11.692-11.692H330.962z"/>
	<path fill="none" stroke="#000000" stroke-width="0.0283" stroke-miterlimit="10" d="M367.963,124.5
		c-6.457,0-11.692,5.235-11.692,11.692v14.615c0,6.458,5.235,11.692,11.692,11.692h10.23c6.457,0,11.692-5.235,11.692-11.692
		v-14.615c0-6.458-5.235-11.692-11.692-11.692H367.963z"/>
	<path fill="none" stroke="#000000" stroke-width="0.0283" stroke-miterlimit="10" d="M405.54,124.5
		c-6.458,0-11.692,5.235-11.692,11.692v14.615c0,6.458,5.234,11.692,11.692,11.692h10.23c6.458,0,11.692-5.235,11.692-11.692
		v-14.615c0-6.458-5.234-11.692-11.692-11.692H405.54z"/>
	<path fill="none" stroke="#000000" stroke-width="0.0283" stroke-miterlimit="10" d="M442.155,124.5
		c-6.458,0-11.692,5.235-11.692,11.692v14.615c0,6.458,5.234,11.692,11.692,11.692h10.23c6.458,0,11.692-5.235,11.692-11.692
		v-14.615c0-6.458-5.234-11.692-11.692-11.692H442.155z"/>
	<path fill="none" stroke="#000000" stroke-width="0.0283" stroke-miterlimit="10" d="M479.732,124.5
		c-6.457,0-11.692,5.235-11.692,11.692v14.615c0,6.458,5.235,11.692,11.692,11.692h10.23c6.457,0,11.692-5.235,11.692-11.692
		v-14.615c0-6.458-5.235-11.692-11.692-11.692H479.732z"/>
	<path fill="none" stroke="#000000" stroke-width="0.0283" stroke-miterlimit="10" d="M515.963,124.5
		c-6.457,0-11.692,5.235-11.692,11.692v14.615c0,6.458,5.235,11.692,11.692,11.692h10.23c6.458,0,11.692-5.235,11.692-11.692
		v-14.615c0-6.458-5.234-11.692-11.692-11.692H515.963z"/>
	<path fill="none" stroke="#000000" stroke-width="0.0283" stroke-miterlimit="10" d="M553.54,124.5
		c-6.457,0-11.692,5.235-11.692,11.692v14.615c0,6.458,5.235,11.692,11.692,11.692h10.23c6.457,0,11.692-5.235,11.692-11.692
		v-14.615c0-6.458-5.235-11.692-11.692-11.692H553.54z"/>
	<path fill="none" stroke="#000000" stroke-width="0.0283" stroke-miterlimit="10" d="M590.155,162.5h10.23
		c6.457,0,11.692-5.235,11.692-11.692v-14.615c0-6.458-5.235-11.692-11.692-11.692h-10.23c-6.457,0-11.692,5.235-11.692,11.692
		v14.615C578.463,157.265,583.698,162.5,590.155,162.5z"/>
	<path fill="none" stroke="#000000" stroke-width="0.0283" stroke-miterlimit="10" d="M70.481,205.5h10.23
		c6.458,0,11.692-5.235,11.692-11.692v-14.615c0-6.458-5.235-11.692-11.692-11.692h-10.23c-6.458,0-11.692,5.235-11.692,11.692
		v14.615C58.789,200.265,64.024,205.5,70.481,205.5z"/>
	<path fill="none" stroke="#000000" stroke-width="0.0283" stroke-miterlimit="10" d="M108.059,205.5h10.23
		c6.458,0,11.692-5.235,11.692-11.692v-14.615c0-6.458-5.235-11.692-11.692-11.692h-10.23c-6.458,0-11.692,5.235-11.692,11.692
		v14.615C96.366,200.265,101.601,205.5,108.059,205.5z"/>
	<path fill="none" stroke="#000000" stroke-width="0.0283" stroke-miterlimit="10" d="M144.674,205.5h10.23
		c6.458,0,11.692-5.235,11.692-11.692v-14.615c0-6.458-5.235-11.692-11.692-11.692h-10.23c-6.458,0-11.692,5.235-11.692,11.692
		v14.615C132.981,200.265,138.216,205.5,144.674,205.5z"/>
	<path fill="none" stroke="#000000" stroke-width="0.0283" stroke-miterlimit="10" d="M182.251,205.5h10.23
		c6.457,0,11.692-5.235,11.692-11.692v-14.615c0-6.458-5.235-11.692-11.692-11.692h-10.23c-6.458,0-11.692,5.235-11.692,11.692
		v14.615C170.559,200.265,175.793,205.5,182.251,205.5z"/>
	<path fill="none" stroke="#000000" stroke-width="0.0283" stroke-miterlimit="10" d="M218.481,205.5h10.23
		c6.458,0,11.692-5.235,11.692-11.692v-14.615c0-6.458-5.235-11.692-11.692-11.692h-10.23c-6.458,0-11.692,5.235-11.692,11.692
		v14.615C206.789,200.265,212.024,205.5,218.481,205.5z"/>
	<path fill="none" stroke="#000000" stroke-width="0.0283" stroke-miterlimit="10" d="M256.059,205.5h10.23
		c6.457,0,11.692-5.235,11.692-11.692v-14.615c0-6.458-5.235-11.692-11.692-11.692h-10.23c-6.458,0-11.692,5.235-11.692,11.692
		v14.615C244.366,200.265,249.601,205.5,256.059,205.5z"/>
	<path fill="none" stroke="#000000" stroke-width="0.0283" stroke-miterlimit="10" d="M292.674,205.5h10.23
		c6.457,0,11.692-5.235,11.692-11.692v-14.615c0-6.458-5.235-11.692-11.692-11.692h-10.23c-6.457,0-11.692,5.235-11.692,11.692
		v14.615C280.981,200.265,286.217,205.5,292.674,205.5z"/>
	<path fill="none" stroke="#000000" stroke-width="0.0283" stroke-miterlimit="10" d="M330.251,205.5h10.23
		c6.457,0,11.692-5.235,11.692-11.692v-14.615c0-6.458-5.235-11.692-11.692-11.692h-10.23c-6.458,0-11.692,5.235-11.692,11.692
		v14.615C318.559,200.265,323.793,205.5,330.251,205.5z"/>
	<path fill="none" stroke="#000000" stroke-width="0.0283" stroke-miterlimit="10" d="M367.252,205.5h10.23
		c6.457,0,11.692-5.235,11.692-11.692v-14.615c0-6.458-5.235-11.692-11.692-11.692h-10.23c-6.457,0-11.692,5.235-11.692,11.692
		v14.615C355.56,200.265,360.795,205.5,367.252,205.5z"/>
	<path fill="none" stroke="#000000" stroke-width="0.0283" stroke-miterlimit="10" d="M404.829,205.5h10.23
		c6.458,0,11.692-5.235,11.692-11.692v-14.615c0-6.458-5.234-11.692-11.692-11.692h-10.23c-6.458,0-11.692,5.235-11.692,11.692
		v14.615C393.137,200.265,398.371,205.5,404.829,205.5z"/>
	<path fill="none" stroke="#000000" stroke-width="0.0283" stroke-miterlimit="10" d="M441.444,205.5h10.23
		c6.458,0,11.692-5.235,11.692-11.692v-14.615c0-6.458-5.234-11.692-11.692-11.692h-10.23c-6.458,0-11.692,5.235-11.692,11.692
		v14.615C429.752,200.265,434.986,205.5,441.444,205.5z"/>
	<path fill="none" stroke="#000000" stroke-width="0.0283" stroke-miterlimit="10" d="M479.021,205.5h10.23
		c6.457,0,11.692-5.235,11.692-11.692v-14.615c0-6.458-5.235-11.692-11.692-11.692h-10.23c-6.457,0-11.692,5.235-11.692,11.692
		v14.615C467.329,200.265,472.564,205.5,479.021,205.5z"/>
	<path fill="none" stroke="#000000" stroke-width="0.0283" stroke-miterlimit="10" d="M515.252,205.5h10.23
		c6.458,0,11.692-5.235,11.692-11.692v-14.615c0-6.458-5.234-11.692-11.692-11.692h-10.23c-6.457,0-11.692,5.235-11.692,11.692
		v14.615C503.56,200.265,508.795,205.5,515.252,205.5z"/>
	<path fill="none" stroke="#000000" stroke-width="0.0283" stroke-miterlimit="10" d="M552.829,205.5h10.23
		c6.457,0,11.692-5.235,11.692-11.692v-14.615c0-6.458-5.235-11.692-11.692-11.692h-10.23c-6.457,0-11.692,5.235-11.692,11.692
		v14.615C541.137,200.265,546.372,205.5,552.829,205.5z"/>
	<path fill="none" stroke="#000000" stroke-width="0.0283" stroke-miterlimit="10" d="M589.444,205.5h10.23
		c6.457,0,11.692-5.235,11.692-11.692v-14.615c0-6.458-5.235-11.692-11.692-11.692h-10.23c-6.457,0-11.692,5.235-11.692,11.692
		v14.615C577.752,200.265,582.987,205.5,589.444,205.5z"/>
	<path fill="none" stroke="#000000" stroke-width="0.0283" stroke-miterlimit="10" d="M81,210.5H70.77
		c-6.458,0-11.692,5.235-11.692,11.692v14.615c0,6.458,5.235,11.692,11.692,11.692H81c6.458,0,11.692-5.235,11.692-11.692v-14.615
		C92.692,215.735,87.458,210.5,81,210.5z"/>
	<path fill="none" stroke="#000000" stroke-width="0.0283" stroke-miterlimit="10" d="M118.577,210.5h-10.23
		c-6.458,0-11.692,5.235-11.692,11.692v14.615c0,6.458,5.235,11.692,11.692,11.692h10.23c6.458,0,11.692-5.235,11.692-11.692
		v-14.615C130.27,215.735,125.035,210.5,118.577,210.5z"/>
	<path fill="none" stroke="#000000" stroke-width="0.0283" stroke-miterlimit="10" d="M155.192,210.5h-10.23
		c-6.458,0-11.692,5.235-11.692,11.692v14.615c0,6.458,5.235,11.692,11.692,11.692h10.23c6.458,0,11.692-5.235,11.692-11.692
		v-14.615C166.885,215.735,161.65,210.5,155.192,210.5z"/>
	<path fill="none" stroke="#000000" stroke-width="0.0283" stroke-miterlimit="10" d="M192.77,210.5h-10.23
		c-6.458,0-11.692,5.235-11.692,11.692v14.615c0,6.458,5.235,11.692,11.692,11.692h10.23c6.457,0,11.692-5.235,11.692-11.692
		v-14.615C204.462,215.735,199.227,210.5,192.77,210.5z"/>
	<path fill="none" stroke="#000000" stroke-width="0.0283" stroke-miterlimit="10" d="M229,210.5h-10.23
		c-6.458,0-11.692,5.235-11.692,11.692v14.615c0,6.458,5.235,11.692,11.692,11.692H229c6.458,0,11.692-5.235,11.692-11.692v-14.615
		C240.692,215.735,235.458,210.5,229,210.5z"/>
	<path fill="none" stroke="#000000" stroke-width="0.0283" stroke-miterlimit="10" d="M266.577,210.5h-10.23
		c-6.458,0-11.692,5.235-11.692,11.692v14.615c0,6.458,5.235,11.692,11.692,11.692h10.23c6.457,0,11.692-5.235,11.692-11.692
		v-14.615C278.27,215.735,273.034,210.5,266.577,210.5z"/>
	<path fill="none" stroke="#000000" stroke-width="0.0283" stroke-miterlimit="10" d="M303.192,210.5h-10.23
		c-6.457,0-11.692,5.235-11.692,11.692v14.615c0,6.458,5.235,11.692,11.692,11.692h10.23c6.457,0,11.692-5.235,11.692-11.692
		v-14.615C314.885,215.735,309.649,210.5,303.192,210.5z"/>
	<path fill="none" stroke="#000000" stroke-width="0.0283" stroke-miterlimit="10" d="M340.77,210.5h-10.23
		c-6.458,0-11.692,5.235-11.692,11.692v14.615c0,6.458,5.234,11.692,11.692,11.692h10.23c6.457,0,11.692-5.235,11.692-11.692
		v-14.615C352.462,215.735,347.227,210.5,340.77,210.5z"/>
	<path fill="none" stroke="#000000" stroke-width="0.0283" stroke-miterlimit="10" d="M377.771,210.5h-10.23
		c-6.457,0-11.692,5.235-11.692,11.692v14.615c0,6.458,5.235,11.692,11.692,11.692h10.23c6.457,0,11.692-5.235,11.692-11.692
		v-14.615C389.463,215.735,384.228,210.5,377.771,210.5z"/>
	<path fill="none" stroke="#000000" stroke-width="0.0283" stroke-miterlimit="10" d="M415.348,210.5h-10.23
		c-6.458,0-11.692,5.235-11.692,11.692v14.615c0,6.458,5.234,11.692,11.692,11.692h10.23c6.458,0,11.692-5.235,11.692-11.692
		v-14.615C427.04,215.735,421.806,210.5,415.348,210.5z"/>
	<path fill="none" stroke="#000000" stroke-width="0.0283" stroke-miterlimit="10" d="M451.963,210.5h-10.23
		c-6.458,0-11.692,5.235-11.692,11.692v14.615c0,6.458,5.234,11.692,11.692,11.692h10.23c6.458,0,11.692-5.235,11.692-11.692
		v-14.615C463.655,215.735,458.421,210.5,451.963,210.5z"/>
	<path fill="none" stroke="#000000" stroke-width="0.0283" stroke-miterlimit="10" d="M489.54,210.5h-10.23
		c-6.457,0-11.692,5.235-11.692,11.692v14.615c0,6.458,5.235,11.692,11.692,11.692h10.23c6.457,0,11.692-5.235,11.692-11.692
		v-14.615C501.232,215.735,495.997,210.5,489.54,210.5z"/>
	<path fill="none" stroke="#000000" stroke-width="0.0283" stroke-miterlimit="10" d="M525.771,210.5h-10.23
		c-6.457,0-11.692,5.235-11.692,11.692v14.615c0,6.458,5.235,11.692,11.692,11.692h10.23c6.458,0,11.692-5.235,11.692-11.692
		v-14.615C537.463,215.735,532.229,210.5,525.771,210.5z"/>
	<path fill="none" stroke="#000000" stroke-width="0.0283" stroke-miterlimit="10" d="M563.348,210.5h-10.23
		c-6.457,0-11.692,5.235-11.692,11.692v14.615c0,6.458,5.235,11.692,11.692,11.692h10.23c6.457,0,11.692-5.235,11.692-11.692
		v-14.615C575.04,215.735,569.805,210.5,563.348,210.5z"/>
	<path fill="none" stroke="#000000" stroke-width="0.0283" stroke-miterlimit="10" d="M599.963,210.5h-10.23
		c-6.457,0-11.692,5.235-11.692,11.692v14.615c0,6.458,5.235,11.692,11.692,11.692h10.23c6.457,0,11.692-5.235,11.692-11.692
		v-14.615C611.655,215.735,606.42,210.5,599.963,210.5z"/>
	<path fill="none" stroke="#000000" stroke-width="0.0283" stroke-miterlimit="10" d="M81.542,252.564h-10.23
		c-6.458,0-11.692,5.235-11.692,11.692v14.615c0,6.458,5.235,11.693,11.692,11.693h10.23c6.458,0,11.692-5.235,11.692-11.693
		v-14.615C93.234,257.799,88,252.564,81.542,252.564z"/>
	<path fill="none" stroke="#000000" stroke-width="0.0283" stroke-miterlimit="10" d="M119.119,252.564h-10.23
		c-6.458,0-11.692,5.235-11.692,11.692v14.615c0,6.458,5.235,11.693,11.692,11.693h10.23c6.458,0,11.692-5.235,11.692-11.693
		v-14.615C130.812,257.799,125.577,252.564,119.119,252.564z"/>
	<path fill="none" stroke="#000000" stroke-width="0.0283" stroke-miterlimit="10" d="M155.734,252.564h-10.23
		c-6.458,0-11.692,5.235-11.692,11.692v14.615c0,6.458,5.235,11.693,11.692,11.693h10.23c6.458,0,11.692-5.235,11.692-11.693
		v-14.615C167.427,257.799,162.192,252.564,155.734,252.564z"/>
	<path fill="none" stroke="#000000" stroke-width="0.0283" stroke-miterlimit="10" d="M193.312,252.564h-10.23
		c-6.458,0-11.692,5.235-11.692,11.692v14.615c0,6.458,5.235,11.693,11.692,11.693h10.23c6.457,0,11.692-5.235,11.692-11.693
		v-14.615C205.004,257.799,199.769,252.564,193.312,252.564z"/>
	<path fill="none" stroke="#000000" stroke-width="0.0283" stroke-miterlimit="10" d="M229.542,252.564h-10.23
		c-6.458,0-11.692,5.235-11.692,11.692v14.615c0,6.458,5.235,11.693,11.692,11.693h10.23c6.458,0,11.692-5.235,11.692-11.693
		v-14.615C241.234,257.799,236,252.564,229.542,252.564z"/>
	<path fill="none" stroke="#000000" stroke-width="0.0283" stroke-miterlimit="10" d="M267.119,252.564h-10.23
		c-6.458,0-11.692,5.235-11.692,11.692v14.615c0,6.458,5.235,11.693,11.692,11.693h10.23c6.457,0,11.692-5.235,11.692-11.693
		v-14.615C278.812,257.799,273.576,252.564,267.119,252.564z"/>
	<path fill="none" stroke="#000000" stroke-width="0.0283" stroke-miterlimit="10" d="M303.734,252.564h-10.23
		c-6.457,0-11.692,5.235-11.692,11.692v14.615c0,6.458,5.235,11.693,11.692,11.693h10.23c6.457,0,11.692-5.235,11.692-11.693
		v-14.615C315.427,257.799,310.191,252.564,303.734,252.564z"/>
	<path fill="none" stroke="#000000" stroke-width="0.0283" stroke-miterlimit="10" d="M341.312,252.564h-10.23
		c-6.458,0-11.692,5.235-11.692,11.692v14.615c0,6.458,5.234,11.693,11.692,11.693h10.23c6.457,0,11.692-5.235,11.692-11.693
		v-14.615C353.004,257.799,347.769,252.564,341.312,252.564z"/>
	<path fill="none" stroke="#000000" stroke-width="0.0283" stroke-miterlimit="10" d="M378.312,252.564h-10.23
		c-6.457,0-11.692,5.235-11.692,11.692v14.615c0,6.458,5.235,11.693,11.692,11.693h10.23c6.457,0,11.692-5.235,11.692-11.693
		v-14.615C390.005,257.799,384.77,252.564,378.312,252.564z"/>
	<path fill="none" stroke="#000000" stroke-width="0.0283" stroke-miterlimit="10" d="M415.89,252.564h-10.23
		c-6.458,0-11.692,5.235-11.692,11.692v14.615c0,6.458,5.234,11.693,11.692,11.693h10.23c6.458,0,11.692-5.235,11.692-11.693
		v-14.615C427.582,257.799,422.348,252.564,415.89,252.564z"/>
	<path fill="none" stroke="#000000" stroke-width="0.0283" stroke-miterlimit="10" d="M452.505,252.564h-10.23
		c-6.458,0-11.692,5.235-11.692,11.692v14.615c0,6.458,5.234,11.693,11.692,11.693h10.23c6.458,0,11.692-5.235,11.692-11.693
		v-14.615C464.197,257.799,458.963,252.564,452.505,252.564z"/>
	<path fill="none" stroke="#000000" stroke-width="0.0283" stroke-miterlimit="10" d="M490.082,252.564h-10.23
		c-6.457,0-11.692,5.235-11.692,11.692v14.615c0,6.458,5.235,11.693,11.692,11.693h10.23c6.457,0,11.692-5.235,11.692-11.693
		v-14.615C501.774,257.799,496.539,252.564,490.082,252.564z"/>
	<path fill="none" stroke="#000000" stroke-width="0.0283" stroke-miterlimit="10" d="M526.312,252.564h-10.23
		c-6.457,0-11.692,5.235-11.692,11.692v14.615c0,6.458,5.235,11.693,11.692,11.693h10.23c6.458,0,11.692-5.235,11.692-11.693
		v-14.615C538.005,257.799,532.771,252.564,526.312,252.564z"/>
	<path fill="none" stroke="#000000" stroke-width="0.0283" stroke-miterlimit="10" d="M563.89,252.564h-10.23
		c-6.457,0-11.692,5.235-11.692,11.692v14.615c0,6.458,5.235,11.693,11.692,11.693h10.23c6.457,0,11.692-5.235,11.692-11.693
		v-14.615C575.582,257.799,570.347,252.564,563.89,252.564z"/>
	<path fill="none" stroke="#000000" stroke-width="0.0283" stroke-miterlimit="10" d="M600.505,252.564h-10.23
		c-6.457,0-11.692,5.235-11.692,11.692v14.615c0,6.458,5.235,11.693,11.692,11.693h10.23c6.457,0,11.692-5.235,11.692-11.693
		v-14.615C612.197,257.799,606.962,252.564,600.505,252.564z"/>
	<path fill="none" stroke="#000000" stroke-width="0.0283" stroke-miterlimit="10" d="M70.77,333H81
		c6.458,0,11.692-5.234,11.692-11.692v-14.615C92.692,300.234,87.458,295,81,295H70.77c-6.458,0-11.692,5.234-11.692,11.692v14.615
		C59.077,327.766,64.312,333,70.77,333z"/>
	<path fill="none" stroke="#000000" stroke-width="0.0283" stroke-miterlimit="10" d="M108.347,333h10.23
		c6.458,0,11.692-5.234,11.692-11.692v-14.615c0-6.458-5.235-11.692-11.692-11.692h-10.23c-6.458,0-11.692,5.234-11.692,11.692
		v14.615C96.654,327.766,101.889,333,108.347,333z"/>
	<path fill="none" stroke="#000000" stroke-width="0.0283" stroke-miterlimit="10" d="M144.962,333h10.23
		c6.458,0,11.692-5.234,11.692-11.692v-14.615c0-6.458-5.235-11.692-11.692-11.692h-10.23c-6.458,0-11.692,5.234-11.692,11.692
		v14.615C133.27,327.766,138.504,333,144.962,333z"/>
	<path fill="none" stroke="#000000" stroke-width="0.0283" stroke-miterlimit="10" d="M182.539,333h10.23
		c6.457,0,11.692-5.234,11.692-11.692v-14.615c0-6.458-5.235-11.692-11.692-11.692h-10.23c-6.458,0-11.692,5.234-11.692,11.692
		v14.615C170.847,327.766,176.082,333,182.539,333z"/>
	<path fill="none" stroke="#000000" stroke-width="0.0283" stroke-miterlimit="10" d="M218.77,333H229
		c6.458,0,11.692-5.234,11.692-11.692v-14.615c0-6.458-5.235-11.692-11.692-11.692h-10.23c-6.458,0-11.692,5.234-11.692,11.692
		v14.615C207.077,327.766,212.312,333,218.77,333z"/>
	<path fill="none" stroke="#000000" stroke-width="0.0283" stroke-miterlimit="10" d="M256.347,333h10.23
		c6.457,0,11.692-5.234,11.692-11.692v-14.615c0-6.458-5.235-11.692-11.692-11.692h-10.23c-6.458,0-11.692,5.234-11.692,11.692
		v14.615C244.654,327.766,249.889,333,256.347,333z"/>
	<path fill="none" stroke="#000000" stroke-width="0.0283" stroke-miterlimit="10" d="M292.962,333h10.23
		c6.457,0,11.692-5.234,11.692-11.692v-14.615c0-6.458-5.235-11.692-11.692-11.692h-10.23c-6.457,0-11.692,5.234-11.692,11.692
		v14.615C281.27,327.766,286.505,333,292.962,333z"/>
	<path fill="none" stroke="#000000" stroke-width="0.0283" stroke-miterlimit="10" d="M330.539,333h10.23
		c6.457,0,11.692-5.234,11.692-11.692v-14.615c0-6.458-5.235-11.692-11.692-11.692h-10.23c-6.458,0-11.692,5.234-11.692,11.692
		v14.615C318.847,327.766,324.081,333,330.539,333z"/>
	<path fill="none" stroke="#000000" stroke-width="0.0283" stroke-miterlimit="10" d="M367.54,333h10.23
		c6.457,0,11.692-5.234,11.692-11.692v-14.615c0-6.458-5.235-11.692-11.692-11.692h-10.23c-6.457,0-11.692,5.234-11.692,11.692
		v14.615C355.848,327.766,361.083,333,367.54,333z"/>
	<path fill="none" stroke="#000000" stroke-width="0.0283" stroke-miterlimit="10" d="M405.117,333h10.23
		c6.458,0,11.692-5.234,11.692-11.692v-14.615c0-6.458-5.234-11.692-11.692-11.692h-10.23c-6.458,0-11.692,5.234-11.692,11.692
		v14.615C393.425,327.766,398.659,333,405.117,333z"/>
	<path fill="none" stroke="#000000" stroke-width="0.0283" stroke-miterlimit="10" d="M441.732,333h10.23
		c6.458,0,11.692-5.234,11.692-11.692v-14.615c0-6.458-5.234-11.692-11.692-11.692h-10.23c-6.458,0-11.692,5.234-11.692,11.692
		v14.615C430.04,327.766,435.274,333,441.732,333z"/>
	<path fill="none" stroke="#000000" stroke-width="0.0283" stroke-miterlimit="10" d="M479.31,333h10.23
		c6.457,0,11.692-5.234,11.692-11.692v-14.615c0-6.458-5.235-11.692-11.692-11.692h-10.23c-6.457,0-11.692,5.234-11.692,11.692
		v14.615C467.617,327.766,472.853,333,479.31,333z"/>
	<path fill="none" stroke="#000000" stroke-width="0.0283" stroke-miterlimit="10" d="M515.54,333h10.23
		c6.458,0,11.692-5.234,11.692-11.692v-14.615c0-6.458-5.234-11.692-11.692-11.692h-10.23c-6.457,0-11.692,5.234-11.692,11.692
		v14.615C503.848,327.766,509.083,333,515.54,333z"/>
	<path fill="none" stroke="#000000" stroke-width="0.0283" stroke-miterlimit="10" d="M553.117,333h10.23
		c6.457,0,11.692-5.234,11.692-11.692v-14.615c0-6.458-5.235-11.692-11.692-11.692h-10.23c-6.457,0-11.692,5.234-11.692,11.692
		v14.615C541.425,327.766,546.66,333,553.117,333z"/>
	<path fill="none" stroke="#000000" stroke-width="0.0283" stroke-miterlimit="10" d="M589.732,333h10.23
		c6.457,0,11.692-5.234,11.692-11.692v-14.615c0-6.458-5.235-11.692-11.692-11.692h-10.23c-6.457,0-11.692,5.234-11.692,11.692
		v14.615C578.04,327.766,583.275,333,589.732,333z"/>
	<path fill="none" stroke="#000000" stroke-width="0.0283" stroke-miterlimit="10" d="M81.288,337.908h-10.23
		c-6.458,0-11.692,5.234-11.692,11.692v14.615c0,6.458,5.235,11.692,11.692,11.692h10.23c6.458,0,11.692-5.234,11.692-11.692
		v-14.615C92.98,343.143,87.746,337.908,81.288,337.908z"/>
	<path fill="none" stroke="#000000" stroke-width="0.0283" stroke-miterlimit="10" d="M118.865,337.908h-10.23
		c-6.458,0-11.692,5.234-11.692,11.692v14.615c0,6.458,5.235,11.692,11.692,11.692h10.23c6.458,0,11.692-5.234,11.692-11.692
		v-14.615C130.558,343.143,125.323,337.908,118.865,337.908z"/>
	<path fill="none" stroke="#000000" stroke-width="0.0283" stroke-miterlimit="10" d="M155.48,337.908h-10.23
		c-6.458,0-11.692,5.234-11.692,11.692v14.615c0,6.458,5.235,11.692,11.692,11.692h10.23c6.458,0,11.692-5.234,11.692-11.692
		v-14.615C167.173,343.143,161.938,337.908,155.48,337.908z"/>
	<path fill="none" stroke="#000000" stroke-width="0.0283" stroke-miterlimit="10" d="M193.058,337.908h-10.23
		c-6.458,0-11.692,5.234-11.692,11.692v14.615c0,6.458,5.235,11.692,11.692,11.692h10.23c6.457,0,11.692-5.234,11.692-11.692
		v-14.615C204.75,343.143,199.515,337.908,193.058,337.908z"/>
	<path fill="none" stroke="#000000" stroke-width="0.0283" stroke-miterlimit="10" d="M229.288,337.908h-10.23
		c-6.458,0-11.692,5.234-11.692,11.692v14.615c0,6.458,5.235,11.692,11.692,11.692h10.23c6.458,0,11.692-5.234,11.692-11.692
		v-14.615C240.98,343.143,235.746,337.908,229.288,337.908z"/>
	<path fill="none" stroke="#000000" stroke-width="0.0283" stroke-miterlimit="10" d="M266.865,337.908h-10.23
		c-6.458,0-11.692,5.234-11.692,11.692v14.615c0,6.458,5.235,11.692,11.692,11.692h10.23c6.457,0,11.692-5.234,11.692-11.692
		v-14.615C278.558,343.143,273.322,337.908,266.865,337.908z"/>
	<path fill="none" stroke="#000000" stroke-width="0.0283" stroke-miterlimit="10" d="M303.48,337.908h-10.23
		c-6.457,0-11.692,5.234-11.692,11.692v14.615c0,6.458,5.235,11.692,11.692,11.692h10.23c6.457,0,11.692-5.234,11.692-11.692
		v-14.615C315.173,343.143,309.938,337.908,303.48,337.908z"/>
	<path fill="none" stroke="#000000" stroke-width="0.0283" stroke-miterlimit="10" d="M341.058,337.908h-10.23
		c-6.458,0-11.692,5.234-11.692,11.692v14.615c0,6.458,5.234,11.692,11.692,11.692h10.23c6.457,0,11.692-5.234,11.692-11.692
		v-14.615C352.75,343.143,347.515,337.908,341.058,337.908z"/>
	<path fill="none" stroke="#000000" stroke-width="0.0283" stroke-miterlimit="10" d="M378.059,337.908h-10.23
		c-6.457,0-11.692,5.234-11.692,11.692v14.615c0,6.458,5.235,11.692,11.692,11.692h10.23c6.457,0,11.692-5.234,11.692-11.692
		v-14.615C389.751,343.143,384.516,337.908,378.059,337.908z"/>
	<path fill="none" stroke="#000000" stroke-width="0.0283" stroke-miterlimit="10" d="M415.636,337.908h-10.23
		c-6.458,0-11.692,5.234-11.692,11.692v14.615c0,6.458,5.234,11.692,11.692,11.692h10.23c6.458,0,11.692-5.234,11.692-11.692
		v-14.615C427.328,343.143,422.094,337.908,415.636,337.908z"/>
	<path fill="none" stroke="#000000" stroke-width="0.0283" stroke-miterlimit="10" d="M452.251,337.908h-10.23
		c-6.458,0-11.692,5.234-11.692,11.692v14.615c0,6.458,5.234,11.692,11.692,11.692h10.23c6.458,0,11.692-5.234,11.692-11.692
		v-14.615C463.943,343.143,458.709,337.908,452.251,337.908z"/>
	<path fill="none" stroke="#000000" stroke-width="0.0283" stroke-miterlimit="10" d="M489.828,337.908h-10.23
		c-6.457,0-11.692,5.234-11.692,11.692v14.615c0,6.458,5.235,11.692,11.692,11.692h10.23c6.457,0,11.692-5.234,11.692-11.692
		v-14.615C501.521,343.143,496.285,337.908,489.828,337.908z"/>
	<path fill="none" stroke="#000000" stroke-width="0.0283" stroke-miterlimit="10" d="M526.059,337.908h-10.23
		c-6.457,0-11.692,5.234-11.692,11.692v14.615c0,6.458,5.235,11.692,11.692,11.692h10.23c6.458,0,11.692-5.234,11.692-11.692
		v-14.615C537.751,343.143,532.517,337.908,526.059,337.908z"/>
	<path fill="none" stroke="#000000" stroke-width="0.0283" stroke-miterlimit="10" d="M563.636,337.908h-10.23
		c-6.457,0-11.692,5.234-11.692,11.692v14.615c0,6.458,5.235,11.692,11.692,11.692h10.23c6.457,0,11.692-5.234,11.692-11.692
		v-14.615C575.328,343.143,570.093,337.908,563.636,337.908z"/>
	<path fill="none" stroke="#000000" stroke-width="0.0283" stroke-miterlimit="10" d="M600.251,337.908h-10.23
		c-6.457,0-11.692,5.234-11.692,11.692v14.615c0,6.458,5.235,11.692,11.692,11.692h10.23c6.457,0,11.692-5.234,11.692-11.692
		v-14.615C611.943,343.143,606.708,337.908,600.251,337.908z"/>
	<path fill="none" stroke="#000000" stroke-width="0.0283" stroke-miterlimit="10" d="M81,380H70.77
		c-6.458,0-11.692,5.234-11.692,11.692v14.615c0,6.458,5.235,11.692,11.692,11.692H81c6.458,0,11.692-5.234,11.692-11.692v-14.615
		C92.692,385.234,87.458,380,81,380z"/>
	<path fill="none" stroke="#000000" stroke-width="0.0283" stroke-miterlimit="10" d="M118.577,380h-10.23
		c-6.458,0-11.692,5.234-11.692,11.692v14.615c0,6.458,5.235,11.692,11.692,11.692h10.23c6.458,0,11.692-5.234,11.692-11.692
		v-14.615C130.27,385.234,125.035,380,118.577,380z"/>
	<path fill="none" stroke="#000000" stroke-width="0.0283" stroke-miterlimit="10" d="M155.192,380h-10.23
		c-6.458,0-11.692,5.234-11.692,11.692v14.615c0,6.458,5.235,11.692,11.692,11.692h10.23c6.458,0,11.692-5.234,11.692-11.692
		v-14.615C166.885,385.234,161.65,380,155.192,380z"/>
	<path fill="none" stroke="#000000" stroke-width="0.0283" stroke-miterlimit="10" d="M192.77,380h-10.23
		c-6.458,0-11.692,5.234-11.692,11.692v14.615c0,6.458,5.235,11.692,11.692,11.692h10.23c6.457,0,11.692-5.234,11.692-11.692
		v-14.615C204.462,385.234,199.227,380,192.77,380z"/>
	<path fill="none" stroke="#000000" stroke-width="0.0283" stroke-miterlimit="10" d="M229,380h-10.23
		c-6.458,0-11.692,5.234-11.692,11.692v14.615c0,6.458,5.235,11.692,11.692,11.692H229c6.458,0,11.692-5.234,11.692-11.692v-14.615
		C240.692,385.234,235.458,380,229,380z"/>
	<path fill="none" stroke="#000000" stroke-width="0.0283" stroke-miterlimit="10" d="M266.577,380h-10.23
		c-6.458,0-11.692,5.234-11.692,11.692v14.615c0,6.458,5.235,11.692,11.692,11.692h10.23c6.457,0,11.692-5.234,11.692-11.692
		v-14.615C278.27,385.234,273.034,380,266.577,380z"/>
	<path fill="none" stroke="#000000" stroke-width="0.0283" stroke-miterlimit="10" d="M303.192,380h-10.23
		c-6.457,0-11.692,5.234-11.692,11.692v14.615c0,6.458,5.235,11.692,11.692,11.692h10.23c6.457,0,11.692-5.234,11.692-11.692
		v-14.615C314.885,385.234,309.649,380,303.192,380z"/>
	<path fill="none" stroke="#000000" stroke-width="0.0283" stroke-miterlimit="10" d="M340.77,380h-10.23
		c-6.458,0-11.692,5.234-11.692,11.692v14.615c0,6.458,5.234,11.692,11.692,11.692h10.23c6.457,0,11.692-5.234,11.692-11.692
		v-14.615C352.462,385.234,347.227,380,340.77,380z"/>
	<path fill="none" stroke="#000000" stroke-width="0.0283" stroke-miterlimit="10" d="M377.771,380h-10.23
		c-6.457,0-11.692,5.234-11.692,11.692v14.615c0,6.458,5.235,11.692,11.692,11.692h10.23c6.457,0,11.692-5.234,11.692-11.692
		v-14.615C389.463,385.234,384.228,380,377.771,380z"/>
	<path fill="none" stroke="#000000" stroke-width="0.0283" stroke-miterlimit="10" d="M415.348,380h-10.23
		c-6.458,0-11.692,5.234-11.692,11.692v14.615c0,6.458,5.234,11.692,11.692,11.692h10.23c6.458,0,11.692-5.234,11.692-11.692
		v-14.615C427.04,385.234,421.806,380,415.348,380z"/>
	<path fill="none" stroke="#000000" stroke-width="0.0283" stroke-miterlimit="10" d="M451.963,380h-10.23
		c-6.458,0-11.692,5.234-11.692,11.692v14.615c0,6.458,5.234,11.692,11.692,11.692h10.23c6.458,0,11.692-5.234,11.692-11.692
		v-14.615C463.655,385.234,458.421,380,451.963,380z"/>
	<path fill="none" stroke="#000000" stroke-width="0.0283" stroke-miterlimit="10" d="M489.54,380h-10.23
		c-6.457,0-11.692,5.234-11.692,11.692v14.615c0,6.458,5.235,11.692,11.692,11.692h10.23c6.457,0,11.692-5.234,11.692-11.692
		v-14.615C501.232,385.234,495.997,380,489.54,380z"/>
	<path fill="none" stroke="#000000" stroke-width="0.0283" stroke-miterlimit="10" d="M525.771,380h-10.23
		c-6.457,0-11.692,5.234-11.692,11.692v14.615c0,6.458,5.235,11.692,11.692,11.692h10.23c6.458,0,11.692-5.234,11.692-11.692
		v-14.615C537.463,385.234,532.229,380,525.771,380z"/>
	<path fill="none" stroke="#000000" stroke-width="0.0283" stroke-miterlimit="10" d="M563.348,380h-10.23
		c-6.457,0-11.692,5.234-11.692,11.692v14.615c0,6.458,5.235,11.692,11.692,11.692h10.23c6.457,0,11.692-5.234,11.692-11.692
		v-14.615C575.04,385.234,569.805,380,563.348,380z"/>
	<path fill="none" stroke="#000000" stroke-width="0.0283" stroke-miterlimit="10" d="M599.963,380h-10.23
		c-6.457,0-11.692,5.234-11.692,11.692v14.615c0,6.458,5.235,11.692,11.692,11.692h10.23c6.457,0,11.692-5.234,11.692-11.692
		v-14.615C611.655,385.234,606.42,380,599.963,380z"/>
	<path fill="none" stroke="#000000" stroke-width="0.0283" stroke-miterlimit="10" d="M81,422H70.77
		c-6.458,0-11.692,5.234-11.692,11.692v14.615c0,6.458,5.235,11.692,11.692,11.692H81c6.458,0,11.692-5.234,11.692-11.692v-14.615
		C92.692,427.234,87.458,422,81,422z"/>
	<path fill="none" stroke="#000000" stroke-width="0.0283" stroke-miterlimit="10" d="M118.577,422h-10.23
		c-6.458,0-11.692,5.234-11.692,11.692v14.615c0,6.458,5.235,11.692,11.692,11.692h10.23c6.458,0,11.692-5.234,11.692-11.692
		v-14.615C130.27,427.234,125.035,422,118.577,422z"/>
	<path fill="none" stroke="#000000" stroke-width="0.0283" stroke-miterlimit="10" d="M155.192,422h-10.23
		c-6.458,0-11.692,5.234-11.692,11.692v14.615c0,6.458,5.235,11.692,11.692,11.692h10.23c6.458,0,11.692-5.234,11.692-11.692
		v-14.615C166.885,427.234,161.65,422,155.192,422z"/>
	<path fill="none" stroke="#000000" stroke-width="0.0283" stroke-miterlimit="10" d="M192.77,422h-10.23
		c-6.458,0-11.692,5.234-11.692,11.692v14.615c0,6.458,5.235,11.692,11.692,11.692h10.23c6.457,0,11.692-5.234,11.692-11.692
		v-14.615C204.462,427.234,199.227,422,192.77,422z"/>
	<path fill="none" stroke="#000000" stroke-width="0.0283" stroke-miterlimit="10" d="M229,422h-10.23
		c-6.458,0-11.692,5.234-11.692,11.692v14.615c0,6.458,5.235,11.692,11.692,11.692H229c6.458,0,11.692-5.234,11.692-11.692v-14.615
		C240.692,427.234,235.458,422,229,422z"/>
	<path fill="none" stroke="#000000" stroke-width="0.0283" stroke-miterlimit="10" d="M266.577,422h-10.23
		c-6.458,0-11.692,5.234-11.692,11.692v14.615c0,6.458,5.235,11.692,11.692,11.692h10.23c6.457,0,11.692-5.234,11.692-11.692
		v-14.615C278.27,427.234,273.034,422,266.577,422z"/>
	<path fill="none" stroke="#000000" stroke-width="0.0283" stroke-miterlimit="10" d="M303.192,422h-10.23
		c-6.457,0-11.692,5.234-11.692,11.692v14.615c0,6.458,5.235,11.692,11.692,11.692h10.23c6.457,0,11.692-5.234,11.692-11.692
		v-14.615C314.885,427.234,309.649,422,303.192,422z"/>
	<path fill="none" stroke="#000000" stroke-width="0.0283" stroke-miterlimit="10" d="M340.77,422h-10.23
		c-6.458,0-11.692,5.234-11.692,11.692v14.615c0,6.458,5.234,11.692,11.692,11.692h10.23c6.457,0,11.692-5.234,11.692-11.692
		v-14.615C352.462,427.234,347.227,422,340.77,422z"/>
	<path fill="none" stroke="#000000" stroke-width="0.0283" stroke-miterlimit="10" d="M377.771,422h-10.23
		c-6.457,0-11.692,5.234-11.692,11.692v14.615c0,6.458,5.235,11.692,11.692,11.692h10.23c6.457,0,11.692-5.234,11.692-11.692
		v-14.615C389.463,427.234,384.228,422,377.771,422z"/>
	<path fill="none" stroke="#000000" stroke-width="0.0283" stroke-miterlimit="10" d="M415.348,422h-10.23
		c-6.458,0-11.692,5.234-11.692,11.692v14.615c0,6.458,5.234,11.692,11.692,11.692h10.23c6.458,0,11.692-5.234,11.692-11.692
		v-14.615C427.04,427.234,421.806,422,415.348,422z"/>
	<path fill="none" stroke="#000000" stroke-width="0.0283" stroke-miterlimit="10" d="M451.963,422h-10.23
		c-6.458,0-11.692,5.234-11.692,11.692v14.615c0,6.458,5.234,11.692,11.692,11.692h10.23c6.458,0,11.692-5.234,11.692-11.692
		v-14.615C463.655,427.234,458.421,422,451.963,422z"/>
	<path fill="none" stroke="#000000" stroke-width="0.0283" stroke-miterlimit="10" d="M489.54,422h-10.23
		c-6.457,0-11.692,5.234-11.692,11.692v14.615c0,6.458,5.235,11.692,11.692,11.692h10.23c6.457,0,11.692-5.234,11.692-11.692
		v-14.615C501.232,427.234,495.997,422,489.54,422z"/>
	<path fill="none" stroke="#000000" stroke-width="0.0283" stroke-miterlimit="10" d="M525.771,422h-10.23
		c-6.457,0-11.692,5.234-11.692,11.692v14.615c0,6.458,5.235,11.692,11.692,11.692h10.23c6.458,0,11.692-5.234,11.692-11.692
		v-14.615C537.463,427.234,532.229,422,525.771,422z"/>
	<path fill="none" stroke="#000000" stroke-width="0.0283" stroke-miterlimit="10" d="M563.348,422h-10.23
		c-6.457,0-11.692,5.234-11.692,11.692v14.615c0,6.458,5.235,11.692,11.692,11.692h10.23c6.457,0,11.692-5.234,11.692-11.692
		v-14.615C575.04,427.234,569.805,422,563.348,422z"/>
	<path fill="none" stroke="#000000" stroke-width="0.0283" stroke-miterlimit="10" d="M599.963,422h-10.23
		c-6.457,0-11.692,5.234-11.692,11.692v14.615c0,6.458,5.235,11.692,11.692,11.692h10.23c6.457,0,11.692-5.234,11.692-11.692
		v-14.615C611.655,427.234,606.42,422,599.963,422z"/>
	<path fill="none" stroke="#000000" stroke-width="0.0283" stroke-miterlimit="10" d="M611.943,106V93c0-6.627-5.373-12-12-12
		H71.619c-6.627,0-12,5.373-12,12v13c0,6.627,5.373,12,12,12h528.324C606.57,118,611.943,112.627,611.943,106z"/>
	<path fill="none" stroke="#000000" stroke-width="0.0283" stroke-miterlimit="10" d="M462.25,77h141.343
		c6.214,0,11.25-5.037,11.25-11.25s-5.036-11.25-11.25-11.25H462.25c-6.213,0-11.25,5.037-11.25,11.25S456.037,77,462.25,77z"/>
	<path fill="none" stroke="#000000" stroke-width="0.0283" stroke-miterlimit="10" d="M70.75,77h44.5
		c6.213,0,11.25-5.037,11.25-11.25s-5.037-11.25-11.25-11.25h-44.5c-6.213,0-11.25,5.037-11.25,11.25S64.537,77,70.75,77z"/>
</g>
</svg>
