<?xml version="1.0" encoding="UTF-8" standalone="no"?>
<!-- Generator: Adobe Illustrator 15.0.2, SVG Export Plug-In . SVG Version: 6.00 Build 0)  -->

<svg
   xmlns:dc="http://purl.org/dc/elements/1.1/"
   xmlns:cc="http://creativecommons.org/ns#"
   xmlns:rdf="http://www.w3.org/1999/02/22-rdf-syntax-ns#"
   xmlns:svg="http://www.w3.org/2000/svg"
   xmlns="http://www.w3.org/2000/svg"
   xmlns:sodipodi="http://sodipodi.sourceforge.net/DTD/sodipodi-0.dtd"
   xmlns:inkscape="http://www.inkscape.org/namespaces/inkscape"
   version="1.1"
   id="Layer_1"
   x="0px"
   y="0px"
   width="545.625"
   height="410.15622"
   viewBox="0 0 545.62498 410.15624"
   enable-background="new 0 0 674.65 515.91"
   xml:space="preserve"
   inkscape:version="0.48.2 r9819"
   sodipodi:docname="SymbolTalkerB.svg"><metadata
   id="metadata75"><rdf:RDF><cc:Work
       rdf:about=""><dc:format>image/svg+xml</dc:format><dc:type
         rdf:resource="http://purl.org/dc/dcmitype/StillImage" /></cc:Work></rdf:RDF></metadata><defs
   id="defs73" /><sodipodi:namedview
   pagecolor="#ffffff"
   bordercolor="#666666"
   borderopacity="1"
   objecttolerance="10"
   gridtolerance="10"
   guidetolerance="10"
   inkscape:pageopacity="0"
   inkscape:pageshadow="2"
   inkscape:window-width="640"
   inkscape:window-height="480"
   id="namedview71"
   showgrid="false"
   fit-margin-top="0"
   fit-margin-left="0"
   fit-margin-right="0"
   fit-margin-bottom="0"
   inkscape:zoom="0.45744415"
   inkscape:cx="272.38749"
   inkscape:cy="205.60749"
   inkscape:window-x="0"
   inkscape:window-y="22"
   inkscape:window-maximized="0"
   inkscape:current-layer="Layer_1" />
<g
   id="g3"
   transform="translate(-64.93753,-53.40625)">
	<path
   stroke-miterlimit="10"
   d="m 156,213 h 46 c 6.627,0 12,-5.373 12,-12 v -53 c 0,-6.627 -5.373,-12 -12,-12 h -46 c -6.627,0 -12,5.373 -12,12 v 53 c 0,6.627 5.373,12 12,12 z"
   id="path5"
   inkscape:connector-curvature="0"
   style="fill:none;stroke:#000000;stroke-width:0.0283;stroke-miterlimit:10" />
	<path
   stroke-miterlimit="10"
   d="m 77,213 h 46 c 6.627,0 12,-5.373 12,-12 v -53 c 0,-6.627 -5.373,-12 -12,-12 H 77 c -6.627,0 -12,5.373 -12,12 v 53 c 0,6.627 5.373,12 12,12 z"
   id="path7"
   inkscape:connector-curvature="0"
   style="fill:none;stroke:#000000;stroke-width:0.0283;stroke-miterlimit:10" />
	<path
   stroke-miterlimit="10"
   d="m 314,213 h 46 c 6.627,0 12,-5.373 12,-12 v -53 c 0,-6.627 -5.373,-12 -12,-12 h -46 c -6.627,0 -12,5.373 -12,12 v 53 c 0,6.627 5.373,12 12,12 z"
   id="path9"
   inkscape:connector-curvature="0"
   style="fill:none;stroke:#000000;stroke-width:0.0283;stroke-miterlimit:10" />
	<path
   stroke-miterlimit="10"
   d="m 235,213 h 46 c 6.627,0 12,-5.373 12,-12 v -53 c 0,-6.627 -5.373,-12 -12,-12 h -46 c -6.627,0 -12,5.373 -12,12 v 53 c 0,6.627 5.373,12 12,12 z"
   id="path11"
   inkscape:connector-curvature="0"
   style="fill:none;stroke:#000000;stroke-width:0.0283;stroke-miterlimit:10" />
	<path
   stroke-miterlimit="10"
   d="m 393,213 h 46 c 6.627,0 12,-5.373 12,-12 v -53 c 0,-6.627 -5.373,-12 -12,-12 h -46 c -6.627,0 -12,5.373 -12,12 v 53 c 0,6.627 5.373,12 12,12 z"
   id="path13"
   inkscape:connector-curvature="0"
   style="fill:none;stroke:#000000;stroke-width:0.0283;stroke-miterlimit:10" />
	<path
   stroke-miterlimit="10"
   d="m 471,213 h 46 c 6.627,0 12,-5.373 12,-12 v -53 c 0,-6.627 -5.373,-12 -12,-12 h -46 c -6.627,0 -12,5.373 -12,12 v 53 c 0,6.627 5.373,12 12,12 z"
   id="path15"
   inkscape:connector-curvature="0"
   style="fill:none;stroke:#000000;stroke-width:0.0283;stroke-miterlimit:10" />
	<path
   stroke-miterlimit="10"
   d="m 598,136 h -46 c -6.627,0 -12,5.373 -12,12 v 53 c 0,6.627 5.373,12 12,12 h 46 c 6.627,0 12,-5.373 12,-12 v -53 c 0,-6.627 -5.373,-12 -12,-12 z"
   id="path17"
   inkscape:connector-curvature="0"
   style="fill:none;stroke:#000000;stroke-width:0.0283;stroke-miterlimit:10" />
	<path
   stroke-miterlimit="10"
   d="m 282,219.06 h -46 c -6.627,0 -12,5.373 -12,12 v 53 c 0,6.627 5.373,12 12,12 h 46 c 6.627,0 12,-5.373 12,-12 v -53 c 0,-6.627 -5.373,-12 -12,-12 z"
   id="path19"
   inkscape:connector-curvature="0"
   style="fill:none;stroke:#000000;stroke-width:0.0283;stroke-miterlimit:10" />
	<path
   stroke-miterlimit="10"
   d="m 203,219.06 h -46 c -6.627,0 -12,5.373 -12,12 v 53 c 0,6.627 5.373,12 12,12 h 46 c 6.627,0 12,-5.373 12,-12 v -53 c 0,-6.627 -5.373,-12 -12,-12 z"
   id="path21"
   inkscape:connector-curvature="0"
   style="fill:none;stroke:#000000;stroke-width:0.0283;stroke-miterlimit:10" />
	<path
   stroke-miterlimit="10"
   d="m 440,219.06 h -46 c -6.627,0 -12,5.373 -12,12 v 53 c 0,6.627 5.373,12 12,12 h 46 c 6.627,0 12,-5.373 12,-12 v -53 c 0,-6.627 -5.373,-12 -12,-12 z"
   id="path23"
   inkscape:connector-curvature="0"
   style="fill:none;stroke:#000000;stroke-width:0.0283;stroke-miterlimit:10" />
	<path
   stroke-miterlimit="10"
   d="m 361,219.06 h -46 c -6.627,0 -12,5.373 -12,12 v 53 c 0,6.627 5.373,12 12,12 h 46 c 6.627,0 12,-5.373 12,-12 v -53 c 0,-6.627 -5.373,-12 -12,-12 z"
   id="path25"
   inkscape:connector-curvature="0"
   style="fill:none;stroke:#000000;stroke-width:0.0283;stroke-miterlimit:10" />
	<path
   stroke-miterlimit="10"
   d="m 519,219.06 h -46 c -6.627,0 -12,5.373 -12,12 v 53 c 0,6.627 5.373,12 12,12 h 46 c 6.627,0 12,-5.373 12,-12 v -53 c 0,-6.627 -5.373,-12 -12,-12 z"
   id="path27"
   inkscape:connector-curvature="0"
   style="fill:none;stroke:#000000;stroke-width:0.0283;stroke-miterlimit:10" />
	<path
   stroke-miterlimit="10"
   d="m 551,296.061 h 46 c 6.627,0 12,-5.373 12,-12 v -53 c 0,-6.627 -5.373,-12 -12,-12 h -46 c -6.627,0 -12,5.373 -12,12 v 53 c 0,6.627 5.373,12 12,12 z"
   id="path29"
   inkscape:connector-curvature="0"
   style="fill:none;stroke:#000000;stroke-width:0.0283;stroke-miterlimit:10" />
	<path
   stroke-miterlimit="10"
   d="m 77,297.037 h 46 c 6.627,0 12,-5.373 12,-12 v -53 c 0,-6.627 -5.373,-12 -12,-12 H 77 c -6.627,0 -12,5.373 -12,12 v 53 c 0,6.627 5.373,12 12,12 z"
   id="path31"
   inkscape:connector-curvature="0"
   style="fill:none;stroke:#000000;stroke-width:0.0283;stroke-miterlimit:10" />
	<path
   stroke-miterlimit="10"
   d="m 156.5,379.463 h 46 c 6.627,0 12,-5.373 12,-12 v -53 c 0,-6.627 -5.373,-12 -12,-12 h -46 c -6.627,0 -12,5.373 -12,12 v 53 c 0,6.627 5.373,12 12,12 z"
   id="path33"
   inkscape:connector-curvature="0"
   style="fill:none;stroke:#000000;stroke-width:0.0283;stroke-miterlimit:10" />
	<path
   stroke-miterlimit="10"
   d="m 123.5,302.463 h -46 c -6.627,0 -12,5.373 -12,12 v 53 c 0,6.627 5.373,12 12,12 h 46 c 6.627,0 12,-5.373 12,-12 v -53 c 0,-6.627 -5.373,-12 -12,-12 z"
   id="path35"
   inkscape:connector-curvature="0"
   style="fill:none;stroke:#000000;stroke-width:0.0283;stroke-miterlimit:10" />
	<path
   stroke-miterlimit="10"
   d="m 314.5,379.463 h 46 c 6.627,0 12,-5.373 12,-12 v -53 c 0,-6.627 -5.373,-12 -12,-12 h -46 c -6.627,0 -12,5.373 -12,12 v 53 c 0,6.627 5.373,12 12,12 z"
   id="path37"
   inkscape:connector-curvature="0"
   style="fill:none;stroke:#000000;stroke-width:0.0283;stroke-miterlimit:10" />
	<path
   stroke-miterlimit="10"
   d="m 235.5,379.463 h 46 c 6.627,0 12,-5.373 12,-12 v -53 c 0,-6.627 -5.373,-12 -12,-12 h -46 c -6.627,0 -12,5.373 -12,12 v 53 c 0,6.627 5.373,12 12,12 z"
   id="path39"
   inkscape:connector-curvature="0"
   style="fill:none;stroke:#000000;stroke-width:0.0283;stroke-miterlimit:10" />
	<path
   stroke-miterlimit="10"
   d="m 393.5,379.463 h 46 c 6.627,0 12,-5.373 12,-12 v -53 c 0,-6.627 -5.373,-12 -12,-12 h -46 c -6.627,0 -12,5.373 -12,12 v 53 c 0,6.627 5.373,12 12,12 z"
   id="path41"
   inkscape:connector-curvature="0"
   style="fill:none;stroke:#000000;stroke-width:0.0283;stroke-miterlimit:10" />
	<path
   stroke-miterlimit="10"
   d="m 471.5,379.463 h 46 c 6.627,0 12,-5.373 12,-12 v -53 c 0,-6.627 -5.373,-12 -12,-12 h -46 c -6.627,0 -12,5.373 -12,12 v 53 c 0,6.627 5.373,12 12,12 z"
   id="path43"
   inkscape:connector-curvature="0"
   style="fill:none;stroke:#000000;stroke-width:0.0283;stroke-miterlimit:10" />
	<path
   stroke-miterlimit="10"
   d="m 598.5,302.463 h -46 c -6.627,0 -12,5.373 -12,12 v 53 c 0,6.627 5.373,12 12,12 h 46 c 6.627,0 12,-5.373 12,-12 v -53 c 0,-6.627 -5.373,-12 -12,-12 z"
   id="path45"
   inkscape:connector-curvature="0"
   style="fill:none;stroke:#000000;stroke-width:0.0283;stroke-miterlimit:10" />
	<path
   stroke-miterlimit="10"
   d="m 282.5,385.523 h -46 c -6.627,0 -12,5.372 -12,12 v 53 c 0,6.627 5.373,12 12,12 h 46 c 6.627,0 12,-5.373 12,-12 v -53 c 0,-6.627 -5.373,-12 -12,-12 z"
   id="path47"
   inkscape:connector-curvature="0"
   style="fill:none;stroke:#000000;stroke-width:0.0283;stroke-miterlimit:10" />
	<path
   stroke-miterlimit="10"
   d="m 203.5,385.523 h -46 c -6.627,0 -12,5.372 -12,12 v 53 c 0,6.627 5.373,12 12,12 h 46 c 6.627,0 12,-5.373 12,-12 v -53 c 0,-6.627 -5.373,-12 -12,-12 z"
   id="path49"
   inkscape:connector-curvature="0"
   style="fill:none;stroke:#000000;stroke-width:0.0283;stroke-miterlimit:10" />
	<path
   stroke-miterlimit="10"
   d="m 440.5,385.523 h -46 c -6.627,0 -12,5.372 -12,12 v 53 c 0,6.627 5.373,12 12,12 h 46 c 6.627,0 12,-5.373 12,-12 v -53 c 0,-6.627 -5.373,-12 -12,-12 z"
   id="path51"
   inkscape:connector-curvature="0"
   style="fill:none;stroke:#000000;stroke-width:0.0283;stroke-miterlimit:10" />
	<path
   stroke-miterlimit="10"
   d="m 361.5,385.523 h -46 c -6.627,0 -12,5.372 -12,12 v 53 c 0,6.627 5.373,12 12,12 h 46 c 6.627,0 12,-5.373 12,-12 v -53 c 0,-6.627 -5.373,-12 -12,-12 z"
   id="path53"
   inkscape:connector-curvature="0"
   style="fill:none;stroke:#000000;stroke-width:0.0283;stroke-miterlimit:10" />
	<path
   stroke-miterlimit="10"
   d="m 519.5,385.523 h -46 c -6.627,0 -12,5.372 -12,12 v 53 c 0,6.627 5.373,12 12,12 h 46 c 6.627,0 12,-5.373 12,-12 v -53 c 0,-6.627 -5.373,-12 -12,-12 z"
   id="path55"
   inkscape:connector-curvature="0"
   style="fill:none;stroke:#000000;stroke-width:0.0283;stroke-miterlimit:10" />
	<path
   stroke-miterlimit="10"
   d="m 597.5,385.523 h -46 c -6.627,0 -12,5.372 -12,12 v 53 c 0,6.627 5.373,12 12,12 h 46 c 6.627,0 12,-5.373 12,-12 v -53 c 0,-6.627 -5.373,-12 -12,-12 z"
   id="path57"
   inkscape:connector-curvature="0"
   style="fill:none;stroke:#000000;stroke-width:0.0283;stroke-miterlimit:10" />
	<path
   stroke-miterlimit="10"
   d="m 123.5,386.5 h -46 c -6.627,0 -12,5.373 -12,12 v 53 c 0,6.627 5.373,12 12,12 h 46 c 6.627,0 12,-5.373 12,-12 v -53 c 0,-6.627 -5.373,-12 -12,-12 z"
   id="path59"
   inkscape:connector-curvature="0"
   style="fill:none;stroke:#000000;stroke-width:0.0283;stroke-miterlimit:10" />
	<path
   stroke-miterlimit="10"
   d="m 157,130.462 h 46 c 6.627,0 12,-5.373 12,-12 v -53 c 0,-6.627 -5.373,-12 -12,-12 h -46 c -6.627,0 -12,5.373 -12,12 v 53 c 0,6.627 5.373,12 12,12 z"
   id="path61"
   inkscape:connector-curvature="0"
   style="fill:none;stroke:#000000;stroke-width:0.0283;stroke-miterlimit:10" />
	<path
   stroke-miterlimit="10"
   d="M 124,53.462 H 78 c -6.627,0 -12,5.373 -12,12 v 53 c 0,6.627 5.373,12 12,12 h 46 c 6.627,0 12,-5.373 12,-12 v -53 c 0,-6.627 -5.373,-12 -12,-12 z"
   id="path63"
   inkscape:connector-curvature="0"
   style="fill:none;stroke:#000000;stroke-width:0.0283;stroke-miterlimit:10" />
	<path
   stroke-miterlimit="10"
   d="m 551.5,131.375 h 46 c 6.627,0 12,-5.373 12,-12 v -53 c 0,-6.627 -5.373,-12 -12,-12 h -46 c -6.627,0 -12,5.373 -12,12 v 53 c 0,6.627 5.373,12 12,12 z"
   id="path65"
   inkscape:connector-curvature="0"
   style="fill:none;stroke:#000000;stroke-width:0.0283;stroke-miterlimit:10" />
	<path
   stroke-miterlimit="10"
   d="m 472.5,131.375 h 46 c 6.627,0 12,-5.373 12,-12 v -53 c 0,-6.627 -5.373,-12 -12,-12 h -46 c -6.627,0 -12,5.373 -12,12 v 53 c 0,6.627 5.373,12 12,12 z"
   id="path67"
   inkscape:connector-curvature="0"
   style="fill:none;stroke:#000000;stroke-width:0.0283;stroke-miterlimit:10" />
	<path
   stroke-miterlimit="10"
   d="m 235,130.462 h 204 c 6.627,0 12,-5.373 12,-12 V 66.375 c 0,-6.627 -5.373,-12 -12,-12 H 235 c -6.627,0 -12,5.373 -12,12 v 52.087 c 0,6.628 5.373,12 12,12 z"
   id="path69"
   inkscape:connector-curvature="0"
   style="fill:none;stroke:#000000;stroke-width:0.0283;stroke-miterlimit:10" />
</g>
</svg>