<?xml version="1.0" encoding="UTF-8" standalone="no"?>
<!-- Generator: Adobe Illustrator 15.0.2, SVG Export Plug-In . SVG Version: 6.00 Build 0)  -->

<svg
   xmlns:dc="http://purl.org/dc/elements/1.1/"
   xmlns:cc="http://creativecommons.org/ns#"
   xmlns:rdf="http://www.w3.org/1999/02/22-rdf-syntax-ns#"
   xmlns:svg="http://www.w3.org/2000/svg"
   xmlns="http://www.w3.org/2000/svg"
   xmlns:sodipodi="http://sodipodi.sourceforge.net/DTD/sodipodi-0.dtd"
   xmlns:inkscape="http://www.inkscape.org/namespaces/inkscape"
   version="1.1"
   id="Layer_1"
   x="0px"
   y="0px"
   width="547.1875"
   height="405.68747"
   viewBox="0 0 547.18748 405.68749"
   enable-background="new 0 0 674.65 515.91"
   xml:space="preserve"
   inkscape:version="0.48.2 r9819"
   sodipodi:docname="SymbolTalkerA.svg"><metadata
   id="metadata53"><rdf:RDF><cc:Work
       rdf:about=""><dc:format>image/svg+xml</dc:format><dc:type
         rdf:resource="http://purl.org/dc/dcmitype/StillImage" /></cc:Work></rdf:RDF></metadata><defs
   id="defs51" /><sodipodi:namedview
   pagecolor="#ffffff"
   bordercolor="#666666"
   borderopacity="1"
   objecttolerance="10"
   gridtolerance="10"
   guidetolerance="10"
   inkscape:pageopacity="0"
   inkscape:pageshadow="2"
   inkscape:window-width="640"
   inkscape:window-height="480"
   id="namedview49"
   showgrid="false"
   fit-margin-top="0"
   fit-margin-left="0"
   fit-margin-right="0"
   fit-margin-bottom="0"
   inkscape:zoom="0.45744415"
   inkscape:cx="453.71612"
   inkscape:cy="178.18613"
   inkscape:window-x="0"
   inkscape:window-y="22"
   inkscape:window-maximized="0"
   inkscape:current-layer="Layer_1" />
<g
   id="g3"
   transform="translate(-63.53128,-54.9375)">
	<path
   stroke-miterlimit="10"
   d="m 426,67 c 0,-6.627 -5.373,-12 -12,-12 H 168 c -6.627,0 -12,5.373 -12,12 v 72 c 0,6.627 5.373,12 12,12 h 246 c 6.627,0 12,-5.373 12,-12 V 67 z"
   id="path5"
   inkscape:connector-curvature="0"
   style="fill:none;stroke:#000000;stroke-width:0.0283;stroke-miterlimit:10" />
	<path
   stroke-miterlimit="10"
   d="M 137,159 H 76 c -6.627,0 -12,5.373 -12,12 v 71 c 0,6.627 5.373,12 12,12 h 61 c 6.627,0 12,-5.373 12,-12 v -71 c 0,-6.627 -5.373,-12 -12,-12 z"
   id="path7"
   inkscape:connector-curvature="0"
   style="fill:none;stroke:#000000;stroke-width:0.0283;stroke-miterlimit:10" />
	<path
   stroke-miterlimit="10"
   d="m 168,159 c -6.627,0 -12,5.373 -12,12 v 71 c 0,6.627 5.373,12 12,12 h 61 c 6.627,0 12,-5.373 12,-12 v -71 c 0,-6.627 -5.373,-12 -12,-12 h -61 z"
   id="path9"
   inkscape:connector-curvature="0"
   style="fill:none;stroke:#000000;stroke-width:0.0283;stroke-miterlimit:10" />
	<path
   stroke-miterlimit="10"
   d="m 260.5,159 c -6.627,0 -12,5.373 -12,12 v 71 c 0,6.627 5.373,12 12,12 h 61 c 6.627,0 12,-5.373 12,-12 v -71 c 0,-6.627 -5.373,-12 -12,-12 h -61 z"
   id="path11"
   inkscape:connector-curvature="0"
   style="fill:none;stroke:#000000;stroke-width:0.0283;stroke-miterlimit:10" />
	<path
   stroke-miterlimit="10"
   d="m 413.325,159 h -61 c -6.627,0 -12,5.373 -12,12 v 71 c 0,6.627 5.373,12 12,12 h 61 c 6.627,0 12,-5.373 12,-12 v -71 c 0,-6.627 -5.373,-12 -12,-12 z"
   id="path13"
   inkscape:connector-curvature="0"
   style="fill:none;stroke:#000000;stroke-width:0.0283;stroke-miterlimit:10" />
	<path
   stroke-miterlimit="10"
   d="m 445,254 h 61 c 6.627,0 12,-5.373 12,-12 v -71 c 0,-6.627 -5.373,-12 -12,-12 h -61 c -6.627,0 -12,5.373 -12,12 v 71 c 0,6.627 5.373,12 12,12 z"
   id="path15"
   inkscape:connector-curvature="0"
   style="fill:none;stroke:#000000;stroke-width:0.0283;stroke-miterlimit:10" />
	<path
   stroke-miterlimit="10"
   d="m 524.5,243 c 0,6.627 5.373,12 12,12 h 61 c 6.627,0 12,-5.373 12,-12 v -71 c 0,-6.627 -5.373,-12 -12,-12 h -61 c -6.627,0 -12,5.373 -12,12 v 71 z"
   id="path17"
   inkscape:connector-curvature="0"
   style="fill:none;stroke:#000000;stroke-width:0.0283;stroke-miterlimit:10" />
	<path
   stroke-miterlimit="10"
   d="m 75.576,151 h 61 c 6.627,0 12,-5.373 12,-12 V 67 c 0,-6.627 -5.373,-12 -12,-12 h -61 c -6.627,0 -12,5.373 -12,12 v 72 c 0,6.627 5.373,12 12,12 z"
   id="path19"
   inkscape:connector-curvature="0"
   style="fill:none;stroke:#000000;stroke-width:0.0283;stroke-miterlimit:10" />
	<path
   stroke-miterlimit="10"
   d="M 507.75,55 H 445 c -6.627,0 -12,5.373 -12,12 v 72 c 0,6.627 5.373,12 12,12 h 62.75 c 6.627,0 12,-5.373 12,-12 V 67 c 0,-6.627 -5.373,-12 -12,-12 z"
   id="path21"
   inkscape:connector-curvature="0"
   style="fill:none;stroke:#000000;stroke-width:0.0283;stroke-miterlimit:10" />
	<path
   stroke-miterlimit="10"
   d="m 538.25,151 h 58.826 c 6.627,0 12,-5.373 12,-12 V 67 c 0,-6.627 -5.373,-12 -12,-12 H 538.25 c -6.627,0 -12,5.373 -12,12 v 72 c 0,6.627 5.373,12 12,12 z"
   id="path23"
   inkscape:connector-curvature="0"
   style="fill:none;stroke:#000000;stroke-width:0.0283;stroke-miterlimit:10" />
	<path
   stroke-miterlimit="10"
   d="m 138.158,260.537 h -61 c -6.627,0 -12,5.373 -12,12 v 71 c 0,6.627 5.373,12 12,12 h 61 c 6.627,0 12,-5.373 12,-12 v -71 c 0,-6.627 -5.372,-12 -12,-12 z"
   id="path25"
   inkscape:connector-curvature="0"
   style="fill:none;stroke:#000000;stroke-width:0.0283;stroke-miterlimit:10" />
	<path
   stroke-miterlimit="10"
   d="m 230.158,260.537 h -61 c -6.627,0 -12,5.373 -12,12 v 71 c 0,6.627 5.373,12 12,12 h 61 c 6.627,0 12,-5.373 12,-12 v -71 c 0,-6.627 -5.373,-12 -12,-12 z"
   id="path27"
   inkscape:connector-curvature="0"
   style="fill:none;stroke:#000000;stroke-width:0.0283;stroke-miterlimit:10" />
	<path
   stroke-miterlimit="10"
   d="m 322.658,260.537 h -61 c -6.627,0 -12,5.373 -12,12 v 71 c 0,6.627 5.373,12 12,12 h 61 c 6.627,0 12,-5.373 12,-12 v -71 c 0,-6.627 -5.373,-12 -12,-12 z"
   id="path29"
   inkscape:connector-curvature="0"
   style="fill:none;stroke:#000000;stroke-width:0.0283;stroke-miterlimit:10" />
	<path
   stroke-miterlimit="10"
   d="m 414.483,260.537 h -61 c -6.627,0 -12,5.373 -12,12 v 71 c 0,6.627 5.373,12 12,12 h 61 c 6.627,0 12,-5.373 12,-12 v -71 c 0,-6.627 -5.373,-12 -12,-12 z"
   id="path31"
   inkscape:connector-curvature="0"
   style="fill:none;stroke:#000000;stroke-width:0.0283;stroke-miterlimit:10" />
	<path
   stroke-miterlimit="10"
   d="m 507.158,260.537 h -61 c -6.627,0 -12,5.373 -12,12 v 71 c 0,6.627 5.373,12 12,12 h 61 c 6.627,0 12,-5.373 12,-12 v -71 c 0,-6.627 -5.373,-12 -12,-12 z"
   id="path33"
   inkscape:connector-curvature="0"
   style="fill:none;stroke:#000000;stroke-width:0.0283;stroke-miterlimit:10" />
	<path
   stroke-miterlimit="10"
   d="m 598.658,261.537 h -61 c -6.627,0 -12,5.373 -12,12 v 71 c 0,6.627 5.373,12 12,12 h 61 c 6.627,0 12,-5.373 12,-12 v -71 c 0,-6.627 -5.373,-12 -12,-12 z"
   id="path35"
   inkscape:connector-curvature="0"
   style="fill:none;stroke:#000000;stroke-width:0.0283;stroke-miterlimit:10" />
	<path
   stroke-miterlimit="10"
   d="m 136.908,364.586 h -61 c -6.627,0 -12,5.373 -12,12 v 71 c 0,6.627 5.373,12 12,12 h 61 c 6.627,0 12,-5.373 12,-12 v -71 c 0,-6.627 -5.372,-12 -12,-12 z"
   id="path37"
   inkscape:connector-curvature="0"
   style="fill:none;stroke:#000000;stroke-width:0.0283;stroke-miterlimit:10" />
	<path
   stroke-miterlimit="10"
   d="m 228.908,364.586 h -61 c -6.627,0 -12,5.373 -12,12 v 71 c 0,6.627 5.373,12 12,12 h 61 c 6.627,0 12,-5.373 12,-12 v -71 c 0,-6.627 -5.373,-12 -12,-12 z"
   id="path39"
   inkscape:connector-curvature="0"
   style="fill:none;stroke:#000000;stroke-width:0.0283;stroke-miterlimit:10" />
	<path
   stroke-miterlimit="10"
   d="m 321.408,364.586 h -61 c -6.627,0 -12,5.373 -12,12 v 71 c 0,6.627 5.373,12 12,12 h 61 c 6.627,0 12,-5.373 12,-12 v -71 c 0,-6.627 -5.373,-12 -12,-12 z"
   id="path41"
   inkscape:connector-curvature="0"
   style="fill:none;stroke:#000000;stroke-width:0.0283;stroke-miterlimit:10" />
	<path
   stroke-miterlimit="10"
   d="m 413.233,364.586 h -61 c -6.627,0 -12,5.373 -12,12 v 71 c 0,6.627 5.373,12 12,12 h 61 c 6.627,0 12,-5.373 12,-12 v -71 c 0,-6.627 -5.373,-12 -12,-12 z"
   id="path43"
   inkscape:connector-curvature="0"
   style="fill:none;stroke:#000000;stroke-width:0.0283;stroke-miterlimit:10" />
	<path
   stroke-miterlimit="10"
   d="m 505.908,364.586 h -61 c -6.627,0 -12,5.373 -12,12 v 71 c 0,6.627 5.373,12 12,12 h 61 c 6.627,0 12,-5.373 12,-12 v -71 c 0,-6.627 -5.373,-12 -12,-12 z"
   id="path45"
   inkscape:connector-curvature="0"
   style="fill:none;stroke:#000000;stroke-width:0.0283;stroke-miterlimit:10" />
	<path
   stroke-miterlimit="10"
   d="m 597.408,365.586 h -61 c -6.627,0 -12,5.373 -12,12 v 71 c 0,6.627 5.373,12 12,12 h 61 c 6.627,0 12,-5.373 12,-12 v -71 c 0,-6.627 -5.373,-12 -12,-12 z"
   id="path47"
   inkscape:connector-curvature="0"
   style="fill:none;stroke:#000000;stroke-width:0.0283;stroke-miterlimit:10" />
</g>
</svg>