<?xml version="1.0" encoding="UTF-8" standalone="no"?>
<!-- Generator: Adobe Illustrator 15.0.2, SVG Export Plug-In . SVG Version: 6.00 Build 0)  -->

<svg
   xmlns:dc="http://purl.org/dc/elements/1.1/"
   xmlns:cc="http://creativecommons.org/ns#"
   xmlns:rdf="http://www.w3.org/1999/02/22-rdf-syntax-ns#"
   xmlns:svg="http://www.w3.org/2000/svg"
   xmlns="http://www.w3.org/2000/svg"
   xmlns:sodipodi="http://sodipodi.sourceforge.net/DTD/sodipodi-0.dtd"
   xmlns:inkscape="http://www.inkscape.org/namespaces/inkscape"
   version="1.1"
   id="Layer_1"
   x="0px"
   y="0px"
   width="541.09375"
   height="360.09372"
   viewBox="0 0 541.09373 360.09374"
   enable-background="new 0 0 674.65 515.91"
   xml:space="preserve"
   inkscape:version="0.48.2 r9819"
   sodipodi:docname="touchchat-80.svg"><metadata
   id="metadata169"><rdf:RDF><cc:Work
       rdf:about=""><dc:format>image/svg+xml</dc:format><dc:type
         rdf:resource="http://purl.org/dc/dcmitype/StillImage" /></cc:Work></rdf:RDF></metadata><defs
   id="defs167" /><sodipodi:namedview
   pagecolor="#ffffff"
   bordercolor="#666666"
   borderopacity="1"
   objecttolerance="10"
   gridtolerance="10"
   guidetolerance="10"
   inkscape:pageopacity="0"
   inkscape:pageshadow="2"
   inkscape:window-width="640"
   inkscape:window-height="480"
   id="namedview165"
   showgrid="false"
   fit-margin-top="0"
   fit-margin-left="0"
   fit-margin-right="0"
   fit-margin-bottom="0"
   inkscape:zoom="0.45744415"
   inkscape:cx="271.19999"
   inkscape:cy="179.98249"
   inkscape:window-x="0"
   inkscape:window-y="22"
   inkscape:window-maximized="0"
   inkscape:current-layer="Layer_1" />
<g
   id="g3"
   transform="translate(-66.12503,-77.84375)">
	<path
   stroke-miterlimit="10"
   d="m 79,163.771 h 24 c 6.627,0 12,-5.373 12,-12 v -15.413 c 0,-6.627 -5.373,-12 -12,-12 H 79 c -6.627,0 -12,5.373 -12,12 v 15.413 c 0,6.627 5.373,12 12,12 z"
   id="path5"
   inkscape:connector-curvature="0"
   style="fill:none;stroke:#000000;stroke-width:0.0283;stroke-miterlimit:10" />
	<path
   stroke-miterlimit="10"
   d="M 134.333,163.375 H 157 c 6.627,0 12,-5.373 12,-12 v -14.5 c 0,-6.627 -5.373,-12 -12,-12 h -22.667 c -6.627,0 -12,5.373 -12,12 v 14.5 c 0,6.627 5.373,12 12,12 z"
   id="path7"
   inkscape:connector-curvature="0"
   style="fill:none;stroke:#000000;stroke-width:0.0283;stroke-miterlimit:10" />
	<path
   stroke-miterlimit="10"
   d="m 189,164.582 h 24 c 6.627,0 12,-5.373 12,-12 v -15.413 c 0,-6.627 -5.373,-12 -12,-12 h -24 c -6.627,0 -12,5.373 -12,12 v 15.413 c 0,6.627 5.373,12 12,12 z"
   id="path9"
   inkscape:connector-curvature="0"
   style="fill:none;stroke:#000000;stroke-width:0.0283;stroke-miterlimit:10" />
	<path
   stroke-miterlimit="10"
   d="M 244.334,164.186 H 267 c 6.627,0 12,-5.373 12,-12 v -14.5 c 0,-6.627 -5.373,-12 -12,-12 h -22.666 c -6.628,0 -12,5.373 -12,12 v 14.5 c 0,6.627 5.372,12 12,12 z"
   id="path11"
   inkscape:connector-curvature="0"
   style="fill:none;stroke:#000000;stroke-width:0.0283;stroke-miterlimit:10" />
	<path
   stroke-miterlimit="10"
   d="m 299.372,164.065 h 24 c 6.627,0 12,-5.373 12,-12 v -15.413 c 0,-6.627 -5.373,-12 -12,-12 h -24 c -6.627,0 -12,5.373 -12,12 v 15.413 c 0,6.627 5.373,12 12,12 z"
   id="path13"
   inkscape:connector-curvature="0"
   style="fill:none;stroke:#000000;stroke-width:0.0283;stroke-miterlimit:10" />
	<path
   stroke-miterlimit="10"
   d="m 354.706,163.669 h 22.666 c 6.627,0 12,-5.373 12,-12 v -14.5 c 0,-6.627 -5.373,-12 -12,-12 h -22.666 c -6.628,0 -12,5.373 -12,12 v 14.5 c 0,6.627 5.372,12 12,12 z"
   id="path15"
   inkscape:connector-curvature="0"
   style="fill:none;stroke:#000000;stroke-width:0.0283;stroke-miterlimit:10" />
	<path
   stroke-miterlimit="10"
   d="m 407.085,164.642 h 24 c 6.627,0 12,-5.373 12,-12 v -15.413 c 0,-6.627 -5.373,-12 -12,-12 h -24 c -6.628,0 -12,5.373 -12,12 v 15.413 c 0,6.628 5.372,12 12,12 z"
   id="path17"
   inkscape:connector-curvature="0"
   style="fill:none;stroke:#000000;stroke-width:0.0283;stroke-miterlimit:10" />
	<path
   stroke-miterlimit="10"
   d="m 462.419,164.246 h 22.666 c 6.627,0 12,-5.373 12,-12 v -14.5 c 0,-6.627 -5.373,-12 -12,-12 h -22.666 c -6.628,0 -12,5.373 -12,12 v 14.5 c 0,6.628 5.372,12 12,12 z"
   id="path19"
   inkscape:connector-curvature="0"
   style="fill:none;stroke:#000000;stroke-width:0.0283;stroke-miterlimit:10" />
	<path
   stroke-miterlimit="10"
   d="m 516.582,164.703 h 24 c 6.627,0 12,-5.373 12,-12 V 137.29 c 0,-6.627 -5.373,-12 -12,-12 h -24 c -6.627,0 -12,5.373 -12,12 v 15.413 c 0,6.627 5.373,12 12,12 z"
   id="path21"
   inkscape:connector-curvature="0"
   style="fill:none;stroke:#000000;stroke-width:0.0283;stroke-miterlimit:10" />
	<path
   stroke-miterlimit="10"
   d="m 571.916,164.307 h 22.666 c 6.627,0 12,-5.373 12,-12 v -14.5 c 0,-6.627 -5.373,-12 -12,-12 h -22.666 c -6.628,0 -12,5.373 -12,12 v 14.5 c 0,6.627 5.372,12 12,12 z"
   id="path23"
   inkscape:connector-curvature="0"
   style="fill:none;stroke:#000000;stroke-width:0.0283;stroke-miterlimit:10" />
	<path
   stroke-miterlimit="10"
   d="m 103.581,169.218 h -24 c -6.627,0 -12,5.373 -12,12 v 15.413 c 0,6.627 5.373,12 12,12 h 24 c 6.627,0 12,-5.373 12,-12 v -15.413 c 0,-6.627 -5.373,-12 -12,-12 z"
   id="path25"
   inkscape:connector-curvature="0"
   style="fill:none;stroke:#000000;stroke-width:0.0283;stroke-miterlimit:10" />
	<path
   stroke-miterlimit="10"
   d="m 157.581,169.735 h -22.667 c -6.627,0 -12,5.373 -12,12 v 14.5 c 0,6.627 5.373,12 12,12 h 22.667 c 6.627,0 12,-5.373 12,-12 v -14.5 c 0,-6.628 -5.373,-12 -12,-12 z"
   id="path27"
   inkscape:connector-curvature="0"
   style="fill:none;stroke:#000000;stroke-width:0.0283;stroke-miterlimit:10" />
	<path
   stroke-miterlimit="10"
   d="m 213.581,170.029 h -24 c -6.627,0 -12,5.373 -12,12 v 15.413 c 0,6.627 5.373,12 12,12 h 24 c 6.627,0 12,-5.373 12,-12 v -15.413 c 0,-6.628 -5.373,-12 -12,-12 z"
   id="path29"
   inkscape:connector-curvature="0"
   style="fill:none;stroke:#000000;stroke-width:0.0283;stroke-miterlimit:10" />
	<path
   stroke-miterlimit="10"
   d="m 267.581,170.545 h -22.666 c -6.628,0 -12,5.373 -12,12 v 14.5 c 0,6.627 5.372,12 12,12 h 22.666 c 6.627,0 12,-5.373 12,-12 v -14.5 c 0,-6.627 -5.373,-12 -12,-12 z"
   id="path31"
   inkscape:connector-curvature="0"
   style="fill:none;stroke:#000000;stroke-width:0.0283;stroke-miterlimit:10" />
	<path
   stroke-miterlimit="10"
   d="m 323.953,169.512 h -24 c -6.627,0 -12,5.373 -12,12 v 15.413 c 0,6.627 5.373,12 12,12 h 24 c 6.627,0 12,-5.373 12,-12 v -15.413 c 0,-6.627 -5.373,-12 -12,-12 z"
   id="path33"
   inkscape:connector-curvature="0"
   style="fill:none;stroke:#000000;stroke-width:0.0283;stroke-miterlimit:10" />
	<path
   stroke-miterlimit="10"
   d="m 377.953,170.029 h -22.666 c -6.628,0 -12,5.373 -12,12 v 14.5 c 0,6.627 5.372,12 12,12 h 22.666 c 6.627,0 12,-5.373 12,-12 v -14.5 c 0,-6.628 -5.373,-12 -12,-12 z"
   id="path35"
   inkscape:connector-curvature="0"
   style="fill:none;stroke:#000000;stroke-width:0.0283;stroke-miterlimit:10" />
	<path
   stroke-miterlimit="10"
   d="m 431.666,170.089 h -24 c -6.628,0 -12,5.373 -12,12 v 15.413 c 0,6.627 5.372,12 12,12 h 24 c 6.627,0 12,-5.373 12,-12 v -15.413 c 0,-6.627 -5.373,-12 -12,-12 z"
   id="path37"
   inkscape:connector-curvature="0"
   style="fill:none;stroke:#000000;stroke-width:0.0283;stroke-miterlimit:10" />
	<path
   stroke-miterlimit="10"
   d="M 485.666,170.606 H 463 c -6.628,0 -12,5.373 -12,12 v 14.5 c 0,6.627 5.372,12 12,12 h 22.666 c 6.627,0 12,-5.373 12,-12 v -14.5 c 0,-6.627 -5.373,-12 -12,-12 z"
   id="path39"
   inkscape:connector-curvature="0"
   style="fill:none;stroke:#000000;stroke-width:0.0283;stroke-miterlimit:10" />
	<path
   stroke-miterlimit="10"
   d="m 541.163,170.15 h -24 c -6.627,0 -12,5.373 -12,12 v 15.413 c 0,6.627 5.373,12 12,12 h 24 c 6.627,0 12,-5.373 12,-12 V 182.15 c 0,-6.628 -5.373,-12 -12,-12 z"
   id="path41"
   inkscape:connector-curvature="0"
   style="fill:none;stroke:#000000;stroke-width:0.0283;stroke-miterlimit:10" />
	<path
   stroke-miterlimit="10"
   d="m 595.163,170.667 h -22.666 c -6.628,0 -12,5.373 -12,12 v 14.5 c 0,6.627 5.372,12 12,12 h 22.666 c 6.627,0 12,-5.373 12,-12 v -14.5 c 0,-6.628 -5.373,-12 -12,-12 z"
   id="path43"
   inkscape:connector-curvature="0"
   style="fill:none;stroke:#000000;stroke-width:0.0283;stroke-miterlimit:10" />
	<path
   stroke-miterlimit="10"
   d="m 103.331,216.449 h -24 c -6.627,0 -12,5.373 -12,12 v 15.413 c 0,6.627 5.373,12 12,12 h 24 c 6.627,0 12,-5.372 12,-12 v -15.413 c 0,-6.627 -5.373,-12 -12,-12 z"
   id="path45"
   inkscape:connector-curvature="0"
   style="fill:none;stroke:#000000;stroke-width:0.0283;stroke-miterlimit:10" />
	<path
   stroke-miterlimit="10"
   d="m 157.331,216.966 h -22.667 c -6.627,0 -12,5.373 -12,12 v 14.5 c 0,6.628 5.373,12 12,12 h 22.667 c 6.627,0 12,-5.372 12,-12 v -14.5 c 0,-6.628 -5.373,-12 -12,-12 z"
   id="path47"
   inkscape:connector-curvature="0"
   style="fill:none;stroke:#000000;stroke-width:0.0283;stroke-miterlimit:10" />
	<path
   stroke-miterlimit="10"
   d="m 213.331,217.26 h -24 c -6.627,0 -12,5.373 -12,12 v 15.413 c 0,6.627 5.373,12 12,12 h 24 c 6.627,0 12,-5.372 12,-12 V 229.26 c 0,-6.628 -5.373,-12 -12,-12 z"
   id="path49"
   inkscape:connector-curvature="0"
   style="fill:none;stroke:#000000;stroke-width:0.0283;stroke-miterlimit:10" />
	<path
   stroke-miterlimit="10"
   d="m 267.331,217.776 h -22.666 c -6.628,0 -12,5.373 -12,12 v 14.5 c 0,6.628 5.372,12 12,12 h 22.666 c 6.627,0 12,-5.372 12,-12 v -14.5 c 0,-6.627 -5.373,-12 -12,-12 z"
   id="path51"
   inkscape:connector-curvature="0"
   style="fill:none;stroke:#000000;stroke-width:0.0283;stroke-miterlimit:10" />
	<path
   stroke-miterlimit="10"
   d="m 323.703,216.743 h -24 c -6.627,0 -12,5.373 -12,12 v 15.413 c 0,6.627 5.373,12 12,12 h 24 c 6.627,0 12,-5.373 12,-12 v -15.413 c 0,-6.627 -5.373,-12 -12,-12 z"
   id="path53"
   inkscape:connector-curvature="0"
   style="fill:none;stroke:#000000;stroke-width:0.0283;stroke-miterlimit:10" />
	<path
   stroke-miterlimit="10"
   d="m 377.703,217.26 h -22.666 c -6.628,0 -12,5.373 -12,12 v 14.5 c 0,6.627 5.372,12 12,12 h 22.666 c 6.627,0 12,-5.373 12,-12 v -14.5 c 0,-6.628 -5.373,-12 -12,-12 z"
   id="path55"
   inkscape:connector-curvature="0"
   style="fill:none;stroke:#000000;stroke-width:0.0283;stroke-miterlimit:10" />
	<path
   stroke-miterlimit="10"
   d="m 431.416,217.32 h -24 c -6.628,0 -12,5.373 -12,12 v 15.413 c 0,6.627 5.372,12 12,12 h 24 c 6.627,0 12,-5.372 12,-12 V 229.32 c 0,-6.627 -5.373,-12 -12,-12 z"
   id="path57"
   inkscape:connector-curvature="0"
   style="fill:none;stroke:#000000;stroke-width:0.0283;stroke-miterlimit:10" />
	<path
   stroke-miterlimit="10"
   d="M 485.416,217.837 H 462.75 c -6.628,0 -12,5.373 -12,12 v 14.5 c 0,6.628 5.372,12 12,12 h 22.666 c 6.627,0 12,-5.372 12,-12 v -14.5 c 0,-6.628 -5.373,-12 -12,-12 z"
   id="path59"
   inkscape:connector-curvature="0"
   style="fill:none;stroke:#000000;stroke-width:0.0283;stroke-miterlimit:10" />
	<path
   stroke-miterlimit="10"
   d="m 540.913,217.381 h -24 c -6.627,0 -12,5.373 -12,12 v 15.413 c 0,6.627 5.373,12 12,12 h 24 c 6.627,0 12,-5.372 12,-12 v -15.413 c 0,-6.628 -5.373,-12 -12,-12 z"
   id="path61"
   inkscape:connector-curvature="0"
   style="fill:none;stroke:#000000;stroke-width:0.0283;stroke-miterlimit:10" />
	<path
   stroke-miterlimit="10"
   d="m 594.913,217.897 h -22.666 c -6.628,0 -12,5.373 -12,12 v 14.5 c 0,6.628 5.372,12 12,12 h 22.666 c 6.627,0 12,-5.372 12,-12 v -14.5 c 0,-6.627 -5.373,-12 -12,-12 z"
   id="path63"
   inkscape:connector-curvature="0"
   style="fill:none;stroke:#000000;stroke-width:0.0283;stroke-miterlimit:10" />
	<path
   stroke-miterlimit="10"
   d="m 79.162,301.277 h 24 c 6.627,0 12,-5.373 12,-12 v -15.413 c 0,-6.628 -5.373,-12 -12,-12 h -24 c -6.627,0 -12,5.372 -12,12 v 15.413 c 0,6.627 5.373,12 12,12 z"
   id="path65"
   inkscape:connector-curvature="0"
   style="fill:none;stroke:#000000;stroke-width:0.0283;stroke-miterlimit:10" />
	<path
   stroke-miterlimit="10"
   d="m 134.496,300.881 h 22.667 c 6.627,0 12,-5.373 12,-12 v -14.5 c 0,-6.627 -5.373,-12 -12,-12 h -22.667 c -6.627,0 -12,5.373 -12,12 v 14.5 c 0,6.627 5.372,12 12,12 z"
   id="path67"
   inkscape:connector-curvature="0"
   style="fill:none;stroke:#000000;stroke-width:0.0283;stroke-miterlimit:10" />
	<path
   stroke-miterlimit="10"
   d="m 189.162,302.088 h 24 c 6.627,0 12,-5.373 12,-12 v -15.413 c 0,-6.628 -5.373,-12 -12,-12 h -24 c -6.627,0 -12,5.372 -12,12 v 15.413 c 0,6.627 5.373,12 12,12 z"
   id="path69"
   inkscape:connector-curvature="0"
   style="fill:none;stroke:#000000;stroke-width:0.0283;stroke-miterlimit:10" />
	<path
   stroke-miterlimit="10"
   d="m 244.496,301.691 h 22.666 c 6.627,0 12,-5.373 12,-12 v -14.5 c 0,-6.627 -5.373,-12 -12,-12 h -22.666 c -6.628,0 -12,5.373 -12,12 v 14.5 c 0,6.627 5.372,12 12,12 z"
   id="path71"
   inkscape:connector-curvature="0"
   style="fill:none;stroke:#000000;stroke-width:0.0283;stroke-miterlimit:10" />
	<path
   stroke-miterlimit="10"
   d="m 299.534,301.57 h 24 c 6.627,0 12,-5.372 12,-12 v -15.412 c 0,-6.627 -5.373,-12 -12,-12 h -24 c -6.627,0 -12,5.373 -12,12 v 15.412 c 0,6.628 5.373,12 12,12 z"
   id="path73"
   inkscape:connector-curvature="0"
   style="fill:none;stroke:#000000;stroke-width:0.0283;stroke-miterlimit:10" />
	<path
   stroke-miterlimit="10"
   d="m 354.868,301.175 h 22.666 c 6.627,0 12,-5.372 12,-12 v -14.5 c 0,-6.628 -5.373,-12 -12,-12 h -22.666 c -6.628,0 -12,5.372 -12,12 v 14.5 c 0,6.628 5.372,12 12,12 z"
   id="path75"
   inkscape:connector-curvature="0"
   style="fill:none;stroke:#000000;stroke-width:0.0283;stroke-miterlimit:10" />
	<path
   stroke-miterlimit="10"
   d="m 407.247,302.148 h 24 c 6.627,0 12,-5.373 12,-12 v -15.413 c 0,-6.628 -5.373,-12 -12,-12 h -24 c -6.628,0 -12,5.372 -12,12 v 15.413 c 0,6.627 5.372,12 12,12 z"
   id="path77"
   inkscape:connector-curvature="0"
   style="fill:none;stroke:#000000;stroke-width:0.0283;stroke-miterlimit:10" />
	<path
   stroke-miterlimit="10"
   d="m 462.581,301.752 h 22.666 c 6.627,0 12,-5.373 12,-12 v -14.5 c 0,-6.627 -5.373,-12 -12,-12 h -22.666 c -6.628,0 -12,5.373 -12,12 v 14.5 c 0,6.627 5.372,12 12,12 z"
   id="path79"
   inkscape:connector-curvature="0"
   style="fill:none;stroke:#000000;stroke-width:0.0283;stroke-miterlimit:10" />
	<path
   stroke-miterlimit="10"
   d="m 516.744,302.209 h 24 c 6.627,0 12,-5.373 12,-12 v -15.413 c 0,-6.628 -5.373,-12 -12,-12 h -24 c -6.627,0 -12,5.372 -12,12 v 15.413 c 0,6.627 5.373,12 12,12 z"
   id="path81"
   inkscape:connector-curvature="0"
   style="fill:none;stroke:#000000;stroke-width:0.0283;stroke-miterlimit:10" />
	<path
   stroke-miterlimit="10"
   d="m 572.078,301.812 h 22.666 c 6.627,0 12,-5.373 12,-12 v -14.5 c 0,-6.627 -5.373,-12 -12,-12 h -22.666 c -6.628,0 -12,5.373 -12,12 v 14.5 c 0,6.627 5.372,12 12,12 z"
   id="path83"
   inkscape:connector-curvature="0"
   style="fill:none;stroke:#000000;stroke-width:0.0283;stroke-miterlimit:10" />
	<path
   stroke-miterlimit="10"
   d="m 78.162,347.297 h 24 c 6.627,0 12,-5.372 12,-12 v -15.412 c 0,-6.627 -5.373,-12 -12,-12 h -24 c -6.627,0 -12,5.373 -12,12 v 15.412 c 0,6.628 5.373,12 12,12 z"
   id="path85"
   inkscape:connector-curvature="0"
   style="fill:none;stroke:#000000;stroke-width:0.0283;stroke-miterlimit:10" />
	<path
   stroke-miterlimit="10"
   d="m 133.496,346.901 h 22.667 c 6.627,0 12,-5.372 12,-12 v -14.5 c 0,-6.628 -5.373,-12 -12,-12 h -22.667 c -6.627,0 -12,5.372 -12,12 v 14.5 c 0,6.628 5.372,12 12,12 z"
   id="path87"
   inkscape:connector-curvature="0"
   style="fill:none;stroke:#000000;stroke-width:0.0283;stroke-miterlimit:10" />
	<path
   stroke-miterlimit="10"
   d="m 188.162,348.107 h 24 c 6.627,0 12,-5.372 12,-12 v -15.412 c 0,-6.627 -5.373,-12 -12,-12 h -24 c -6.627,0 -12,5.373 -12,12 v 15.412 c 0,6.628 5.373,12 12,12 z"
   id="path89"
   inkscape:connector-curvature="0"
   style="fill:none;stroke:#000000;stroke-width:0.0283;stroke-miterlimit:10" />
	<path
   stroke-miterlimit="10"
   d="m 243.496,347.712 h 22.666 c 6.627,0 12,-5.372 12,-12 v -14.5 c 0,-6.628 -5.373,-12 -12,-12 h -22.666 c -6.628,0 -12,5.372 -12,12 v 14.5 c 0,6.628 5.372,12 12,12 z"
   id="path91"
   inkscape:connector-curvature="0"
   style="fill:none;stroke:#000000;stroke-width:0.0283;stroke-miterlimit:10" />
	<path
   stroke-miterlimit="10"
   d="m 298.534,347.592 h 24 c 6.627,0 12,-5.373 12,-12 v -15.413 c 0,-6.628 -5.373,-12 -12,-12 h -24 c -6.627,0 -12,5.372 -12,12 v 15.413 c 0,6.627 5.373,12 12,12 z"
   id="path93"
   inkscape:connector-curvature="0"
   style="fill:none;stroke:#000000;stroke-width:0.0283;stroke-miterlimit:10" />
	<path
   stroke-miterlimit="10"
   d="m 353.868,347.195 h 22.666 c 6.627,0 12,-5.373 12,-12 v -14.5 c 0,-6.627 -5.373,-12 -12,-12 h -22.666 c -6.628,0 -12,5.373 -12,12 v 14.5 c 0,6.627 5.372,12 12,12 z"
   id="path95"
   inkscape:connector-curvature="0"
   style="fill:none;stroke:#000000;stroke-width:0.0283;stroke-miterlimit:10" />
	<path
   stroke-miterlimit="10"
   d="m 406.247,348.168 h 24 c 6.627,0 12,-5.372 12,-12 v -15.412 c 0,-6.627 -5.373,-12 -12,-12 h -24 c -6.628,0 -12,5.373 -12,12 v 15.412 c 0,6.628 5.372,12 12,12 z"
   id="path97"
   inkscape:connector-curvature="0"
   style="fill:none;stroke:#000000;stroke-width:0.0283;stroke-miterlimit:10" />
	<path
   stroke-miterlimit="10"
   d="m 461.581,347.772 h 22.666 c 6.627,0 12,-5.372 12,-12 v -14.5 c 0,-6.628 -5.373,-12 -12,-12 h -22.666 c -6.628,0 -12,5.372 -12,12 v 14.5 c 0,6.628 5.372,12 12,12 z"
   id="path99"
   inkscape:connector-curvature="0"
   style="fill:none;stroke:#000000;stroke-width:0.0283;stroke-miterlimit:10" />
	<path
   stroke-miterlimit="10"
   d="m 515.744,348.229 h 24 c 6.627,0 12,-5.372 12,-12 v -15.412 c 0,-6.627 -5.373,-12 -12,-12 h -24 c -6.627,0 -12,5.373 -12,12 v 15.412 c 0,6.627 5.373,12 12,12 z"
   id="path101"
   inkscape:connector-curvature="0"
   style="fill:none;stroke:#000000;stroke-width:0.0283;stroke-miterlimit:10" />
	<path
   stroke-miterlimit="10"
   d="m 571.078,347.833 h 22.666 c 6.627,0 12,-5.372 12,-12 v -14.5 c 0,-6.628 -5.373,-12 -12,-12 h -22.666 c -6.628,0 -12,5.372 -12,12 v 14.5 c 0,6.628 5.372,12 12,12 z"
   id="path103"
   inkscape:connector-curvature="0"
   style="fill:none;stroke:#000000;stroke-width:0.0283;stroke-miterlimit:10" />
	<path
   stroke-miterlimit="10"
   d="m 103.331,353.327 h -24 c -6.627,0 -12,5.372 -12,12 v 15.413 c 0,6.627 5.373,12 12,12 h 24 c 6.627,0 12,-5.373 12,-12 v -15.413 c 0,-6.628 -5.373,-12 -12,-12 z"
   id="path105"
   inkscape:connector-curvature="0"
   style="fill:none;stroke:#000000;stroke-width:0.0283;stroke-miterlimit:10" />
	<path
   stroke-miterlimit="10"
   d="m 157.331,353.844 h -22.667 c -6.627,0 -12,5.373 -12,12 v 14.5 c 0,6.627 5.373,12 12,12 h 22.667 c 6.627,0 12,-5.373 12,-12 v -14.5 c 0,-6.627 -5.373,-12 -12,-12 z"
   id="path107"
   inkscape:connector-curvature="0"
   style="fill:none;stroke:#000000;stroke-width:0.0283;stroke-miterlimit:10" />
	<path
   stroke-miterlimit="10"
   d="m 213.331,354.138 h -24 c -6.627,0 -12,5.372 -12,12 v 15.413 c 0,6.627 5.373,12 12,12 h 24 c 6.627,0 12,-5.373 12,-12 v -15.413 c 0,-6.628 -5.373,-12 -12,-12 z"
   id="path109"
   inkscape:connector-curvature="0"
   style="fill:none;stroke:#000000;stroke-width:0.0283;stroke-miterlimit:10" />
	<path
   stroke-miterlimit="10"
   d="m 267.331,354.654 h -22.666 c -6.628,0 -12,5.373 -12,12 v 14.5 c 0,6.627 5.372,12 12,12 h 22.666 c 6.627,0 12,-5.373 12,-12 v -14.5 c 0,-6.627 -5.373,-12 -12,-12 z"
   id="path111"
   inkscape:connector-curvature="0"
   style="fill:none;stroke:#000000;stroke-width:0.0283;stroke-miterlimit:10" />
	<path
   stroke-miterlimit="10"
   d="m 323.703,353.621 h -24 c -6.627,0 -12,5.373 -12,12 v 15.412 c 0,6.628 5.373,12 12,12 h 24 c 6.627,0 12,-5.372 12,-12 v -15.412 c 0,-6.627 -5.373,-12 -12,-12 z"
   id="path113"
   inkscape:connector-curvature="0"
   style="fill:none;stroke:#000000;stroke-width:0.0283;stroke-miterlimit:10" />
	<path
   stroke-miterlimit="10"
   d="m 377.703,354.138 h -22.666 c -6.628,0 -12,5.372 -12,12 v 14.5 c 0,6.628 5.372,12 12,12 h 22.666 c 6.627,0 12,-5.372 12,-12 v -14.5 c 0,-6.628 -5.373,-12 -12,-12 z"
   id="path115"
   inkscape:connector-curvature="0"
   style="fill:none;stroke:#000000;stroke-width:0.0283;stroke-miterlimit:10" />
	<path
   stroke-miterlimit="10"
   d="m 431.416,354.198 h -24 c -6.628,0 -12,5.372 -12,12 v 15.413 c 0,6.627 5.372,12 12,12 h 24 c 6.627,0 12,-5.373 12,-12 v -15.413 c 0,-6.628 -5.373,-12 -12,-12 z"
   id="path117"
   inkscape:connector-curvature="0"
   style="fill:none;stroke:#000000;stroke-width:0.0283;stroke-miterlimit:10" />
	<path
   stroke-miterlimit="10"
   d="M 485.416,354.715 H 462.75 c -6.628,0 -12,5.373 -12,12 v 14.5 c 0,6.627 5.372,12 12,12 h 22.666 c 6.627,0 12,-5.373 12,-12 v -14.5 c 0,-6.627 -5.373,-12 -12,-12 z"
   id="path119"
   inkscape:connector-curvature="0"
   style="fill:none;stroke:#000000;stroke-width:0.0283;stroke-miterlimit:10" />
	<path
   stroke-miterlimit="10"
   d="m 540.913,354.259 h -24 c -6.627,0 -12,5.372 -12,12 v 15.413 c 0,6.627 5.373,12 12,12 h 24 c 6.627,0 12,-5.373 12,-12 v -15.413 c 0,-6.628 -5.373,-12 -12,-12 z"
   id="path121"
   inkscape:connector-curvature="0"
   style="fill:none;stroke:#000000;stroke-width:0.0283;stroke-miterlimit:10" />
	<path
   stroke-miterlimit="10"
   d="m 594.913,354.775 h -22.666 c -6.628,0 -12,5.373 -12,12 v 14.5 c 0,6.627 5.372,12 12,12 h 22.666 c 6.627,0 12,-5.373 12,-12 v -14.5 c 0,-6.627 -5.373,-12 -12,-12 z"
   id="path123"
   inkscape:connector-curvature="0"
   style="fill:none;stroke:#000000;stroke-width:0.0283;stroke-miterlimit:10" />
	<path
   stroke-miterlimit="10"
   d="m 103.162,397.552 h -24 c -6.627,0 -12,5.372 -12,12 v 15.413 c 0,6.627 5.373,12 12,12 h 24 c 6.627,0 12,-5.373 12,-12 v -15.413 c 0,-6.628 -5.372,-12 -12,-12 z"
   id="path125"
   inkscape:connector-curvature="0"
   style="fill:none;stroke:#000000;stroke-width:0.0283;stroke-miterlimit:10" />
	<path
   stroke-miterlimit="10"
   d="m 157.162,398.068 h -22.667 c -6.627,0 -12,5.373 -12,12 v 14.5 c 0,6.627 5.373,12 12,12 h 22.667 c 6.627,0 12,-5.373 12,-12 v -14.5 c 0,-6.627 -5.372,-12 -12,-12 z"
   id="path127"
   inkscape:connector-curvature="0"
   style="fill:none;stroke:#000000;stroke-width:0.0283;stroke-miterlimit:10" />
	<path
   stroke-miterlimit="10"
   d="m 213.162,398.362 h -24 c -6.627,0 -12,5.372 -12,12 v 15.413 c 0,6.627 5.373,12 12,12 h 24 c 6.627,0 12,-5.373 12,-12 v -15.413 c 0,-6.628 -5.373,-12 -12,-12 z"
   id="path129"
   inkscape:connector-curvature="0"
   style="fill:none;stroke:#000000;stroke-width:0.0283;stroke-miterlimit:10" />
	<path
   stroke-miterlimit="10"
   d="m 267.162,398.879 h -22.666 c -6.628,0 -12,5.373 -12,12 v 14.5 c 0,6.627 5.372,12 12,12 h 22.666 c 6.627,0 12,-5.373 12,-12 v -14.5 c 0,-6.627 -5.373,-12 -12,-12 z"
   id="path131"
   inkscape:connector-curvature="0"
   style="fill:none;stroke:#000000;stroke-width:0.0283;stroke-miterlimit:10" />
	<path
   stroke-miterlimit="10"
   d="m 323.534,397.846 h -24 c -6.627,0 -12,5.373 -12,12 v 15.412 c 0,6.628 5.373,12 12,12 h 24 c 6.627,0 12,-5.372 12,-12 v -15.412 c 0,-6.627 -5.373,-12 -12,-12 z"
   id="path133"
   inkscape:connector-curvature="0"
   style="fill:none;stroke:#000000;stroke-width:0.0283;stroke-miterlimit:10" />
	<path
   stroke-miterlimit="10"
   d="m 377.534,398.362 h -22.666 c -6.628,0 -12,5.372 -12,12 v 14.5 c 0,6.628 5.372,12 12,12 h 22.666 c 6.627,0 12,-5.372 12,-12 v -14.5 c 0,-6.628 -5.373,-12 -12,-12 z"
   id="path135"
   inkscape:connector-curvature="0"
   style="fill:none;stroke:#000000;stroke-width:0.0283;stroke-miterlimit:10" />
	<path
   stroke-miterlimit="10"
   d="m 431.247,398.423 h -24 c -6.628,0 -12,5.372 -12,12 v 15.413 c 0,6.627 5.372,12 12,12 h 24 c 6.627,0 12,-5.373 12,-12 v -15.413 c 0,-6.628 -5.373,-12 -12,-12 z"
   id="path137"
   inkscape:connector-curvature="0"
   style="fill:none;stroke:#000000;stroke-width:0.0283;stroke-miterlimit:10" />
	<path
   stroke-miterlimit="10"
   d="m 485.247,398.939 h -22.666 c -6.628,0 -12,5.373 -12,12 v 14.5 c 0,6.627 5.372,12 12,12 h 22.666 c 6.627,0 12,-5.373 12,-12 v -14.5 c 0,-6.627 -5.373,-12 -12,-12 z"
   id="path139"
   inkscape:connector-curvature="0"
   style="fill:none;stroke:#000000;stroke-width:0.0283;stroke-miterlimit:10" />
	<path
   stroke-miterlimit="10"
   d="m 540.744,398.483 h -24 c -6.627,0 -12,5.372 -12,12 v 15.413 c 0,6.627 5.373,12 12,12 h 24 c 6.627,0 12,-5.373 12,-12 v -15.413 c 0,-6.628 -5.373,-12 -12,-12 z"
   id="path141"
   inkscape:connector-curvature="0"
   style="fill:none;stroke:#000000;stroke-width:0.0283;stroke-miterlimit:10" />
	<path
   stroke-miterlimit="10"
   d="m 594.744,399 h -22.666 c -6.628,0 -12,5.373 -12,12 v 14.5 c 0,6.627 5.372,12 12,12 h 22.666 c 6.627,0 12,-5.373 12,-12 V 411 c 0,-6.627 -5.373,-12 -12,-12 z"
   id="path143"
   inkscape:connector-curvature="0"
   style="fill:none;stroke:#000000;stroke-width:0.0283;stroke-miterlimit:10" />
	<path
   stroke-miterlimit="10"
   d="m 79.496,117.297 h 24 c 6.627,0 12,-5.373 12,-12 V 89.884 c 0,-6.628 -5.373,-12 -12,-12 h -24 c -6.627,0 -12,5.372 -12,12 v 15.413 c 0,6.627 5.373,12 12,12 z"
   id="path145"
   inkscape:connector-curvature="0"
   style="fill:none;stroke:#000000;stroke-width:0.0283;stroke-miterlimit:10" />
	<path
   stroke-miterlimit="10"
   d="m 134.83,116.901 h 22.667 c 6.627,0 12,-5.373 12,-12 v -14.5 c 0,-6.627 -5.373,-12 -12,-12 H 134.83 c -6.627,0 -12,5.373 -12,12 v 14.5 c 0,6.627 5.372,12 12,12 z"
   id="path147"
   inkscape:connector-curvature="0"
   style="fill:none;stroke:#000000;stroke-width:0.0283;stroke-miterlimit:10" />
	<path
   stroke-miterlimit="10"
   d="m 189.496,118.108 h 24 c 6.627,0 12,-5.373 12,-12 V 90.695 c 0,-6.628 -5.373,-12 -12,-12 h -24 c -6.627,0 -12,5.372 -12,12 v 15.413 c 0,6.627 5.373,12 12,12 z"
   id="path149"
   inkscape:connector-curvature="0"
   style="fill:none;stroke:#000000;stroke-width:0.0283;stroke-miterlimit:10" />
	<path
   stroke-miterlimit="10"
   d="m 244.83,117.711 h 22.666 c 6.627,0 12,-5.373 12,-12 v -14.5 c 0,-6.627 -5.373,-12 -12,-12 H 244.83 c -6.628,0 -12,5.373 -12,12 v 14.5 c 0,6.627 5.372,12 12,12 z"
   id="path151"
   inkscape:connector-curvature="0"
   style="fill:none;stroke:#000000;stroke-width:0.0283;stroke-miterlimit:10" />
	<path
   stroke-miterlimit="10"
   d="m 299.868,117.59 h 24 c 6.627,0 12,-5.372 12,-12 V 90.178 c 0,-6.627 -5.373,-12 -12,-12 h -24 c -6.627,0 -12,5.373 -12,12 v 15.412 c 0,6.628 5.373,12 12,12 z"
   id="path153"
   inkscape:connector-curvature="0"
   style="fill:none;stroke:#000000;stroke-width:0.0283;stroke-miterlimit:10" />
	<path
   stroke-miterlimit="10"
   d="m 355.202,117.195 h 22.666 c 6.627,0 12,-5.372 12,-12 v -14.5 c 0,-6.628 -5.373,-12 -12,-12 h -22.666 c -6.628,0 -12,5.372 -12,12 v 14.5 c 0,6.628 5.372,12 12,12 z"
   id="path155"
   inkscape:connector-curvature="0"
   style="fill:none;stroke:#000000;stroke-width:0.0283;stroke-miterlimit:10" />
	<path
   stroke-miterlimit="10"
   d="m 407.581,118.168 h 24 c 6.627,0 12,-5.373 12,-12 V 90.755 c 0,-6.628 -5.373,-12 -12,-12 h -24 c -6.628,0 -12,5.372 -12,12 v 15.413 c 0,6.627 5.372,12 12,12 z"
   id="path157"
   inkscape:connector-curvature="0"
   style="fill:none;stroke:#000000;stroke-width:0.0283;stroke-miterlimit:10" />
	<path
   stroke-miterlimit="10"
   d="m 462.915,117.772 h 22.666 c 6.627,0 12,-5.373 12,-12 v -14.5 c 0,-6.627 -5.373,-12 -12,-12 h -22.666 c -6.628,0 -12,5.373 -12,12 v 14.5 c 0,6.627 5.372,12 12,12 z"
   id="path159"
   inkscape:connector-curvature="0"
   style="fill:none;stroke:#000000;stroke-width:0.0283;stroke-miterlimit:10" />
	<path
   stroke-miterlimit="10"
   d="m 517.078,118.229 h 24 c 6.627,0 12,-5.373 12,-12 V 90.816 c 0,-6.628 -5.373,-12 -12,-12 h -24 c -6.627,0 -12,5.372 -12,12 v 15.413 c 0,6.627 5.373,12 12,12 z"
   id="path161"
   inkscape:connector-curvature="0"
   style="fill:none;stroke:#000000;stroke-width:0.0283;stroke-miterlimit:10" />
	<path
   stroke-miterlimit="10"
   d="m 572.412,117.833 h 22.666 c 6.627,0 12,-5.373 12,-12 v -14.5 c 0,-6.627 -5.373,-12 -12,-12 h -22.666 c -6.628,0 -12,5.373 -12,12 v 14.5 c 0,6.626 5.372,12 12,12 z"
   id="path163"
   inkscape:connector-curvature="0"
   style="fill:none;stroke:#000000;stroke-width:0.0283;stroke-miterlimit:10" />
</g>
</svg>