<?xml version="1.0" encoding="UTF-8" standalone="no"?>
<!-- Generator: Adobe Illustrator 15.0.2, SVG Export Plug-In . SVG Version: 6.00 Build 0)  -->

<svg
   xmlns:dc="http://purl.org/dc/elements/1.1/"
   xmlns:cc="http://creativecommons.org/ns#"
   xmlns:rdf="http://www.w3.org/1999/02/22-rdf-syntax-ns#"
   xmlns:svg="http://www.w3.org/2000/svg"
   xmlns="http://www.w3.org/2000/svg"
   xmlns:sodipodi="http://sodipodi.sourceforge.net/DTD/sodipodi-0.dtd"
   xmlns:inkscape="http://www.inkscape.org/namespaces/inkscape"
   version="1.1"
   id="Layer_1"
   x="0px"
   y="0px"
   width="554.34375"
   height="364.74997"
   viewBox="0 0 554.34373 364.74999"
   enable-background="new 0 0 674.65 515.91"
   xml:space="preserve"
   inkscape:version="0.48.2 r9819"
   sodipodi:docname="touchchat-42.svg"><metadata
   id="metadata93"><rdf:RDF><cc:Work
       rdf:about=""><dc:format>image/svg+xml</dc:format><dc:type
         rdf:resource="http://purl.org/dc/dcmitype/StillImage" /></cc:Work></rdf:RDF></metadata><defs
   id="defs91" /><sodipodi:namedview
   pagecolor="#ffffff"
   bordercolor="#666666"
   borderopacity="1"
   objecttolerance="10"
   gridtolerance="10"
   guidetolerance="10"
   inkscape:pageopacity="0"
   inkscape:pageshadow="2"
   inkscape:window-width="640"
   inkscape:window-height="480"
   id="namedview89"
   showgrid="false"
   fit-margin-top="0"
   fit-margin-left="0"
   fit-margin-right="0"
   fit-margin-bottom="0"
   inkscape:zoom="0.45744415"
   inkscape:cx="277.44999"
   inkscape:cy="182.70124"
   inkscape:window-x="0"
   inkscape:window-y="22"
   inkscape:window-maximized="0"
   inkscape:current-layer="Layer_1" />
<g
   id="g3"
   transform="translate(-59.87503,-75.90625)">
	<path
   stroke-miterlimit="10"
   d="m 72.576,127.953 h 51 c 6.627,0 12,-5.373 12,-12 v -28 c 0,-6.627 -5.373,-12 -12,-12 h -51 c -6.627,0 -12,5.373 -12,12 v 28 c 0,6.628 5.373,12 12,12 z"
   id="path5"
   inkscape:connector-curvature="0"
   style="fill:#ffffff;stroke:#000000;stroke-width:0.0283;stroke-miterlimit:10" />
	<path
   stroke-miterlimit="10"
   d="m 152.666,127.953 h 51 c 6.627,0 12,-5.373 12,-12 v -28 c 0,-6.627 -5.373,-12 -12,-12 h -51 c -6.627,0 -12,5.373 -12,12 v 28 c 0,6.627 5.372,12 12,12 z"
   id="path7"
   inkscape:connector-curvature="0"
   style="fill:#ffffff;stroke:#000000;stroke-width:0.0283;stroke-miterlimit:10" />
	<path
   stroke-miterlimit="10"
   d="m 232.576,127.953 h 51 c 6.627,0 12,-5.373 12,-12 v -28 c 0,-6.627 -5.373,-12 -12,-12 h -51 c -6.627,0 -12,5.373 -12,12 v 28 c 0,6.627 5.373,12 12,12 z"
   id="path9"
   inkscape:connector-curvature="0"
   style="fill:#ffffff;stroke:#000000;stroke-width:0.0283;stroke-miterlimit:10" />
	<path
   stroke-miterlimit="10"
   d="m 312.401,127.953 h 51 c 6.627,0 12,-5.373 12,-12 v -28 c 0,-6.627 -5.373,-12 -12,-12 h -51 c -6.627,0 -12,5.373 -12,12 v 28 c 0,6.627 5.373,12 12,12 z"
   id="path11"
   inkscape:connector-curvature="0"
   style="fill:#ffffff;stroke:#000000;stroke-width:0.0283;stroke-miterlimit:10" />
	<path
   stroke-miterlimit="10"
   d="m 391.771,127.953 h 51 c 6.627,0 12,-5.373 12,-12 v -28 c 0,-6.627 -5.373,-12 -12,-12 h -51 c -6.628,0 -12,5.373 -12,12 v 28 c 0,6.627 5.372,12 12,12 z"
   id="path13"
   inkscape:connector-curvature="0"
   style="fill:#ffffff;stroke:#000000;stroke-width:0.0283;stroke-miterlimit:10" />
	<path
   stroke-miterlimit="10"
   d="m 471.266,127.953 h 51 c 6.627,0 12,-5.373 12,-12 v -28 c 0,-6.627 -5.373,-12 -12,-12 h -51 c -6.627,0 -12,5.373 -12,12 v 28 c 0,6.627 5.373,12 12,12 z"
   id="path15"
   inkscape:connector-curvature="0"
   style="fill:#ffffff;stroke:#000000;stroke-width:0.0283;stroke-miterlimit:10" />
	<path
   stroke-miterlimit="10"
   d="m 550.818,127.953 h 51 c 6.627,0 12,-5.373 12,-12 v -28 c 0,-6.627 -5.373,-12 -12,-12 h -51 c -6.627,0 -12,5.373 -12,12 v 28 c 0,6.627 5.373,12 12,12 z"
   id="path17"
   inkscape:connector-curvature="0"
   style="fill:#ffffff;stroke:#000000;stroke-width:0.0283;stroke-miterlimit:10" />
	<path
   stroke-miterlimit="10"
   d="m 72.545,190.287 h 51 c 6.627,0 12,-5.373 12,-12 v -28 c 0,-6.627 -5.373,-12 -12,-12 h -51 c -6.627,0 -12,5.373 -12,12 v 28 c 0,6.627 5.372,12 12,12 z"
   id="path19"
   inkscape:connector-curvature="0"
   style="fill:#ffffff;stroke:#000000;stroke-width:0.0283;stroke-miterlimit:10" />
	<path
   stroke-miterlimit="10"
   d="m 152.634,190.287 h 51 c 6.627,0 12,-5.373 12,-12 v -28 c 0,-6.627 -5.373,-12 -12,-12 h -51 c -6.627,0 -12,5.373 -12,12 v 28 c 0,6.627 5.373,12 12,12 z"
   id="path21"
   inkscape:connector-curvature="0"
   style="fill:#ffffff;stroke:#000000;stroke-width:0.0283;stroke-miterlimit:10" />
	<path
   stroke-miterlimit="10"
   d="m 232.545,190.287 h 51 c 6.627,0 12,-5.373 12,-12 v -28 c 0,-6.627 -5.373,-12 -12,-12 h -51 c -6.627,0 -12,5.373 -12,12 v 28 c 0,6.627 5.372,12 12,12 z"
   id="path23"
   inkscape:connector-curvature="0"
   style="fill:#ffffff;stroke:#000000;stroke-width:0.0283;stroke-miterlimit:10" />
	<path
   stroke-miterlimit="10"
   d="m 312.37,190.287 h 51 c 6.627,0 12,-5.373 12,-12 v -28 c 0,-6.627 -5.373,-12 -12,-12 h -51 c -6.628,0 -12,5.373 -12,12 v 28 c 0,6.627 5.372,12 12,12 z"
   id="path25"
   inkscape:connector-curvature="0"
   style="fill:#ffffff;stroke:#000000;stroke-width:0.0283;stroke-miterlimit:10" />
	<path
   stroke-miterlimit="10"
   d="m 391.739,190.287 h 51 c 6.627,0 12,-5.373 12,-12 v -28 c 0,-6.627 -5.373,-12 -12,-12 h -51 c -6.628,0 -12,5.373 -12,12 v 28 c 0,6.627 5.372,12 12,12 z"
   id="path27"
   inkscape:connector-curvature="0"
   style="fill:#ffffff;stroke:#000000;stroke-width:0.0283;stroke-miterlimit:10" />
	<path
   stroke-miterlimit="10"
   d="m 471.234,190.287 h 51 c 6.627,0 12,-5.373 12,-12 v -28 c 0,-6.627 -5.373,-12 -12,-12 h -51 c -6.627,0 -12,5.373 -12,12 v 28 c 0,6.627 5.373,12 12,12 z"
   id="path29"
   inkscape:connector-curvature="0"
   style="fill:#ffffff;stroke:#000000;stroke-width:0.0283;stroke-miterlimit:10" />
	<path
   stroke-miterlimit="10"
   d="m 550.787,190.287 h 51 c 6.627,0 12,-5.373 12,-12 v -28 c 0,-6.627 -5.373,-12 -12,-12 h -51 c -6.627,0 -12,5.373 -12,12 v 28 c 0,6.627 5.373,12 12,12 z"
   id="path31"
   inkscape:connector-curvature="0"
   style="fill:#ffffff;stroke:#000000;stroke-width:0.0283;stroke-miterlimit:10" />
	<path
   stroke-miterlimit="10"
   d="m 71.924,253.287 h 51 c 6.627,0 12,-5.373 12,-12 v -28 c 0,-6.627 -5.373,-12 -12,-12 h -51 c -6.627,0 -12,5.373 -12,12 v 28 c 0,6.627 5.372,12 12,12 z"
   id="path33"
   inkscape:connector-curvature="0"
   style="fill:#ffffff;stroke:#000000;stroke-width:0.0283;stroke-miterlimit:10" />
	<path
   stroke-miterlimit="10"
   d="m 152.013,253.287 h 51 c 6.627,0 12,-5.373 12,-12 v -28 c 0,-6.627 -5.373,-12 -12,-12 h -51 c -6.627,0 -12,5.373 -12,12 v 28 c 0,6.627 5.373,12 12,12 z"
   id="path35"
   inkscape:connector-curvature="0"
   style="fill:#ffffff;stroke:#000000;stroke-width:0.0283;stroke-miterlimit:10" />
	<path
   stroke-miterlimit="10"
   d="m 231.924,253.287 h 51 c 6.627,0 12,-5.373 12,-12 v -28 c 0,-6.627 -5.373,-12 -12,-12 h -51 c -6.627,0 -12,5.373 -12,12 v 28 c 0,6.627 5.372,12 12,12 z"
   id="path37"
   inkscape:connector-curvature="0"
   style="fill:#ffffff;stroke:#000000;stroke-width:0.0283;stroke-miterlimit:10" />
	<path
   stroke-miterlimit="10"
   d="m 311.749,253.287 h 51 c 6.627,0 12,-5.373 12,-12 v -28 c 0,-6.627 -5.373,-12 -12,-12 h -51 c -6.628,0 -12,5.373 -12,12 v 28 c 0,6.627 5.372,12 12,12 z"
   id="path39"
   inkscape:connector-curvature="0"
   style="fill:#ffffff;stroke:#000000;stroke-width:0.0283;stroke-miterlimit:10" />
	<path
   stroke-miterlimit="10"
   d="m 391.118,253.287 h 51 c 6.627,0 12,-5.373 12,-12 v -28 c 0,-6.627 -5.373,-12 -12,-12 h -51 c -6.628,0 -12,5.373 -12,12 v 28 c 0,6.627 5.372,12 12,12 z"
   id="path41"
   inkscape:connector-curvature="0"
   style="fill:#ffffff;stroke:#000000;stroke-width:0.0283;stroke-miterlimit:10" />
	<path
   stroke-miterlimit="10"
   d="m 470.613,253.287 h 51 c 6.627,0 12,-5.373 12,-12 v -28 c 0,-6.627 -5.373,-12 -12,-12 h -51 c -6.627,0 -12,5.373 -12,12 v 28 c 0,6.627 5.373,12 12,12 z"
   id="path43"
   inkscape:connector-curvature="0"
   style="fill:#ffffff;stroke:#000000;stroke-width:0.0283;stroke-miterlimit:10" />
	<path
   stroke-miterlimit="10"
   d="m 550.166,253.287 h 51 c 6.627,0 12,-5.373 12,-12 v -28 c 0,-6.627 -5.373,-12 -12,-12 h -51 c -6.627,0 -12,5.373 -12,12 v 28 c 0,6.627 5.373,12 12,12 z"
   id="path45"
   inkscape:connector-curvature="0"
   style="fill:#ffffff;stroke:#000000;stroke-width:0.0283;stroke-miterlimit:10" />
	<path
   stroke-miterlimit="10"
   d="m 72.545,314.953 h 51 c 6.627,0 12,-5.373 12,-12 v -28 c 0,-6.627 -5.373,-12 -12,-12 h -51 c -6.627,0 -12,5.373 -12,12 v 28 c 0,6.627 5.372,12 12,12 z"
   id="path47"
   inkscape:connector-curvature="0"
   style="fill:#ffffff;stroke:#000000;stroke-width:0.0283;stroke-miterlimit:10" />
	<path
   stroke-miterlimit="10"
   d="m 152.634,314.953 h 51 c 6.627,0 12,-5.373 12,-12 v -28 c 0,-6.627 -5.373,-12 -12,-12 h -51 c -6.627,0 -12,5.373 -12,12 v 28 c 0,6.627 5.373,12 12,12 z"
   id="path49"
   inkscape:connector-curvature="0"
   style="fill:#ffffff;stroke:#000000;stroke-width:0.0283;stroke-miterlimit:10" />
	<path
   stroke-miterlimit="10"
   d="m 232.545,314.953 h 51 c 6.627,0 12,-5.373 12,-12 v -28 c 0,-6.627 -5.373,-12 -12,-12 h -51 c -6.627,0 -12,5.373 -12,12 v 28 c 0,6.627 5.372,12 12,12 z"
   id="path51"
   inkscape:connector-curvature="0"
   style="fill:#ffffff;stroke:#000000;stroke-width:0.0283;stroke-miterlimit:10" />
	<path
   stroke-miterlimit="10"
   d="m 312.37,314.953 h 51 c 6.627,0 12,-5.373 12,-12 v -28 c 0,-6.627 -5.373,-12 -12,-12 h -51 c -6.628,0 -12,5.373 -12,12 v 28 c 0,6.627 5.372,12 12,12 z"
   id="path53"
   inkscape:connector-curvature="0"
   style="fill:#ffffff;stroke:#000000;stroke-width:0.0283;stroke-miterlimit:10" />
	<path
   stroke-miterlimit="10"
   d="m 391.739,314.953 h 51 c 6.627,0 12,-5.373 12,-12 v -28 c 0,-6.627 -5.373,-12 -12,-12 h -51 c -6.628,0 -12,5.373 -12,12 v 28 c 0,6.627 5.372,12 12,12 z"
   id="path55"
   inkscape:connector-curvature="0"
   style="fill:#ffffff;stroke:#000000;stroke-width:0.0283;stroke-miterlimit:10" />
	<path
   stroke-miterlimit="10"
   d="m 471.234,314.953 h 51 c 6.627,0 12,-5.373 12,-12 v -28 c 0,-6.627 -5.373,-12 -12,-12 h -51 c -6.627,0 -12,5.373 -12,12 v 28 c 0,6.627 5.373,12 12,12 z"
   id="path57"
   inkscape:connector-curvature="0"
   style="fill:#ffffff;stroke:#000000;stroke-width:0.0283;stroke-miterlimit:10" />
	<path
   stroke-miterlimit="10"
   d="m 550.787,314.953 h 51 c 6.627,0 12,-5.373 12,-12 v -28 c 0,-6.627 -5.373,-12 -12,-12 h -51 c -6.627,0 -12,5.373 -12,12 v 28 c 0,6.627 5.373,12 12,12 z"
   id="path59"
   inkscape:connector-curvature="0"
   style="fill:#ffffff;stroke:#000000;stroke-width:0.0283;stroke-miterlimit:10" />
	<path
   stroke-miterlimit="10"
   d="m 72.704,377.954 h 51 c 6.627,0 12,-5.373 12,-12 v -28.001 c 0,-6.627 -5.373,-12 -12,-12 h -51 c -6.627,0 -12,5.373 -12,12 v 28.001 c 0,6.627 5.373,12 12,12 z"
   id="path61"
   inkscape:connector-curvature="0"
   style="fill:#ffffff;stroke:#000000;stroke-width:0.0283;stroke-miterlimit:10" />
	<path
   stroke-miterlimit="10"
   d="m 152.793,377.954 h 51 c 6.627,0 12,-5.373 12,-12 v -28.001 c 0,-6.627 -5.373,-12 -12,-12 h -51 c -6.627,0 -12,5.373 -12,12 v 28.001 c 0,6.627 5.373,12 12,12 z"
   id="path63"
   inkscape:connector-curvature="0"
   style="fill:#ffffff;stroke:#000000;stroke-width:0.0283;stroke-miterlimit:10" />
	<path
   stroke-miterlimit="10"
   d="m 232.704,377.954 h 51 c 6.627,0 12,-5.373 12,-12 v -28.001 c 0,-6.627 -5.373,-12 -12,-12 h -51 c -6.627,0 -12,5.373 -12,12 v 28.001 c 0,6.627 5.373,12 12,12 z"
   id="path65"
   inkscape:connector-curvature="0"
   style="fill:#ffffff;stroke:#000000;stroke-width:0.0283;stroke-miterlimit:10" />
	<path
   stroke-miterlimit="10"
   d="m 312.529,377.954 h 51 c 6.627,0 12,-5.373 12,-12 v -28.001 c 0,-6.627 -5.373,-12 -12,-12 h -51 c -6.628,0 -12,5.373 -12,12 v 28.001 c 0,6.627 5.372,12 12,12 z"
   id="path67"
   inkscape:connector-curvature="0"
   style="fill:#ffffff;stroke:#000000;stroke-width:0.0283;stroke-miterlimit:10" />
	<path
   stroke-miterlimit="10"
   d="m 391.898,377.954 h 51 c 6.627,0 12,-5.373 12,-12 v -28.001 c 0,-6.627 -5.373,-12 -12,-12 h -51 c -6.628,0 -12,5.373 -12,12 v 28.001 c 0,6.627 5.373,12 12,12 z"
   id="path69"
   inkscape:connector-curvature="0"
   style="fill:#ffffff;stroke:#000000;stroke-width:0.0283;stroke-miterlimit:10" />
	<path
   stroke-miterlimit="10"
   d="m 471.394,377.954 h 51 c 6.627,0 12,-5.373 12,-12 v -28.001 c 0,-6.627 -5.373,-12 -12,-12 h -51 c -6.627,0 -12,5.373 -12,12 v 28.001 c 0,6.627 5.373,12 12,12 z"
   id="path71"
   inkscape:connector-curvature="0"
   style="fill:#ffffff;stroke:#000000;stroke-width:0.0283;stroke-miterlimit:10" />
	<path
   stroke-miterlimit="10"
   d="m 550.946,377.954 h 51 c 6.627,0 12,-5.373 12,-12 v -28.001 c 0,-6.627 -5.373,-12 -12,-12 h -51 c -6.627,0 -12,5.373 -12,12 v 28.001 c 0,6.627 5.373,12 12,12 z"
   id="path73"
   inkscape:connector-curvature="0"
   style="fill:#ffffff;stroke:#000000;stroke-width:0.0283;stroke-miterlimit:10" />
	<path
   stroke-miterlimit="10"
   d="m 123.924,388.621 h -51 c -6.627,0 -12,5.372 -12,12 v 28 c 0,6.627 5.373,12 12,12 h 51 c 6.627,0 12,-5.373 12,-12 v -28 c 0,-6.628 -5.373,-12 -12,-12 z"
   id="path75"
   inkscape:connector-curvature="0"
   style="fill:#ffffff;stroke:#000000;stroke-width:0.0283;stroke-miterlimit:10" />
	<path
   stroke-miterlimit="10"
   d="m 204.013,388.621 h -51 c -6.627,0 -12,5.372 -12,12 v 28 c 0,6.627 5.373,12 12,12 h 51 c 6.627,0 12,-5.373 12,-12 v -28 c 0,-6.628 -5.372,-12 -12,-12 z"
   id="path77"
   inkscape:connector-curvature="0"
   style="fill:#ffffff;stroke:#000000;stroke-width:0.0283;stroke-miterlimit:10" />
	<path
   stroke-miterlimit="10"
   d="m 283.924,388.621 h -51 c -6.627,0 -12,5.372 -12,12 v 28 c 0,6.627 5.373,12 12,12 h 51 c 6.627,0 12,-5.373 12,-12 v -28 c 0,-6.628 -5.373,-12 -12,-12 z"
   id="path79"
   inkscape:connector-curvature="0"
   style="fill:#ffffff;stroke:#000000;stroke-width:0.0283;stroke-miterlimit:10" />
	<path
   stroke-miterlimit="10"
   d="m 363.749,388.621 h -51 c -6.628,0 -12,5.372 -12,12 v 28 c 0,6.627 5.372,12 12,12 h 51 c 6.627,0 12,-5.373 12,-12 v -28 c 0,-6.628 -5.373,-12 -12,-12 z"
   id="path81"
   inkscape:connector-curvature="0"
   style="fill:#ffffff;stroke:#000000;stroke-width:0.0283;stroke-miterlimit:10" />
	<path
   stroke-miterlimit="10"
   d="m 443.118,388.621 h -51 c -6.628,0 -12,5.372 -12,12 v 28 c 0,6.627 5.372,12 12,12 h 51 c 6.627,0 12,-5.373 12,-12 v -28 c 0,-6.628 -5.373,-12 -12,-12 z"
   id="path83"
   inkscape:connector-curvature="0"
   style="fill:#ffffff;stroke:#000000;stroke-width:0.0283;stroke-miterlimit:10" />
	<path
   stroke-miterlimit="10"
   d="m 522.613,388.621 h -51 c -6.627,0 -12,5.372 -12,12 v 28 c 0,6.627 5.373,12 12,12 h 51 c 6.627,0 12,-5.373 12,-12 v -28 c 0,-6.628 -5.373,-12 -12,-12 z"
   id="path85"
   inkscape:connector-curvature="0"
   style="fill:#ffffff;stroke:#000000;stroke-width:0.0283;stroke-miterlimit:10" />
	<path
   stroke-miterlimit="10"
   d="m 602.166,388.621 h -51 c -6.627,0 -12,5.372 -12,12 v 28 c 0,6.627 5.373,12 12,12 h 51 c 6.627,0 12,-5.373 12,-12 v -28 c 0,-6.628 -5.373,-12 -12,-12 z"
   id="path87"
   inkscape:connector-curvature="0"
   style="fill:#ffffff;stroke:#000000;stroke-width:0.0283;stroke-miterlimit:10" />
</g>
</svg>