<?xml version="1.0" encoding="UTF-8" standalone="no"?>
<!-- Generator: Adobe Illustrator 15.0.2, SVG Export Plug-In . SVG Version: 6.00 Build 0)  -->

<svg
   xmlns:dc="http://purl.org/dc/elements/1.1/"
   xmlns:cc="http://creativecommons.org/ns#"
   xmlns:rdf="http://www.w3.org/1999/02/22-rdf-syntax-ns#"
   xmlns:svg="http://www.w3.org/2000/svg"
   xmlns="http://www.w3.org/2000/svg"
   xmlns:sodipodi="http://sodipodi.sourceforge.net/DTD/sodipodi-0.dtd"
   xmlns:inkscape="http://www.inkscape.org/namespaces/inkscape"
   version="1.1"
   id="Layer_1"
   x="0px"
   y="0px"
   width="560.78125"
   height="372.12497"
   viewBox="0 0 560.78123 372.12499"
   enable-background="new 0 0 674.65 515.91"
   xml:space="preserve"
   inkscape:version="0.48.2 r9819"
   sodipodi:docname="touchchat-30.svg"><metadata
   id="metadata69"><rdf:RDF><cc:Work
       rdf:about=""><dc:format>image/svg+xml</dc:format><dc:type
         rdf:resource="http://purl.org/dc/dcmitype/StillImage" /></cc:Work></rdf:RDF></metadata><defs
   id="defs67" /><sodipodi:namedview
   pagecolor="#ffffff"
   bordercolor="#666666"
   borderopacity="1"
   objecttolerance="10"
   gridtolerance="10"
   guidetolerance="10"
   inkscape:pageopacity="0"
   inkscape:pageshadow="2"
   inkscape:window-width="640"
   inkscape:window-height="480"
   id="namedview65"
   showgrid="false"
   fit-margin-top="0"
   fit-margin-left="0"
   fit-margin-right="0"
   fit-margin-bottom="0"
   inkscape:zoom="0.45744415"
   inkscape:cx="279.88749"
   inkscape:cy="185.60749"
   inkscape:window-x="0"
   inkscape:window-y="22"
   inkscape:window-maximized="0"
   inkscape:current-layer="Layer_1" />
<g
   id="g3"
   transform="translate(-57.43753,-71.4375)">
	<path
   stroke-miterlimit="10"
   d="m 69.041,127 h 83.918 c 6.374,0 11.541,-4.928 11.541,-11.008 V 82.508 C 164.5,76.428 159.333,71.5 152.959,71.5 H 69.041 C 62.667,71.5 57.5,76.428 57.5,82.508 v 33.483 c 0,6.081 5.167,11.009 11.541,11.009 z"
   id="path5"
   inkscape:connector-curvature="0"
   style="fill:none;stroke:#000000;stroke-width:0.0283;stroke-miterlimit:10" />
	<path
   stroke-miterlimit="10"
   d="m 181.541,127 h 83.918 C 271.833,127 277,122.072 277,115.992 V 82.508 C 277,76.428 271.833,71.5 265.459,71.5 H 181.541 C 175.167,71.5 170,76.428 170,82.508 v 33.483 c 0,6.081 5.167,11.009 11.541,11.009 z"
   id="path7"
   inkscape:connector-curvature="0"
   style="fill:none;stroke:#000000;stroke-width:0.0283;stroke-miterlimit:10" />
	<path
   stroke-miterlimit="10"
   d="m 294.949,127 h 83.918 c 6.374,0 11.541,-4.928 11.541,-11.008 V 82.508 c 0,-6.08 -5.167,-11.008 -11.541,-11.008 h -83.918 c -6.374,0 -11.541,4.928 -11.541,11.008 v 33.483 c 0,6.081 5.167,11.009 11.541,11.009 z"
   id="path9"
   inkscape:connector-curvature="0"
   style="fill:none;stroke:#000000;stroke-width:0.0283;stroke-miterlimit:10" />
	<path
   stroke-miterlimit="10"
   d="m 408.541,127 h 83.918 C 498.833,127 504,122.072 504,115.992 V 82.508 C 504,76.428 498.833,71.5 492.459,71.5 H 408.541 C 402.167,71.5 397,76.428 397,82.508 v 33.483 c 0,6.081 5.167,11.009 11.541,11.009 z"
   id="path11"
   inkscape:connector-curvature="0"
   style="fill:none;stroke:#000000;stroke-width:0.0283;stroke-miterlimit:10" />
	<path
   stroke-miterlimit="10"
   d="m 521.041,127 h 83.918 c 6.374,0 11.541,-4.928 11.541,-11.008 V 82.508 c 0,-6.08 -5.167,-11.008 -11.541,-11.008 h -83.918 c -6.374,0 -11.541,4.928 -11.541,11.008 v 33.483 c 0,6.081 5.167,11.009 11.541,11.009 z"
   id="path13"
   inkscape:connector-curvature="0"
   style="fill:none;stroke:#000000;stroke-width:0.0283;stroke-miterlimit:10" />
	<path
   stroke-miterlimit="10"
   d="M 153.705,135.5 H 69.787 c -6.374,0 -11.541,4.928 -11.541,11.008 v 33.483 c 0,6.08 5.167,11.008 11.541,11.008 h 83.918 c 6.374,0 11.541,-4.928 11.541,-11.008 v -33.483 c 0,-6.08 -5.167,-11.008 -11.541,-11.008 z"
   id="path15"
   inkscape:connector-curvature="0"
   style="fill:none;stroke:#000000;stroke-width:0.0283;stroke-miterlimit:10" />
	<path
   stroke-miterlimit="10"
   d="m 266.205,135.5 h -83.918 c -6.374,0 -11.541,4.928 -11.541,11.008 v 33.483 c 0,6.08 5.167,11.008 11.541,11.008 h 83.918 c 6.374,0 11.541,-4.928 11.541,-11.008 v -33.483 c 0,-6.08 -5.167,-11.008 -11.541,-11.008 z"
   id="path17"
   inkscape:connector-curvature="0"
   style="fill:none;stroke:#000000;stroke-width:0.0283;stroke-miterlimit:10" />
	<path
   stroke-miterlimit="10"
   d="m 379.613,135.5 h -83.918 c -6.374,0 -11.541,4.928 -11.541,11.008 v 33.483 c 0,6.08 5.167,11.008 11.541,11.008 h 83.918 c 6.374,0 11.541,-4.928 11.541,-11.008 v -33.483 c 0,-6.08 -5.167,-11.008 -11.541,-11.008 z"
   id="path19"
   inkscape:connector-curvature="0"
   style="fill:none;stroke:#000000;stroke-width:0.0283;stroke-miterlimit:10" />
	<path
   stroke-miterlimit="10"
   d="m 493.205,135.5 h -83.918 c -6.374,0 -11.541,4.928 -11.541,11.008 v 33.483 c 0,6.08 5.167,11.008 11.541,11.008 h 83.918 c 6.374,0 11.541,-4.928 11.541,-11.008 v -33.483 c 0,-6.08 -5.167,-11.008 -11.541,-11.008 z"
   id="path21"
   inkscape:connector-curvature="0"
   style="fill:none;stroke:#000000;stroke-width:0.0283;stroke-miterlimit:10" />
	<path
   stroke-miterlimit="10"
   d="m 605.705,135.5 h -83.918 c -6.374,0 -11.541,4.928 -11.541,11.008 v 33.483 c 0,6.08 5.167,11.008 11.541,11.008 h 83.918 c 6.374,0 11.541,-4.928 11.541,-11.008 v -33.483 c 0,-6.08 -5.167,-11.008 -11.541,-11.008 z"
   id="path23"
   inkscape:connector-curvature="0"
   style="fill:none;stroke:#000000;stroke-width:0.0283;stroke-miterlimit:10" />
	<path
   stroke-miterlimit="10"
   d="M 154.613,199.333 H 70.695 c -6.374,0 -11.541,4.928 -11.541,11.008 v 33.483 c 0,6.08 5.167,11.009 11.541,11.009 h 83.918 c 6.374,0 11.541,-4.929 11.541,-11.009 v -33.483 c 0,-6.079 -5.167,-11.008 -11.541,-11.008 z"
   id="path25"
   inkscape:connector-curvature="0"
   style="fill:none;stroke:#000000;stroke-width:0.0283;stroke-miterlimit:10" />
	<path
   stroke-miterlimit="10"
   d="m 267.113,199.333 h -83.918 c -6.374,0 -11.541,4.928 -11.541,11.008 v 33.483 c 0,6.08 5.167,11.009 11.541,11.009 h 83.918 c 6.374,0 11.541,-4.929 11.541,-11.009 v -33.483 c 0,-6.079 -5.167,-11.008 -11.541,-11.008 z"
   id="path27"
   inkscape:connector-curvature="0"
   style="fill:none;stroke:#000000;stroke-width:0.0283;stroke-miterlimit:10" />
	<path
   stroke-miterlimit="10"
   d="m 380.521,199.333 h -83.918 c -6.374,0 -11.541,4.928 -11.541,11.008 v 33.483 c 0,6.08 5.167,11.009 11.541,11.009 h 83.918 c 6.374,0 11.541,-4.929 11.541,-11.009 v -33.483 c 0,-6.079 -5.166,-11.008 -11.541,-11.008 z"
   id="path29"
   inkscape:connector-curvature="0"
   style="fill:none;stroke:#000000;stroke-width:0.0283;stroke-miterlimit:10" />
	<path
   stroke-miterlimit="10"
   d="m 494.113,199.333 h -83.918 c -6.374,0 -11.541,4.928 -11.541,11.008 v 33.483 c 0,6.08 5.167,11.009 11.541,11.009 h 83.918 c 6.374,0 11.541,-4.929 11.541,-11.009 v -33.483 c 0,-6.079 -5.167,-11.008 -11.541,-11.008 z"
   id="path31"
   inkscape:connector-curvature="0"
   style="fill:none;stroke:#000000;stroke-width:0.0283;stroke-miterlimit:10" />
	<path
   stroke-miterlimit="10"
   d="m 606.613,199.333 h -83.918 c -6.374,0 -11.541,4.928 -11.541,11.008 v 33.483 c 0,6.08 5.167,11.009 11.541,11.009 h 83.918 c 6.374,0 11.541,-4.929 11.541,-11.009 v -33.483 c 0,-6.079 -5.167,-11.008 -11.541,-11.008 z"
   id="path33"
   inkscape:connector-curvature="0"
   style="fill:none;stroke:#000000;stroke-width:0.0283;stroke-miterlimit:10" />
	<path
   stroke-miterlimit="10"
   d="M 153.535,261.667 H 69.617 c -6.374,0 -11.541,4.929 -11.541,11.009 v 33.482 c 0,6.08 5.167,11.009 11.541,11.009 h 83.918 c 6.374,0 11.541,-4.929 11.541,-11.009 v -33.482 c 0,-6.08 -5.167,-11.009 -11.541,-11.009 z"
   id="path35"
   inkscape:connector-curvature="0"
   style="fill:none;stroke:#000000;stroke-width:0.0283;stroke-miterlimit:10" />
	<path
   stroke-miterlimit="10"
   d="m 266.035,261.667 h -83.918 c -6.374,0 -11.541,4.929 -11.541,11.009 v 33.482 c 0,6.08 5.167,11.009 11.541,11.009 h 83.918 c 6.374,0 11.541,-4.929 11.541,-11.009 v -33.482 c 0,-6.08 -5.167,-11.009 -11.541,-11.009 z"
   id="path37"
   inkscape:connector-curvature="0"
   style="fill:none;stroke:#000000;stroke-width:0.0283;stroke-miterlimit:10" />
	<path
   stroke-miterlimit="10"
   d="m 379.443,261.667 h -83.918 c -6.374,0 -11.541,4.929 -11.541,11.009 v 33.482 c 0,6.08 5.167,11.009 11.541,11.009 h 83.918 c 6.374,0 11.541,-4.929 11.541,-11.009 v -33.482 c 0,-6.08 -5.167,-11.009 -11.541,-11.009 z"
   id="path39"
   inkscape:connector-curvature="0"
   style="fill:none;stroke:#000000;stroke-width:0.0283;stroke-miterlimit:10" />
	<path
   stroke-miterlimit="10"
   d="m 493.035,261.667 h -83.918 c -6.374,0 -11.541,4.929 -11.541,11.009 v 33.482 c 0,6.08 5.167,11.009 11.541,11.009 h 83.918 c 6.374,0 11.541,-4.929 11.541,-11.009 v -33.482 c 0,-6.08 -5.167,-11.009 -11.541,-11.009 z"
   id="path41"
   inkscape:connector-curvature="0"
   style="fill:none;stroke:#000000;stroke-width:0.0283;stroke-miterlimit:10" />
	<path
   stroke-miterlimit="10"
   d="m 605.535,261.667 h -83.918 c -6.374,0 -11.541,4.929 -11.541,11.009 v 33.482 c 0,6.08 5.167,11.009 11.541,11.009 h 83.918 c 6.374,0 11.541,-4.929 11.541,-11.009 v -33.482 c 0,-6.08 -5.167,-11.009 -11.541,-11.009 z"
   id="path43"
   inkscape:connector-curvature="0"
   style="fill:none;stroke:#000000;stroke-width:0.0283;stroke-miterlimit:10" />
	<path
   stroke-miterlimit="10"
   d="m 69.049,381.242 h 83.918 c 6.374,0 11.541,-4.928 11.541,-11.008 V 336.75 c 0,-6.08 -5.167,-11.008 -11.541,-11.008 H 69.049 c -6.374,0 -11.541,4.928 -11.541,11.008 v 33.484 c 0,6.08 5.167,11.008 11.541,11.008 z"
   id="path45"
   inkscape:connector-curvature="0"
   style="fill:none;stroke:#000000;stroke-width:0.0283;stroke-miterlimit:10" />
	<path
   stroke-miterlimit="10"
   d="m 181.549,381.242 h 83.918 c 6.374,0 11.541,-4.928 11.541,-11.008 V 336.75 c 0,-6.08 -5.167,-11.008 -11.541,-11.008 h -83.918 c -6.374,0 -11.541,4.928 -11.541,11.008 v 33.484 c 0,6.08 5.167,11.008 11.541,11.008 z"
   id="path47"
   inkscape:connector-curvature="0"
   style="fill:none;stroke:#000000;stroke-width:0.0283;stroke-miterlimit:10" />
	<path
   stroke-miterlimit="10"
   d="m 294.957,381.242 h 83.918 c 6.374,0 11.541,-4.928 11.541,-11.008 V 336.75 c 0,-6.08 -5.167,-11.008 -11.541,-11.008 h -83.918 c -6.374,0 -11.541,4.928 -11.541,11.008 v 33.484 c 0,6.08 5.167,11.008 11.541,11.008 z"
   id="path49"
   inkscape:connector-curvature="0"
   style="fill:none;stroke:#000000;stroke-width:0.0283;stroke-miterlimit:10" />
	<path
   stroke-miterlimit="10"
   d="m 408.549,381.242 h 83.918 c 6.374,0 11.541,-4.928 11.541,-11.008 V 336.75 c 0,-6.08 -5.167,-11.008 -11.541,-11.008 h -83.918 c -6.374,0 -11.541,4.928 -11.541,11.008 v 33.484 c 0,6.08 5.167,11.008 11.541,11.008 z"
   id="path51"
   inkscape:connector-curvature="0"
   style="fill:none;stroke:#000000;stroke-width:0.0283;stroke-miterlimit:10" />
	<path
   stroke-miterlimit="10"
   d="m 521.049,381.242 h 83.918 c 6.374,0 11.541,-4.928 11.541,-11.008 V 336.75 c 0,-6.08 -5.167,-11.008 -11.541,-11.008 h -83.918 c -6.374,0 -11.541,4.928 -11.541,11.008 v 33.484 c 0,6.08 5.167,11.008 11.541,11.008 z"
   id="path53"
   inkscape:connector-curvature="0"
   style="fill:none;stroke:#000000;stroke-width:0.0283;stroke-miterlimit:10" />
	<path
   stroke-miterlimit="10"
   d="M 153.284,388 H 69.366 c -6.374,0 -11.541,4.928 -11.541,11.008 v 33.484 c 0,6.08 5.167,11.008 11.541,11.008 h 83.918 c 6.374,0 11.541,-4.928 11.541,-11.008 v -33.484 c 0,-6.08 -5.167,-11.008 -11.541,-11.008 z"
   id="path55"
   inkscape:connector-curvature="0"
   style="fill:none;stroke:#000000;stroke-width:0.0283;stroke-miterlimit:10" />
	<path
   stroke-miterlimit="10"
   d="m 265.784,388 h -83.918 c -6.374,0 -11.541,4.928 -11.541,11.008 v 33.484 c 0,6.08 5.167,11.008 11.541,11.008 h 83.918 c 6.374,0 11.541,-4.928 11.541,-11.008 v -33.484 c 0,-6.08 -5.167,-11.008 -11.541,-11.008 z"
   id="path57"
   inkscape:connector-curvature="0"
   style="fill:none;stroke:#000000;stroke-width:0.0283;stroke-miterlimit:10" />
	<path
   stroke-miterlimit="10"
   d="m 379.192,388 h -83.918 c -6.374,0 -11.541,4.928 -11.541,11.008 v 33.484 c 0,6.08 5.167,11.008 11.541,11.008 h 83.918 c 6.374,0 11.541,-4.928 11.541,-11.008 v -33.484 c 0,-6.08 -5.167,-11.008 -11.541,-11.008 z"
   id="path59"
   inkscape:connector-curvature="0"
   style="fill:none;stroke:#000000;stroke-width:0.0283;stroke-miterlimit:10" />
	<path
   stroke-miterlimit="10"
   d="m 492.784,388 h -83.918 c -6.374,0 -11.541,4.928 -11.541,11.008 v 33.484 c 0,6.08 5.167,11.008 11.541,11.008 h 83.918 c 6.374,0 11.541,-4.928 11.541,-11.008 v -33.484 c 0,-6.08 -5.167,-11.008 -11.541,-11.008 z"
   id="path61"
   inkscape:connector-curvature="0"
   style="fill:none;stroke:#000000;stroke-width:0.0283;stroke-miterlimit:10" />
	<path
   stroke-miterlimit="10"
   d="m 605.284,388 h -83.918 c -6.374,0 -11.541,4.928 -11.541,11.008 v 33.484 c 0,6.08 5.167,11.008 11.541,11.008 h 83.918 c 6.374,0 11.541,-4.928 11.541,-11.008 v -33.484 c 0,-6.08 -5.167,-11.008 -11.541,-11.008 z"
   id="path63"
   inkscape:connector-curvature="0"
   style="fill:none;stroke:#000000;stroke-width:0.0283;stroke-miterlimit:10" />
</g>
</svg>