<?xml version="1.0" encoding="iso-8859-1"?>
<!-- Generator: Adobe Illustrator 15.0.2, SVG Export Plug-In . SVG Version: 6.00 Build 0)  -->
<!DOCTYPE svg PUBLIC "-//W3C//DTD SVG 1.1//EN" "http://www.w3.org/Graphics/SVG/1.1/DTD/svg11.dtd">
<svg version="1.1" id="Layer_1" xmlns="http://www.w3.org/2000/svg" xmlns:xlink="http://www.w3.org/1999/xlink" x="0px" y="0px"
	 width="805.04px" height="498.9px" viewBox="0 0 805.04 498.9" style="enable-background:new 0 0 805.04 498.9;"
	 xml:space="preserve">
<g>
	<path style="fill:none;stroke:#020202;stroke-width:0.0283;" d="M403.083,487.917"/>
	<path style="fill:none;stroke:#020202;stroke-width:0.0283;" d="M48.567,56.719c0,47.106,0,356.771,0,400.562"/>
	<path style="fill:none;stroke:#020202;stroke-width:0.0283;" d="M737.438,38.304c-45.27,0-267.372,0-267.372,0v-3.082
		c0-12.714-7.216-23.021-16.113-23.021h-51.773c-8.898,0-16.111,10.308-16.111,23.021v3.082c0,0-268.082,0-317.817,0"/>
	<path style="fill:none;stroke:#020202;stroke-width:0.0283;" d="M757.229,456.581c0-46.25,0-352.594,0-399.769"/>
	<path style="fill:none;stroke:#020202;stroke-width:0.0283;" d="M66.625,474.84c42.918,0,318.337,0,318.337,0v-4.217
		c0-7.345,3.048-13.3,6.808-13.3h23.005c3.76,0,6.807,5.955,6.807,13.3v4.217c0,0,265.778,0,315.792,0"/>
	<path style="fill:none;stroke:#020202;stroke-width:0.0283;" d="M48.543,454.751c0,11.097,9.764,20.077,21.832,20.077"/>
	<path style="fill:none;stroke:#020202;stroke-width:0.0283;" d="M70.406,38.313c-12.068,0-21.832,8.98-21.832,20.077"/>
	<path style="fill:none;stroke:#020202;stroke-width:0.0283;" d="M735.397,474.85c12.068,0,21.832-8.98,21.832-20.077"/>
	<path style="fill:none;stroke:#020202;stroke-width:0.0283;" d="M757.219,58.391c0-11.097-9.764-20.077-21.832-20.077"/>
</g>
</svg>
